<svg xmlns="http://www.w3.org/2000/svg" xmlns:xlink="http://www.w3.org/1999/xlink" viewBox="0 0 54.654 81.925">
  <defs>
    <style>
      .cls-1 {
        isolation: isolate;
      }

      .cls-2 {
        fill: url(#linear-gradient);
      }

      .cls-3 {
        fill: url(#linear-gradient-2);
      }

      .cls-4 {
        fill: url(#linear-gradient-3);
      }

      .cls-5 {
        fill: url(#linear-gradient-4);
      }

      .cls-6 {
        fill: #fff;
        opacity: 0.5;
      }

      .cls-12, .cls-6 {
        mix-blend-mode: screen;
      }

      .cls-7 {
        fill: url(#linear-gradient-5);
      }

      .cls-8 {
        fill: #daeded;
      }

      .cls-10, .cls-8 {
        mix-blend-mode: multiply;
      }

      .cls-9 {
        fill: url(#linear-gradient-6);
      }

      .cls-11 {
        fill: #ee4230;
      }

      .cls-13 {
        fill: #8a0707;
      }

      .cls-14 {
        fill: url(#linear-gradient-7);
      }
    </style>
    <linearGradient id="linear-gradient" x1="16.733" y1="45.31" x2="16.733" gradientUnits="userSpaceOnUse">
      <stop offset="0.442" stop-color="#c46d1d"/>
      <stop offset="0.47" stop-color="#c77120"/>
      <stop offset="0.823" stop-color="#ec9f48"/>
      <stop offset="1" stop-color="#fab157"/>
    </linearGradient>
    <linearGradient id="linear-gradient-2" x1="14.11" y1="49.895" x2="14.11" y2="6.565" xlink:href="#linear-gradient"/>
    <linearGradient id="linear-gradient-3" x1="2.637" y1="44.154" x2="2.637" y2="22.767" gradientUnits="userSpaceOnUse">
      <stop offset="0.048" stop-color="#8adede"/>
      <stop offset="0.659" stop-color="#b6f0f0"/>
      <stop offset="1" stop-color="#c9f8f8"/>
    </linearGradient>
    <linearGradient id="linear-gradient-4" x1="52.016" y1="44.154" x2="52.016" y2="22.767" xlink:href="#linear-gradient-3"/>
    <linearGradient id="linear-gradient-5" x1="27.325" y1="81.925" x2="27.325" y2="34.482" xlink:href="#linear-gradient-3"/>
    <linearGradient id="linear-gradient-6" x1="27.323" y1="74.31" x2="27.323" y2="41.06" gradientUnits="userSpaceOnUse">
      <stop offset="0" stop-color="#a80909"/>
      <stop offset="0.861" stop-color="#e63b2b"/>
      <stop offset="1" stop-color="#f04431"/>
    </linearGradient>
    <linearGradient id="linear-gradient-7" x1="27.325" y1="34.482" x2="27.325" y2="22.654" xlink:href="#linear-gradient-3"/>
  </defs>
  <title>Asset 9</title>
  <g class="cls-1">
    <g id="Layer_2" data-name="Layer 2">
      <g id="Layer_1-2" data-name="Layer 1">
        <g>
          <path class="cls-2" d="M21.515,45.31a1.559,1.559,0,0,0,.3-.031,1.342,1.342,0,0,0,1.016-1.6L13.259,1.048a1.344,1.344,0,0,0-2.623.588l9.573,42.623A1.342,1.342,0,0,0,21.515,45.31Z"/>
          <path class="cls-3" d="M22.248,49.888a1.554,1.554,0,0,0,.361-.086,1.344,1.344,0,0,0,.758-1.742L7.355,7.416a1.345,1.345,0,0,0-2.5.986L20.865,49.043A1.347,1.347,0,0,0,22.248,49.888Z"/>
          <path class="cls-4" d="M4,44.154a1.266,1.266,0,0,1-1.256-1.09L.117,24.109C.006,22.863-.2,22.781.5,22.767c.865-.015,2.105.776,2.205,1.471L5.261,42.7a1.268,1.268,0,0,1-1.08,1.437A.953.953,0,0,1,4,44.154Z"/>
          <path class="cls-5" d="M50.656,44.154a1.266,1.266,0,0,0,1.256-1.09l2.625-18.955c.111-1.246.318-1.328-.385-1.342-.863-.015-2.105.776-2.2,1.471L49.392,42.7a1.27,1.27,0,0,0,1.08,1.437A.963.963,0,0,0,50.656,44.154Z"/>
          <path class="cls-6" d="M.5,23.277c.863-.014,2.105.777,2.205,1.471L5.24,43.08a1.217,1.217,0,0,0,.021-.377L2.707,24.238c-.1-.7-1.34-1.486-2.2-1.471-.534.012-.543.061-.467.627C.089,23.3.222,23.283.5,23.277Z"/>
          <path class="cls-6" d="M51.943,24.748c.1-.694,1.344-1.485,2.207-1.471.285.006.416.027.469.127.076-.572.07-.625-.467-.637-.863-.015-2.105.776-2.2,1.471L49.392,42.7a1.307,1.307,0,0,0,.02.349Z"/>
          <polygon class="cls-7" points="27.328 34.482 53.283 34.482 46.123 81.925 27.328 81.925 8.525 81.925 1.367 34.482 27.328 34.482"/>
          <polygon class="cls-8" points="46.123 79.943 27.328 79.943 8.525 79.943 1.666 34.482 1.367 34.482 8.525 81.925 27.328 81.925 46.123 81.925 53.283 34.482 52.984 34.482 46.123 79.943"/>
          <path class="cls-9" d="M12.4,64.216c.168,3.825,4.4,3.94,4.4,3.94h.672V74.31H37.849V68.156s4.225-.115,4.4-3.94A3.476,3.476,0,0,1,39,66.236c-2.163-.023-3.319-3.17-3.293-3.559h.046v-5.2h.067s3.418-.1,3.553-3.182a2.808,2.808,0,0,1-2.62,1.629c-1.748-.021-2.679-2.562-2.658-2.875h-.037V48.908h.1s2.75-.074,2.859-2.561a2.26,2.26,0,0,1-2.107,1.313c-1.405-.016-2.155-2.061-2.139-2.313a6.027,6.027,0,0,0-5.447-4.287,6.03,6.03,0,0,0-5.453,4.287c.015.252-.735,2.3-2.139,2.313a2.261,2.261,0,0,1-2.109-1.313c.109,2.487,2.859,2.561,2.859,2.561h.1v4.144h-.034c.016.313-.914,2.854-2.658,2.875A2.81,2.81,0,0,1,15.271,54.3c.137,3.082,3.553,3.182,3.553,3.182h.066v5.2h.049c.024.389-1.131,3.536-3.291,3.559A3.483,3.483,0,0,1,12.4,64.216ZM23.863,52H22.33V50.121c0-.664.236-.971.771-.971s.762.307.762.971Zm2.113,0H24.447V50.121c0-.664.234-.971.764-.971s.765.307.765.971Zm2.115,0H26.558V50.121c0-.664.235-.971.77-.971s.763.307.763.971Zm2.114,0H28.67V50.121c0-.664.236-.971.769-.971s.766.307.766.971Zm2.113,0H30.785V50.121c0-.664.236-.971.763-.971s.77.307.77.971Zm2.27,18.218c0-.88.293-1.287.957-1.287s.959.407.959,1.287v2.508H34.588Zm-2.645,0c0-.88.295-1.287.959-1.287s.957.407.957,1.287v2.508H31.943Zm0-11.291c0-.884.295-1.293.959-1.293s.957.409.957,1.293v2.5H31.943ZM29.3,70.216c0-.88.3-1.287.959-1.287s.959.407.959,1.287v2.508H29.3Zm0-11.291c0-.884.3-1.293.959-1.293s.959.409.959,1.293v2.5H29.3ZM26.656,70.216c0-.88.3-1.287.957-1.287s.961.407.961,1.287v2.508H26.656Zm0-11.291c0-.884.3-1.293.957-1.293s.961.409.961,1.293v2.5H26.656ZM24.011,70.216c0-.88.3-1.287.961-1.287s.957.407.957,1.287v2.508H24.011Zm0-11.291c0-.884.3-1.293.961-1.293s.957.409.957,1.293v2.5H24.011ZM21.369,70.216c0-.88.3-1.287.959-1.287s.957.407.957,1.287v2.508H21.369Zm0-11.291c0-.884.3-1.293.959-1.293s.957.409.957,1.293v2.5H21.369ZM18.724,70.216c0-.88.3-1.287.961-1.287s.957.407.957,1.287v2.508H18.724Z"/>
          <g class="cls-10">
            <path class="cls-11" d="M27.613,68.49c-.662,0-.957.4-.957,1.287v.439c0-.88.3-1.287.957-1.287s.961.407.961,1.287v-.439C28.574,68.894,28.279,68.49,27.613,68.49Z"/>
            <path class="cls-11" d="M23.1,48.711c-.535,0-.771.306-.771.968v.442c0-.664.236-.971.771-.971s.762.307.762.971v-.442C23.863,49.017,23.629,48.711,23.1,48.711Z"/>
            <path class="cls-11" d="M22.328,57.2c-.664,0-.959.406-.959,1.291v.439c0-.884.3-1.293.959-1.293s.957.409.957,1.293v-.439C23.285,57.6,22.99,57.2,22.328,57.2Z"/>
            <path class="cls-11" d="M27.613,57.2c-.662,0-.957.406-.957,1.291v.439c0-.884.3-1.293.957-1.293s.961.409.961,1.293v-.439C28.574,57.6,28.279,57.2,27.613,57.2Z"/>
            <path class="cls-11" d="M31.548,48.711c-.527,0-.763.306-.763.968v.442c0-.664.236-.971.763-.971s.77.307.77.971v-.442C32.318,49.017,32.08,48.711,31.548,48.711Z"/>
            <path class="cls-11" d="M24.972,57.2c-.666,0-.961.406-.961,1.291v.439c0-.884.3-1.293.961-1.293s.957.409.957,1.293v-.439C25.929,57.6,25.634,57.2,24.972,57.2Z"/>
            <path class="cls-11" d="M25.211,48.711c-.53,0-.764.306-.764.968v.442c0-.664.234-.971.764-.971s.765.307.765.971v-.442C25.976,49.017,25.74,48.711,25.211,48.711Z"/>
            <path class="cls-11" d="M29.439,48.711c-.533,0-.769.306-.769.968v.442c0-.664.236-.971.769-.971s.766.307.766.971v-.442C30.205,49.017,29.968,48.711,29.439,48.711Z"/>
            <path class="cls-11" d="M24.972,68.49c-.666,0-.961.4-.961,1.287v.439c0-.88.3-1.287.961-1.287s.957.407.957,1.287v-.439C25.929,68.894,25.634,68.49,24.972,68.49Z"/>
            <path class="cls-11" d="M18.939,62.24H18.89v.267A1.033,1.033,0,0,0,18.939,62.24Z"/>
            <path class="cls-11" d="M19.685,68.49c-.664,0-.961.4-.961,1.287v.439c0-.88.3-1.287.961-1.287s.957.407.957,1.287v-.439C20.642,68.894,20.347,68.49,19.685,68.49Z"/>
            <path class="cls-11" d="M22.328,68.49c-.664,0-.959.4-.959,1.287v.439c0-.88.3-1.287.959-1.287s.957.407.957,1.287v-.439C23.285,68.894,22.99,68.49,22.328,68.49Z"/>
            <path class="cls-11" d="M27.328,48.711c-.535,0-.77.306-.77.968v.442c0-.664.235-.971.77-.971s.763.307.763.971v-.442C28.091,49.017,27.855,48.711,27.328,48.711Z"/>
            <path class="cls-11" d="M18.824,57.48h.066v-.441h-.066s-2.967-.088-3.479-2.594c-.045-.084-.074-.147-.074-.147C15.408,57.38,18.824,57.48,18.824,57.48Z"/>
            <path class="cls-11" d="M20.486,48.908h.1v-.44h-.1s-2.2-.076-2.734-1.888a1.825,1.825,0,0,1-.125-.233C17.736,48.834,20.486,48.908,20.486,48.908Z"/>
            <path class="cls-11" d="M17.472,67.716H16.8s-3.787-.109-4.334-3.365c-.039-.078-.064-.135-.064-.135.168,3.825,4.4,3.94,4.4,3.94h.672Z"/>
            <path class="cls-11" d="M35.545,68.49c-.664,0-.957.4-.957,1.287v.439c0-.88.293-1.287.957-1.287s.959.407.959,1.287v-.439C36.5,68.894,36.209,68.49,35.545,68.49Z"/>
            <path class="cls-11" d="M37.849,67.716v.44s4.225-.115,4.4-3.94c0,0-.026.057-.065.135C41.631,67.607,37.849,67.716,37.849,67.716Z"/>
            <rect class="cls-11" x="17.472" y="73.871" width="20.377" height="0.439"/>
            <path class="cls-11" d="M35.824,57.039h-.067v.441h.067s3.418-.1,3.553-3.182c0,0-.03.063-.075.143C38.789,56.951,35.824,57.039,35.824,57.039Z"/>
            <path class="cls-11" d="M32.9,68.49c-.664,0-.959.4-.959,1.287v.439c0-.88.295-1.287.959-1.287s.957.407.957,1.287v-.439C33.859,68.894,33.566,68.49,32.9,68.49Z"/>
            <path class="cls-11" d="M35.711,62.24a1.057,1.057,0,0,0,.046.264V62.24Z"/>
            <path class="cls-11" d="M30.257,57.2c-.664,0-.959.406-.959,1.291v.439c0-.884.3-1.293.959-1.293s.959.409.959,1.293v-.439C31.216,57.6,30.92,57.2,30.257,57.2Z"/>
            <path class="cls-11" d="M32.9,57.2c-.664,0-.959.406-.959,1.291v.439c0-.884.295-1.293.959-1.293s.957.409.957,1.293v-.439C33.859,57.6,33.566,57.2,32.9,57.2Z"/>
            <path class="cls-11" d="M34.162,48.468h-.1v.44h.1s2.75-.074,2.859-2.561a2.166,2.166,0,0,1-.127.235C36.365,48.392,34.162,48.468,34.162,48.468Z"/>
            <path class="cls-11" d="M30.257,68.49c-.664,0-.959.4-.959,1.287v.439c0-.88.3-1.287.959-1.287s.959.407.959,1.287v-.439C31.216,68.894,30.92,68.49,30.257,68.49Z"/>
          </g>
          <g class="cls-12">
            <path class="cls-13" d="M24.972,73.244h.957v-.52H24.011v.52Z"/>
            <path class="cls-13" d="M27.328,52.519h.763V52H26.558v.521Z"/>
            <path class="cls-13" d="M24.972,61.949h.957v-.522H24.011v.522Z"/>
            <path class="cls-13" d="M28.574,61.427H26.656v.522h1.918Z"/>
            <path class="cls-13" d="M27.613,73.244h.961v-.52H26.656v.52Z"/>
            <path class="cls-13" d="M25.211,52.519h.765V52H24.447v.521Z"/>
            <path class="cls-13" d="M35.757,62.943V63.2h-.046c-.026.385,1.13,3.533,3.293,3.556a3.447,3.447,0,0,0,3.162-1.863,4.265,4.265,0,0,0,.078-.676A3.476,3.476,0,0,1,39,66.236C37.111,66.214,35.992,63.81,35.757,62.943Z"/>
            <path class="cls-13" d="M19.685,73.244h.957v-.52H18.724v.52Z"/>
            <path class="cls-13" d="M23.1,52.519h.762V52H22.33v.521Z"/>
            <path class="cls-13" d="M22.328,61.949h.957v-.522H21.369v.522Z"/>
            <path class="cls-13" d="M22.328,73.244h.957v-.52H21.369v.52Z"/>
            <path class="cls-13" d="M17.894,56.447c1.744-.022,2.674-2.563,2.658-2.875h.034v-.52h-.034c.016.313-.914,2.854-2.658,2.875A2.81,2.81,0,0,1,15.271,54.3a3.745,3.745,0,0,0,.115.743A2.787,2.787,0,0,0,17.894,56.447Z"/>
            <path class="cls-13" d="M35.545,73.244H36.5v-.52H34.588v.52Z"/>
            <path class="cls-13" d="M34.1,53.052h-.037v.52H34.1c-.021.312.91,2.853,2.658,2.875a2.774,2.774,0,0,0,2.5-1.406,3.554,3.554,0,0,0,.118-.743,2.808,2.808,0,0,1-2.62,1.629C35.009,55.906,34.078,53.365,34.1,53.052Z"/>
            <path class="cls-13" d="M15.648,66.755c2.16-.023,3.315-3.171,3.291-3.556H18.89v-.25c-.236.863-1.355,3.265-3.242,3.287a3.483,3.483,0,0,1-3.246-2.02,4.8,4.8,0,0,0,.076.676A3.453,3.453,0,0,0,15.648,66.755Z"/>
            <path class="cls-13" d="M29.439,52.519h.766V52H28.67v.521Z"/>
            <path class="cls-13" d="M19.736,48.179c1.4-.015,2.154-2.058,2.139-2.31a6.034,6.034,0,0,1,5.453-4.291,6.03,6.03,0,0,1,5.447,4.291c-.016.252.734,2.3,2.139,2.31a2.224,2.224,0,0,0,1.961-1.049,2.819,2.819,0,0,0,.146-.783,2.26,2.26,0,0,1-2.107,1.313c-1.405-.016-2.155-2.061-2.139-2.313a6.027,6.027,0,0,0-5.447-4.287,6.03,6.03,0,0,0-5.453,4.287c.015.252-.735,2.3-2.139,2.313a2.261,2.261,0,0,1-2.109-1.313,2.714,2.714,0,0,0,.146.783A2.225,2.225,0,0,0,19.736,48.179Z"/>
            <path class="cls-13" d="M32.9,73.244h.957v-.52H31.943v.52Z"/>
            <path class="cls-13" d="M31.548,52.519h.77V52H30.785v.521Z"/>
            <path class="cls-13" d="M33.859,61.427H31.943v.522h1.916Z"/>
            <path class="cls-13" d="M31.216,61.427H29.3v.522h1.918Z"/>
            <path class="cls-13" d="M30.257,73.244h.959v-.52H29.3v.52Z"/>
          </g>
          <polygon class="cls-14" points="46.931 22.654 27.324 22.654 7.718 22.654 1.367 34.482 27.322 34.482 27.328 34.482 53.283 34.482 46.931 22.654"/>
          <polygon class="cls-6" points="7.718 23.644 27.324 23.644 46.931 23.644 52.752 34.482 53.283 34.482 46.931 22.654 27.324 22.654 7.718 22.654 1.367 34.482 1.898 34.482 7.718 23.644"/>
          <polygon class="cls-8" points="27.328 33.461 27.322 33.461 1.916 33.461 1.367 34.482 27.322 34.482 27.328 34.482 53.283 34.482 52.734 33.461 27.328 33.461"/>
        </g>
      </g>
    </g>
  </g>
</svg>
