<svg xmlns="http://www.w3.org/2000/svg" xmlns:xlink="http://www.w3.org/1999/xlink" viewBox="0 0 70.059 52.825">
  <defs>
    <style>
      .cls-1 {
        isolation: isolate;
      }

      .cls-2 {
        fill: url(#linear-gradient);
      }

      .cls-3 {
        fill: url(#linear-gradient-2);
      }

      .cls-4 {
        fill: url(#linear-gradient-3);
      }

      .cls-5 {
        fill: url(#linear-gradient-4);
      }

      .cls-6 {
        fill: url(#linear-gradient-5);
      }

      .cls-7 {
        fill: url(#linear-gradient-6);
      }

      .cls-8 {
        fill: url(#linear-gradient-7);
      }

      .cls-9 {
        fill: url(#linear-gradient-8);
      }

      .cls-10 {
        fill: url(#linear-gradient-9);
      }

      .cls-11 {
        fill: #fadab2;
      }

      .cls-11, .cls-21 {
        mix-blend-mode: multiply;
      }

      .cls-12 {
        fill: url(#linear-gradient-10);
      }

      .cls-13 {
        fill: url(#linear-gradient-11);
      }

      .cls-14 {
        fill: url(#linear-gradient-12);
      }

      .cls-15 {
        fill: url(#linear-gradient-13);
      }

      .cls-16 {
        fill: url(#linear-gradient-14);
      }

      .cls-17 {
        fill: url(#linear-gradient-15);
      }

      .cls-18 {
        fill: url(#linear-gradient-16);
      }

      .cls-19 {
        fill: url(#linear-gradient-17);
      }

      .cls-20 {
        fill: url(#linear-gradient-18);
      }

      .cls-21 {
        fill: #dec19e;
      }

      .cls-22 {
        fill: url(#linear-gradient-19);
      }

      .cls-23 {
        fill: url(#linear-gradient-20);
      }
    </style>
    <linearGradient id="linear-gradient" x1="-261.691" y1="-308.808" x2="-261.691" y2="-357.562" gradientTransform="matrix(-0.233, -0.973, 0.989, -0.237, 295.973, -293.177)" gradientUnits="userSpaceOnUse">
      <stop offset="0" stop-color="#a80909"/>
      <stop offset="0.861" stop-color="#e63b2b"/>
      <stop offset="1" stop-color="#f04431"/>
    </linearGradient>
    <linearGradient id="linear-gradient-2" x1="-258.706" y1="-307.845" x2="-258.706" y2="-357.53" gradientTransform="matrix(-0.233, -0.973, 0.989, -0.237, 295.973, -293.177)" gradientUnits="userSpaceOnUse">
      <stop offset="0" stop-color="#330600"/>
      <stop offset="0.155" stop-color="#420c03"/>
      <stop offset="0.46" stop-color="#581507"/>
      <stop offset="0.748" stop-color="#661a09"/>
      <stop offset="1" stop-color="#6b1c0a"/>
    </linearGradient>
    <linearGradient id="linear-gradient-3" x1="-262.753" y1="-307.251" x2="-262.753" y2="-317.565" gradientTransform="matrix(-0.233, -0.973, 0.989, -0.237, 295.973, -293.177)" gradientUnits="userSpaceOnUse">
      <stop offset="0" stop-color="#d3680d"/>
      <stop offset="0.117" stop-color="#d97b17"/>
      <stop offset="0.366" stop-color="#e49d28"/>
      <stop offset="0.603" stop-color="#ecb535"/>
      <stop offset="0.821" stop-color="#f1c43c"/>
      <stop offset="1" stop-color="#f3c93f"/>
    </linearGradient>
    <linearGradient id="linear-gradient-4" x1="-255.758" y1="-319.942" x2="-255.758" y2="-358.842" gradientTransform="translate(291.305 -292.209) rotate(-103.45)" xlink:href="#linear-gradient-3"/>
    <linearGradient id="linear-gradient-5" x1="-256.881" y1="-334.995" x2="-256.881" y2="-346.186" gradientTransform="translate(291.305 -292.209) rotate(-103.45)" xlink:href="#linear-gradient-3"/>
    <linearGradient id="linear-gradient-6" x1="-256.281" y1="-307.801" x2="-256.281" y2="-359.186" gradientTransform="translate(291.305 -292.209) rotate(-103.45)" gradientUnits="userSpaceOnUse">
      <stop offset="0" stop-color="#51740c"/>
      <stop offset="0.193" stop-color="#5b7f13"/>
      <stop offset="0.533" stop-color="#759d27"/>
      <stop offset="0.977" stop-color="#a0cc46"/>
      <stop offset="1" stop-color="#a2cf48"/>
    </linearGradient>
    <linearGradient id="linear-gradient-7" x1="341.707" y1="-165.537" x2="341.707" y2="-213.852" gradientTransform="matrix(-0.24, 0.988, 1.003, 0.244, 299.782, -249.539)" xlink:href="#linear-gradient-6"/>
    <linearGradient id="linear-gradient-8" x1="-256.027" y1="-333.513" x2="-250.408" y2="-332.17" gradientTransform="translate(291.305 -292.209) rotate(-103.45)" gradientUnits="userSpaceOnUse">
      <stop offset="0" stop-color="#c46d1d"/>
      <stop offset="0.377" stop-color="#c66f1f"/>
      <stop offset="0.578" stop-color="#cc7726"/>
      <stop offset="0.738" stop-color="#d78531"/>
      <stop offset="0.875" stop-color="#e69842"/>
      <stop offset="0.998" stop-color="#fab157"/>
      <stop offset="1" stop-color="#fab157"/>
    </linearGradient>
    <linearGradient id="linear-gradient-9" x1="-253.903" y1="-332.941" x2="-230.953" y2="-327.452" gradientTransform="translate(291.305 -292.209) rotate(-103.45)" gradientUnits="userSpaceOnUse">
      <stop offset="0" stop-color="#c46d1d"/>
      <stop offset="0.049" stop-color="#c77120"/>
      <stop offset="0.682" stop-color="#ec9f48"/>
      <stop offset="1" stop-color="#fab157"/>
    </linearGradient>
    <linearGradient id="linear-gradient-10" x1="-258.14" y1="-335.497" x2="-254.455" y2="-334.589" gradientTransform="matrix(-0.24, -1.002, 0.973, -0.233, 291.747, -290.617)" xlink:href="#linear-gradient-9"/>
    <linearGradient id="linear-gradient-11" x1="47.869" y1="49.675" x2="47.869" y2="0.84" gradientTransform="matrix(1, 0.027, -0.027, 1, -8.922, -1.905)" xlink:href="#linear-gradient"/>
    <linearGradient id="linear-gradient-12" x1="49.76" y1="50.88" x2="49.76" y2="0.788" gradientTransform="matrix(1, 0.027, -0.027, 1, -8.922, -1.905)" xlink:href="#linear-gradient-2"/>
    <linearGradient id="linear-gradient-13" x1="45.979" y1="50.884" x2="45.979" y2="41.036" gradientTransform="matrix(1, 0.027, -0.027, 1, -8.922, -1.905)" xlink:href="#linear-gradient-3"/>
    <linearGradient id="linear-gradient-14" x1="51.986" y1="40.082" x2="51.986" y2="0.746" gradientTransform="matrix(1, 0.027, -0.027, 1, -8.922, -1.905)" xlink:href="#linear-gradient-3"/>
    <linearGradient id="linear-gradient-15" x1="51.43" y1="24.845" x2="51.43" y2="13.545" gradientTransform="matrix(1, 0.027, -0.027, 1, -8.922, -1.905)" xlink:href="#linear-gradient-3"/>
    <linearGradient id="linear-gradient-16" x1="51.565" y1="52.242" x2="51.565" y2="0.342" gradientTransform="matrix(1, 0.027, -0.027, 1, -8.922, -1.905)" xlink:href="#linear-gradient-6"/>
    <linearGradient id="linear-gradient-17" x1="-90.373" y1="13.079" x2="-90.373" y2="-33.876" gradientTransform="matrix(-0.892, -0.488, -0.483, 0.883, -48.492, -10.895)" xlink:href="#linear-gradient-6"/>
    <linearGradient id="linear-gradient-18" x1="52.831" y1="53.382" x2="52.831" y2="0.769" gradientTransform="matrix(1, 0.027, -0.027, 1, -8.922, -1.905)" xlink:href="#linear-gradient-9"/>
    <linearGradient id="linear-gradient-19" x1="64.12" y1="53.386" x2="64.12" y2="0.86" gradientTransform="matrix(1, 0.027, -0.027, 1, -8.922, -1.905)" xlink:href="#linear-gradient-9"/>
    <linearGradient id="linear-gradient-20" x1="39.976" y1="24.823" x2="51.383" y2="24.823" gradientTransform="matrix(1, 0.027, -0.027, 1, -8.922, -1.905)" xlink:href="#linear-gradient-9"/>
  </defs>
  <title>Asset 3</title>
  <g class="cls-1">
    <g id="Layer_2" data-name="Layer 2">
      <g id="Layer_1-2" data-name="Layer 1">
        <g>
          <g>
            <path class="cls-2" d="M1.451,39.132c.379,1.676.272,1.578,1.621,1.639a27.251,27.251,0,0,0,4.09-.149,21.707,21.707,0,0,1,3.451-.224c1.895,0,4.364.388,5.8.25a33.153,33.153,0,0,1,6.006-.178,30.649,30.649,0,0,0,5.658.383,21.726,21.726,0,0,1,5.446.736c2.111.426,8.539-1.133,9.812-.736s3.887.478,5.061.943,4.14.025,4.218-1.078c.194-2.768-1.681-2.172-2.371-1.955s-14.263-.994-14.263-.994S1.164,37.859,1.451,39.132Z"/>
            <path class="cls-3" d="M52.467,35.04c.08,1.17,1.486,4.834-2.131,4.264-2.4-.379-47.658.055-47.658.055s-2.067.23-1.569-4.057Z"/>
            <path class="cls-4" d="M52.588,32.991a3.811,3.811,0,0,1-2.5,4.825c-2.6,1.06-2.744,2.918-4.74.326a18.944,18.944,0,0,0-3.129-3.432Z"/>
            <path class="cls-5" d="M40.094,36.472a14.971,14.971,0,0,1-3.176-.065c-2.326-.2-5.217-.537-7.635.026s-2.9.7-4.861-.7-11.151.015-13.041.24-4.35,1.908-5.838.951-4.9-.266-4.922-1.889,11.012-.043,11.012-.043l19.607-.623,9.4.858Z"/>
            <path class="cls-6" d="M25.078,34.878s.07,1.34-2.666,3.2-3.142,3.041-5.32.506a18.748,18.748,0,0,0-3.432-3.332Z"/>
            <path class="cls-7" d="M52.588,32.991s-.131,2.717-1.649,2.44-3.787-.957-4.921.676-3.174,4.535-5.184,1.4-2.971-2.207-3.916-1.1-3.178,3.8-5.412,1.719-3.008-2.408-4.641-1.131-2.189,2.928-4.109,1-4.916-2.691-6.11-1.365-4.126,1.258-5.832-.611-2.1.269-3.648.386-2.49-.338-4.277-.718L1.1,35.3a1.508,1.508,0,0,1-.77-2.358c1.037-1.71,21.443-1.173,21.443-1.173Z"/>
            <path class="cls-8" d="M52.768,42.749s.283-3.849-2.26-1.605c-1.219,1.072-1.436-.231-2.994-.7-2.157-.661-3.371-1.256-6.067-.047-2.8,1.25-3.386.752-4.285-.3s-2.588,2.836-4.791.281c-1.338-1.557-2.955,1.1-4.66.318-1.957-.884-3.449-2.013-6.162-1.041-2.219.8-3.121,1.149-4.416.19-1.758-1.291-2.42-.291-4.815.363-2.07.565-2.988-.629-4.464-.754s-1.379.651-3.079.992l-1.7.346s-2.148-1.519-.73,2.2c.7,1.846,20.406,1.3,20.406,1.3Z"/>
            <path class="cls-9" d="M52.947,28.6s.217,4.7-.953,5.355-31.152.352-31.152.352L1.916,34.046S.066,34.351,0,31.1Z"/>
            <path class="cls-10" d="M.6,29.845c-.971,1.3-.643,2.346.736,2.334L51.174,31.8c1.377-.008,2.174-1.449,1.773-3.195,0,0-13.14-15.535-18.287-20.02a5.626,5.626,0,0,0-2.324,1.467q-.215.282-.457.615C23.492,16.98.6,29.845.6,29.845Z"/>
            <path class="cls-11" d="M52.947,28.6s-.086-.1-.211-.246a1.881,1.881,0,0,1-1.8,1.689l-49.844.385a1.726,1.726,0,0,1-.768-.156c-.6,1.089-.211,1.918,1.012,1.906L51.174,31.8C52.551,31.788,53.348,30.347,52.947,28.6Z"/>
            <path class="cls-12" d="M2.738,42.013c-1.7,1.918-1.289,3.842,1.143,3.7,0,0,6.281.016,14.137.029.24,0,.476,0,.716,0,5.184.3,8.43-.732,13.5.032.25,0,.492,0,.742,0l15.579.027c5.306.4,4.2-1.668,4.271-3.3Z"/>
            <path class="cls-11" d="M52.83,42.5l-.207,0c-.01,1.178-.521,2.158-4.32,1.869l-15.582-.025H31.98c-5.074-.76-8.32.27-13.5-.027-.239,0-.481,0-.719,0C9.9,44.3,3.625,44.282,3.625,44.282a2.18,2.18,0,0,1-1.838-.57c-.285,1.2.408,2.1,2.094,2,0,0,6.281.016,14.137.029.24,0,.476,0,.716,0,5.184.3,8.43-.732,13.5.032.25,0,.492,0,.742,0l15.579.027C53.865,46.2,52.762,44.132,52.83,42.5Z"/>
          </g>
          <g>
            <path class="cls-13" d="M44.551.4c-1.168.035-1.082-.047-1.43,1.236A39.991,39.991,0,0,0,42.279,5.6a31.679,31.679,0,0,1-.648,3.361c-.434,1.817-1.25,4.115-1.49,5.516a48.457,48.457,0,0,1-1.262,5.806,44.178,44.178,0,0,0-1.545,5.364,30.7,30.7,0,0,1-1.723,5.088c-.763,1.947-1.228,8.423-1.779,9.57s-.627,3.6-1.2,4.644-1.133,3.5-.44,3.788c1.741.726,1.385-.684,1.405-1.385S37.51,33.835,37.51,33.835,45.437.372,44.551.4Z"/>
            <path class="cls-14" d="M35.488,50.21s-2.722-.527-2.263-2.875,10.894-45.8,10.894-45.8S44.447-.495,47.1.821Z"/>
            <path class="cls-15" d="M35.7,50.22s-.879-.176-1.461-2.832-1.25-3.2.879-4.617a15.454,15.454,0,0,0,2.93-2.338Z"/>
            <path class="cls-16" d="M37.393,38.708a22.3,22.3,0,0,1,.773-3.1A38.051,38.051,0,0,0,39.9,28.144c.2-2.473.213-2.971,1.571-4.614s2.547-10.9,2.836-12.8-.229-4.627.728-5.895S46.328.1,47.383.4s-2.5,10.775-2.5,10.775l-4.1,19.289L38.07,39.48Z"/>
            <path class="cls-17" d="M41.865,24.341s-.875-.2-1.447-3.24-1.24-3.672.894-5.3A16.206,16.206,0,0,0,44.248,13.1Z"/>
            <path class="cls-18" d="M36.77,51.609s-1.721-.67-1.2-2.1,1.488-3.51.7-4.945-2.2-4,.286-5.342,2.109-2.469,1.609-3.615-1.723-3.854.135-5.627,2.242-2.463,1.793-4.311-1.389-2.721.3-4.217,2.861-4.277,2.281-5.7.135-4.283,1.732-5.58.309-2.105.586-3.646a19.75,19.75,0,0,1,1.451-4.036L47.1.821s.828-1.638,1.7-.287-4.166,21.194-4.166,21.194Z"/>
            <path class="cls-19" d="M30.824,47.29s2.043,2.137,1.688-.379c-.2-1.422.463-1.328,1.109-2.718.9-1.926,1.543-2.971,1.358-5.793-.19-2.93.257-3.389,1.13-4.036s-1.259-3.043.864-4.634c1.293-.969-.057-3.045.818-4.52,1-1.691,2.049-2.894,2.02-5.685-.028-2.282-.059-3.213.841-4.26,1.217-1.42.717-2.252.821-4.672.091-2.1,1.058-2.732,1.463-4.119s-.116-1.446.037-3.145l.148-1.691S44.566-.11,41.863.493c-1.34.3-5.306,19.246-5.306,19.246Z"/>
            <path class="cls-20" d="M39.518,52.823s-3.081-.716-3.235-1.99S43.211,20.31,43.211,20.31L47.723,1.859S47.951-.007,50.062.573Z"/>
            <path class="cls-21" d="M39.518,52.823s-3.081-.716-3.235-1.99S43.211,20.31,43.211,20.31L47.723,1.859S47.951-.007,50.062.573Z"/>
            <path class="cls-22" d="M50.732,1.4c-.611-1.207-1.363-1.088-1.673.261l-11.194,48.8c-.31,1.348.434,2.412,1.653,2.365a61.229,61.229,0,0,0,13.127-2.265c.175-.047.353-.1.527-.156,3.463.013,6.5-3.274,9.037-3.821.17-.1.34-.2.51-.3a23.651,23.651,0,0,0,7.34-6.711s-.25-.492-.692-1.369c-.092-.173-.187-.367-.289-.57-3.049-8.893-8.8-15.834-12.23-24.152-.1-.2-.2-.407-.3-.608C53.289,6.45,50.732,1.4,50.732,1.4Z"/>
            <path class="cls-11" d="M62.719,44.874c-.17.1-.34.207-.51.3-2.539.547-5.574,3.834-9.037,3.82-.174.055-.352.106-.527.156a61.2,61.2,0,0,1-13.127,2.266,1.551,1.551,0,0,1-1.6-1.18l-.051.217c-.31,1.348.434,2.412,1.653,2.365a61.229,61.229,0,0,0,13.127-2.265c.175-.047.353-.1.527-.156,3.463.013,6.5-3.274,9.037-3.821.17-.1.34-.2.51-.3a23.651,23.651,0,0,0,7.34-6.711s-.157-.308-.432-.855A23.99,23.99,0,0,1,62.719,44.874Z"/>
            <path class="cls-23" d="M42.4,1.091a1.475,1.475,0,0,0-2.574.389S38.414,7.62,36.652,15.3c-.054.234-.105.471-.162.7-1.342,5.008-1.42,8.387-3.027,13.2-.055.245-.113.483-.166.725L29.8,45.155c-.229,1,.885,2.293,1.892,2.682Z"/>
          </g>
        </g>
      </g>
    </g>
  </g>
</svg>
