<svg xmlns="http://www.w3.org/2000/svg" xmlns:xlink="http://www.w3.org/1999/xlink" viewBox="0 0 57.28 68.215">
  <defs>
    <style>
      .cls-1 {
        isolation: isolate;
      }

      .cls-2 {
        fill: #a85d32;
      }

      .cls-3 {
        fill: #a2e0be;
      }

      .cls-4 {
        fill: url(#linear-gradient);
      }

      .cls-5 {
        fill: #fadab2;
      }

      .cls-12, .cls-17, .cls-5, .cls-7, .cls-9 {
        mix-blend-mode: multiply;
      }

      .cls-6 {
        fill: url(#linear-gradient-2);
      }

      .cls-7 {
        fill: #d6675c;
      }

      .cls-8 {
        fill: url(#linear-gradient-3);
      }

      .cls-9 {
        fill: #e2ebd1;
      }

      .cls-10 {
        fill: url(#linear-gradient-4);
      }

      .cls-11 {
        fill: url(#linear-gradient-5);
      }

      .cls-12 {
        fill: #ee4230;
      }

      .cls-13 {
        fill: url(#linear-gradient-6);
      }

      .cls-14 {
        fill: url(#linear-gradient-7);
      }

      .cls-15 {
        opacity: 0.5;
        mix-blend-mode: screen;
      }

      .cls-16 {
        fill: #fff;
      }

      .cls-18 {
        fill: #daeded;
      }
    </style>
    <linearGradient id="linear-gradient" x1="29.018" y1="30.289" x2="29.018" y2="1.562" gradientUnits="userSpaceOnUse">
      <stop offset="0" stop-color="#d3680d"/>
      <stop offset="0.117" stop-color="#d97b17"/>
      <stop offset="0.366" stop-color="#e49d28"/>
      <stop offset="0.603" stop-color="#ecb535"/>
      <stop offset="0.821" stop-color="#f1c43c"/>
      <stop offset="1" stop-color="#f3c93f"/>
    </linearGradient>
    <linearGradient id="linear-gradient-2" x1="28.799" y1="20.201" x2="28.799" gradientUnits="userSpaceOnUse">
      <stop offset="0.2" stop-color="#330600"/>
      <stop offset="0.418" stop-color="#3d0a02"/>
      <stop offset="0.791" stop-color="#591507"/>
      <stop offset="1" stop-color="#6b1c0a"/>
    </linearGradient>
    <linearGradient id="linear-gradient-3" x1="14.609" y1="33.966" x2="14.609" y2="11.595" gradientUnits="userSpaceOnUse">
      <stop offset="0" stop-color="#51740c"/>
      <stop offset="0.193" stop-color="#5b7f13"/>
      <stop offset="0.533" stop-color="#759d27"/>
      <stop offset="0.977" stop-color="#a0cc46"/>
      <stop offset="1" stop-color="#a2cf48"/>
    </linearGradient>
    <linearGradient id="linear-gradient-4" x1="14.344" y1="23.646" x2="14.344" y2="8.667" gradientUnits="userSpaceOnUse">
      <stop offset="0" stop-color="#330600"/>
      <stop offset="0.155" stop-color="#420c03"/>
      <stop offset="0.46" stop-color="#581507"/>
      <stop offset="0.748" stop-color="#661a09"/>
      <stop offset="1" stop-color="#6b1c0a"/>
    </linearGradient>
    <linearGradient id="linear-gradient-5" x1="44.28" y1="32.127" x2="44.28" y2="8.948" gradientUnits="userSpaceOnUse">
      <stop offset="0" stop-color="#a80909"/>
      <stop offset="0.861" stop-color="#e63b2b"/>
      <stop offset="1" stop-color="#f04431"/>
    </linearGradient>
    <linearGradient id="linear-gradient-6" x1="44.469" y1="23.99" x2="44.469" y2="7.688" xlink:href="#linear-gradient-4"/>
    <linearGradient id="linear-gradient-7" x1="28.486" y1="68.215" x2="28.486" y2="26.716" gradientUnits="userSpaceOnUse">
      <stop offset="0.048" stop-color="#8adede"/>
      <stop offset="0.659" stop-color="#b6f0f0"/>
      <stop offset="1" stop-color="#c9f8f8"/>
    </linearGradient>
  </defs>
  <title>Asset 6</title>
  <g class="cls-1">
    <g id="Layer_2" data-name="Layer 2">
      <g id="Layer_1-2" data-name="Layer 1">
        <g>
          <path class="cls-2" d="M26.123,12.615c3.78,4.758,2.729,8.453-1.034,5.514s-7.6-7.391-10.2-3.426-3.951,4.541-5.009,2.416-4.534-2.08-5.32,2.494S.175,24.718.2,21.972s1.524-4.607,2.994-7.541,6.322-5.3,8.989-5.57S22.4,7.92,26.123,12.615Z"/>
          <path class="cls-3" d="M56.972,26.716s-29.09-7.437-56.972,0C0,26.716,31.612,36.941,56.972,26.716Z"/>
          <path class="cls-4" d="M15.007,19.619A14.49,14.49,0,1,0,25.356,2.05,14.42,14.42,0,0,0,15.007,19.619Z"/>
          <path class="cls-5" d="M32.675,26.582A14.425,14.425,0,0,1,15.007,16.4a14.17,14.17,0,0,1-.365-2.035,14.143,14.143,0,0,0,.365,5.256,14.49,14.49,0,0,0,28.385-5.35A14.479,14.479,0,0,1,32.675,26.582Z"/>
          <path class="cls-6" d="M38.875,8.025s-4.06-.748-5.586-2.436-1.083-2.408-4.917-1.445-4.554,2.924-3.592,6.879,1.64,8.565-.385,9.149S23.24,12.257,22.614,7.693s-5.3-.865-5.3,3.33-3.07,5.645-3.221,2.031,1.775-8.3,7.556-11.494S38-.08,42.229,7.693,38.875,8.025,38.875,8.025Z"/>
          <path class="cls-7" d="M42.229,7.693a13.559,13.559,0,0,0-2.146-2.908A12.685,12.685,0,0,1,41.145,6.4c3.984,7.322-3.161.311-3.161.311s-3.826-.706-5.263-2.3S31.7,2.146,28.087,3.05,23.256,6.375,24.164,10.1s2.009,7.3.175,8.061C23.5,18.509,23.249,10.7,22.66,6.4s-5.531-.254-5.531,3.7-2.354,4.756-2.5,1.352A9.614,9.614,0,0,1,15.017,8.4a10.552,10.552,0,0,0-.922,4.654c.151,3.614,3.221,2.168,3.221-2.031s4.672-7.894,5.3-3.33S22.372,20.759,24.4,20.172s1.349-5.19.385-9.149-.241-5.918,3.592-6.879,3.394-.242,4.917,1.445,5.586,2.436,5.586,2.436S46.456,15.463,42.229,7.693Z"/>
          <path class="cls-2" d="M18.838,10.685s-1.163,2.3,2.022,7.67-4.47,8.766-3.939-.2-.185-7.492-1.446-9.141S18.838,10.685,18.838,10.685Z"/>
          <path class="cls-8" d="M1.336,26.281c1.547,5.865,8.746,9.051,16.076,7.121s12.018-8.256,10.47-14.123-8.744-9.053-16.074-7.119S-.21,20.418,1.336,26.281Z"/>
          <path class="cls-9" d="M17.412,31.781c-7.33,1.93-14.529-1.258-16.076-7.123A8.91,8.91,0,0,1,1.09,23.15a8.951,8.951,0,0,0,.246,3.131c1.547,5.865,8.746,9.051,16.076,7.121C24.117,31.63,28.593,26.2,28.128,20.791,27.677,25.625,23.445,30.185,17.412,31.781Z"/>
          <path class="cls-10" d="M26.123,12.615c3.78,4.758,2.729,8.453-1.034,5.514s-7.6-7.391-10.2-3.426-3.951,4.541-5.009,2.416-4.534-2.08-5.32,2.494S.175,24.718.2,21.972s1.524-4.607,2.994-7.541,6.322-5.3,8.989-5.57S22.4,7.92,26.123,12.615Z"/>
          <path class="cls-7" d="M28.17,16.148C27.9,17.277,26.7,17.455,24.833,16c-3.766-2.94-7.6-7.391-10.2-3.424s-3.95,4.533-5.01,2.412S5.087,12.9,4.3,17.48C3.664,21.2,1.174,22.242.27,21.035a7.733,7.733,0,0,0-.07.937c-.025,2.746,3.574,2.217,4.358-2.359s4.262-4.619,5.32-2.494,2.4,1.549,5.009-2.416,6.438.488,10.2,3.426C27.828,20.267,29.117,18.884,28.17,16.148Z"/>
          <path class="cls-11" d="M56.482,23.521c-1.764,6.184-8.651,9.858-15.389,8.213a12.332,12.332,0,0,1-8.626-7.195,10.647,10.647,0,0,1-.389-6.983c1.76-6.187,8.652-9.861,15.39-8.215S58.242,17.338,56.482,23.521Z"/>
          <path class="cls-12" d="M56.482,22.082c-1.764,6.181-8.651,9.859-15.389,8.215a12.338,12.338,0,0,1-8.626-7.2A10.762,10.762,0,0,1,31.7,19.81a10.687,10.687,0,0,0,.769,4.729,12.332,12.332,0,0,0,8.626,7.2c6.738,1.645,13.625-2.029,15.389-8.213a10.667,10.667,0,0,0,.38-3.637A10.772,10.772,0,0,1,56.482,22.082Z"/>
          <path class="cls-13" d="M35.7,14.16s3.537-.6,4.864-1.961.945-1.944,4.282-1.166,3.968,2.357,3.127,5.553-1.427,6.906.337,7.38,1.005-6.386,1.551-10.074,4.615-.7,4.615,2.694,2.67,4.548,2.8,1.638S55.727,11.529,50.7,8.947s-14.24-1.322-17.921,4.945S35.7,14.16,35.7,14.16Z"/>
          <path class="cls-7" d="M56.875,15.482c.007.19.009.379,0,.566-.122,2.743-1.7,2.977-1.7-.209s-5.395-6.89-5.782-3.828c-.443,3.481,0,10.2-.874,10.184-1.719-.041-.594-3.979.194-6.984s-.752-4.793-3.893-5.526S41.527,9.724,40.277,11s-3.721,1.22-3.721,1.22-4.79,4.356-3.614,1.422c-.051.086-.115.16-.168.248-3.68,6.272,2.921.268,2.921.268s3.537-.6,4.864-1.961.945-1.944,4.282-1.166,3.968,2.357,3.127,5.553-1.427,6.906.337,7.38,1.005-6.386,1.551-10.074,4.615-.7,4.615,2.694,2.67,4.548,2.8,1.638A7.665,7.665,0,0,0,56.875,15.482Z"/>
          <path class="cls-14" d="M56.972,26.716s-2.351,1.7-28.487,1.711C5.719,28.441,0,26.716,0,26.716,3.042,44.343,24.281,44.127,24.9,48.734c.711,5.32,2.075,10.723-1.818,11.672-5.519,1.342-18.015,4.217-8.334,6.119,10.163,2,13.741,1.67,13.741,1.67s3.579.328,13.742-1.67c9.682-1.9-3.05-4.207-8.333-6.119-2.9-1.051-1.813-6.317-1.818-11.672C32.072,44.127,53.932,44.343,56.972,26.716Z"/>
          <g class="cls-15">
            <path class="cls-16" d="M28.485,29.408c22.226-.014,27.248-1.238,28.256-1.61.081-.355.168-.709.231-1.082,0,0-2.351,1.7-28.487,1.711C5.719,28.441,0,26.716,0,26.716c.062.356.145.7.222,1.038C1.447,28.048,8.188,29.422,28.485,29.408Z"/>
            <path class="cls-16" d="M33.894,60.406c-2.245-.813-1.814-4.4-1.83-9.018-.014,4.891-.574,9.127,1.83,10,3.606,1.3,9.527,2.791,11.216,4.211C47.444,63.9,38.342,62.015,33.894,60.406Z"/>
            <path class="cls-16" d="M25.43,53.517c-.061,3.4-.068,6.332-2.352,6.889-4.6,1.115-13.369,3.3-11.292,5.1,1.575-1.553,7.506-3.2,11.292-4.116C25.581,60.775,25.49,57.32,25.43,53.517Z"/>
          </g>
          <g class="cls-17">
            <path class="cls-18" d="M45.11,64.617a8.268,8.268,0,0,1-2.883.931c-10.163,2-13.742,1.668-13.742,1.668s-3.578.329-13.741-1.668a7.1,7.1,0,0,1-2.96-1.027c-.72.715-.08,1.408,2.96,2,10.163,2,13.741,1.67,13.741,1.67s3.579.328,13.742-1.67C45.3,65.923,45.894,65.275,45.11,64.617Z"/>
            <path class="cls-18" d="M24.9,48.734a35.439,35.439,0,0,1,.534,5.018,34.561,34.561,0,0,0-.534-6C24.292,43.24,3.964,43.341.222,26.773.072,26.738,0,26.716,0,26.716,3.042,44.343,24.281,44.127,24.9,48.734Z"/>
            <path class="cls-18" d="M32.076,47.754c0,1.205-.016,1.314-.012,2.654,0-1,.012-.764.012-1.674,0-4.607,21.856-4.391,24.9-22.018a1.138,1.138,0,0,1-.231.1C52.944,43.343,32.072,43.242,32.076,47.754Z"/>
          </g>
        </g>
      </g>
    </g>
  </g>
</svg>
