<svg xmlns="http://www.w3.org/2000/svg" xmlns:xlink="http://www.w3.org/1999/xlink" viewBox="0 0 66.677 60.447">
  <defs>
    <style>
      .cls-1 {
        isolation: isolate;
      }

      .cls-2 {
        fill: url(#linear-gradient);
      }

      .cls-19, .cls-3 {
        fill: #87552e;
      }

      .cls-10, .cls-12, .cls-19, .cls-3, .cls-7 {
        mix-blend-mode: screen;
      }

      .cls-15, .cls-4 {
        fill: #fadab2;
      }

      .cls-14, .cls-4, .cls-6, .cls-9 {
        mix-blend-mode: multiply;
      }

      .cls-5 {
        fill: url(#linear-gradient-2);
      }

      .cls-6 {
        fill: #e2ebd1;
      }

      .cls-7 {
        fill: #2e4206;
      }

      .cls-8 {
        fill: url(#linear-gradient-3);
      }

      .cls-9 {
        fill: #ee4230;
      }

      .cls-10 {
        fill: #8a0707;
      }

      .cls-11 {
        fill: url(#linear-gradient-4);
      }

      .cls-13 {
        fill: #873a00;
      }

      .cls-16 {
        fill: url(#linear-gradient-5);
      }

      .cls-17 {
        fill: url(#linear-gradient-6);
      }

      .cls-18 {
        fill: url(#linear-gradient-7);
      }

      .cls-19 {
        opacity: 0.5;
      }
    </style>
    <linearGradient id="linear-gradient" x1="22.292" y1="39.043" x2="22.292" y2="7.335" gradientTransform="translate(0.055 11.752) rotate(-17.014)" gradientUnits="userSpaceOnUse">
      <stop offset="0" stop-color="#c46d1d"/>
      <stop offset="0.049" stop-color="#c77120"/>
      <stop offset="0.682" stop-color="#ec9f48"/>
      <stop offset="1" stop-color="#fab157"/>
    </linearGradient>
    <linearGradient id="linear-gradient-2" x1="22.008" y1="33.054" x2="22.008" y2="5.647" gradientTransform="translate(0.055 11.752) rotate(-17.014)" gradientUnits="userSpaceOnUse">
      <stop offset="0" stop-color="#51740c"/>
      <stop offset="0.193" stop-color="#5b7f13"/>
      <stop offset="0.533" stop-color="#759d27"/>
      <stop offset="0.977" stop-color="#a0cc46"/>
      <stop offset="1" stop-color="#a2cf48"/>
    </linearGradient>
    <linearGradient id="linear-gradient-3" x1="25.531" y1="45.17" x2="25.531" y2="5.272" gradientTransform="translate(0.055 11.752) rotate(-17.014)" gradientUnits="userSpaceOnUse">
      <stop offset="0" stop-color="#a80909"/>
      <stop offset="0.861" stop-color="#e63b2b"/>
      <stop offset="1" stop-color="#f04431"/>
    </linearGradient>
    <linearGradient id="linear-gradient-4" x1="25.021" y1="39.81" x2="25.021" y2="6.568" gradientTransform="translate(0.055 11.752) rotate(-17.014)" gradientUnits="userSpaceOnUse">
      <stop offset="0" stop-color="#d3680d"/>
      <stop offset="0.117" stop-color="#d97b17"/>
      <stop offset="0.366" stop-color="#e49d28"/>
      <stop offset="0.603" stop-color="#ecb535"/>
      <stop offset="0.821" stop-color="#f1c43c"/>
      <stop offset="1" stop-color="#f3c93f"/>
    </linearGradient>
    <linearGradient id="linear-gradient-5" x1="-6.761" y1="52.527" x2="-21.527" y2="32.926" gradientTransform="matrix(-0.588, 0.809, 0.809, 0.588, 4.757, 9.293)" xlink:href="#linear-gradient-2"/>
    <linearGradient id="linear-gradient-6" x1="16.814" y1="44.236" x2="16.814" y2="27.135" xlink:href="#linear-gradient-2"/>
    <linearGradient id="linear-gradient-7" x1="28.828" y1="53.201" x2="28.828" y2="15.594" xlink:href="#linear-gradient"/>
  </defs>
  <title>Asset 2</title>
  <g class="cls-1">
    <g id="Layer_2" data-name="Layer 2">
      <g id="Layer_1-2" data-name="Layer 1">
        <g>
          <path class="cls-2" d="M2.633,45.628c-4.076-4.54,1.518-12.4,14.164-17.321C29.2,23.482,35.649,13.235,41.088,8.561S50.553,3.708,53.37,7.534s3.25,18.693-15.715,30.419C21.1,48.188,7.422,50.965,2.633,45.628Z"/>
          <path class="cls-3" d="M17.024,29.041C29.424,24.216,35.873,13.97,41.313,9.3s9.465-4.853,12.281-1.028a6.225,6.225,0,0,1,.793,1.579A6.944,6.944,0,0,0,53.37,7.534c-2.817-3.826-6.846-3.646-12.282,1.027S29.2,23.482,16.8,28.307C5.481,32.71-.162,39.459,1.688,44.085.664,39.5,6.291,33.216,17.024,29.041Z"/>
          <path class="cls-4" d="M37.655,37.953C56.62,26.227,56.186,11.357,53.37,7.534a6.03,6.03,0,0,0-3.836-2.607c-1.614,2.206-3.493,5.135-5.85,8.98C36.223,26.071,9.891,39.353,4.086,41.874A7.481,7.481,0,0,0,1.528,43.66a5.038,5.038,0,0,0,1.105,1.968C7.422,50.965,21.1,48.188,37.655,37.953Z"/>
          <path class="cls-5" d="M1,45.373S-.4,41.3,3.053,40.463,7.6,41.51,8,40.031s1.238-3.544,4.064-3.578,4.5-.044,5.137-1.571.8-2.76,3.386-3.036,2.29-2.349,4.133-4.514,1.631-2.3,4.9-1.921,3.355-3.246,5.125-4.019,4.707-.129,5.006-2.546.062-5.156,2.025-5.957,3.746-1.192,3.877-3.065-.867-2.887.611-3.895,2.317-.962,2.9-2.334,2.459-2.053,3.328-1.212-.352,6.275-1.7,7.317S41.561,21.351,38.3,23.177,10.69,40.5,10.188,41.485,1.268,46.949,1,45.373Z"/>
          <path class="cls-6" d="M49.534,4.927c-1.614,2.206-3.493,5.135-5.85,8.98a29.573,29.573,0,0,1-3.939,4.932l0,.007a2.14,2.14,0,0,1-1.92,1.879C32,26.125,23.914,31.308,16.991,35.241a2.541,2.541,0,0,1-1.854,1.04c-2.7,1.491-5.152,2.766-7.142,3.75H8c-.168.64-.487.643-1.053.516-1.192.577-2.17,1.03-2.856,1.327A7.481,7.481,0,0,0,1.528,43.66a5.02,5.02,0,0,0,1.043,1.88c2.529-.681,7.244-3.326,7.617-4.055C10.69,40.5,35.026,25,38.3,23.177S49.436,10.743,50.786,9.7a7.005,7.005,0,0,0,1.572-3.3A5.438,5.438,0,0,0,49.534,4.927Z"/>
          <path class="cls-7" d="M1.008,45.392c-.242-.932-.771-3.92,2.139-4.624,3.457-.835,4.551,1.047,4.941-.432s1.237-3.544,4.065-3.577,4.5-.045,5.136-1.573.8-2.758,3.383-3.035,2.293-2.348,4.139-4.514,1.629-2.3,4.895-1.921,3.355-3.245,5.125-4.018,4.708-.13,5-2.547S39.9,14,41.86,13.2,45.608,12,45.737,10.13s-.867-2.887.615-3.9,2.312-.963,2.9-2.335,2.461-2.053,3.331-1.212a.685.685,0,0,1,.138.209.97.97,0,0,0-.232-.514c-.869-.841-2.746-.159-3.328,1.212s-1.416,1.326-2.9,2.334-.482,2.022-.611,3.895-1.916,2.264-3.877,3.065-1.729,3.539-2.025,5.957-3.235,1.773-5.006,2.546-1.862,4.4-5.125,4.019-3.049-.245-4.9,1.921-1.552,4.237-4.133,4.514-2.75,1.509-3.386,3.036-2.309,1.538-5.137,1.571S8.387,38.552,8,40.031s-1.485-.4-4.942.432S1,45.373,1,45.373,1,45.385,1.008,45.392Z"/>
          <path class="cls-8" d="M11.274,55.526c-2.641,1.155-8.561.212-10.309-2.865A6.965,6.965,0,0,1,4.313,42.608c5.8-2.521,32.133-15.8,39.594-27.967C51.135,2.853,53.926-.484,58.1.055s7.6,7.116,3.822,12.485S50.909,38.181,11.274,55.526Z"/>
          <path class="cls-9" d="M61.625,11.562C57.85,16.93,50.61,37.2,10.975,54.547,8.332,55.7,2.413,54.76.668,51.682A7.541,7.541,0,0,1,.2,50.669a7.622,7.622,0,0,0,.765,1.992c1.748,3.077,7.668,4.02,10.309,2.865C50.909,38.181,58.151,17.908,61.926,12.54A8.551,8.551,0,0,0,63,4.512,8.553,8.553,0,0,1,61.625,11.562Z"/>
          <path class="cls-10" d="M4.536,43.342c5.8-2.521,32.136-15.8,39.6-27.968C51.36,3.588,54.151.25,58.327.788c2.16.279,4.107,2.177,4.972,4.681C62.59,2.605,60.469.36,58.1.055c-4.178-.539-6.969,2.8-14.2,14.586C36.446,26.805,10.116,40.087,4.313,42.608A6.872,6.872,0,0,0,.452,51.523,6.815,6.815,0,0,1,4.536,43.342Z"/>
          <path class="cls-11" d="M4.76,51.943a.763.763,0,0,1-.775-.2,4.768,4.768,0,0,1-1.012-4.6,5.985,5.985,0,0,1,3.979-4.189,16.161,16.161,0,0,1,3.408-.549c1.84-.154,2.75-.274,3.326-1.386,1.018-1.966,2.775-4.565,6.3-4.439,3.187.115,6.371-.032,7.234-3.125,1.268-4.544,4.666-6.291,7.479-6.006,1.777.184,4.845-.2,5.453-4.773.635-4.764,2.316-5.173,4.619-5.229.191-.005.387-.009.586-.019a3.844,3.844,0,0,0,2.73-1.482,3.327,3.327,0,0,0,.575-2.829,5.178,5.178,0,0,1,.906-4.358,5.089,5.089,0,0,1,3.767-2c2.127-.091,3.434-1.135,3.752-2.071a1.871,1.871,0,0,0-.769-2.051A.768.768,0,1,1,57.3,1.466a3.335,3.335,0,0,1,1.236,3.723C57.948,6.946,55.883,8.2,53.4,8.3a3.592,3.592,0,0,0-3.24,4.491,4.83,4.83,0,0,1-.852,4.091,5.354,5.354,0,0,1-3.869,2.081c-.217.012-.426.017-.629.022-1.693.04-2.625.064-3.135,3.9-.832,6.249-5.67,6.248-7.135,6.1-2-.208-4.744.949-5.841,4.891-1.26,4.517-6.147,4.34-8.77,4.247-2.074-.073-3.529,1.005-4.879,3.608-.99,1.912-2.724,2.06-4.564,2.21a15.034,15.034,0,0,0-3.1.493,4.358,4.358,0,0,0-2.931,3.107,3.274,3.274,0,0,0,.63,3.138.767.767,0,0,1-.013,1.085A.75.75,0,0,1,4.76,51.943Z"/>
          <g class="cls-12">
            <path class="cls-13" d="M56.309,1.859a.769.769,0,0,1,1.082-.1,3.928,3.928,0,0,1,1.191,1.63A3.785,3.785,0,0,0,57.3,1.466a.767.767,0,0,0-1.168.952A.766.766,0,0,1,56.309,1.859Z"/>
            <path class="cls-13" d="M3.065,47.442a5.978,5.978,0,0,1,3.976-4.188,16.125,16.125,0,0,1,3.409-.549c1.839-.155,2.75-.275,3.326-1.387,1.019-1.966,2.775-4.564,6.3-4.438,3.189.113,6.371-.033,7.234-3.126,1.266-4.544,4.664-6.291,7.477-6,1.779.183,4.847-.2,5.455-4.774.634-4.765,2.316-5.172,4.619-5.229.193,0,.386-.009.586-.019a3.838,3.838,0,0,0,2.73-1.48,3.326,3.326,0,0,0,.574-2.831,5.18,5.18,0,0,1,.909-4.357,5.076,5.076,0,0,1,3.765-2c2.127-.09,3.434-1.135,3.752-2.069a1.549,1.549,0,0,0-.088-1.225,1.488,1.488,0,0,1,0,.929c-.318.936-1.625,1.98-3.752,2.071a5.089,5.089,0,0,0-3.767,2,5.178,5.178,0,0,0-.906,4.358,3.327,3.327,0,0,1-.575,2.829,3.844,3.844,0,0,1-2.73,1.482c-.2.01-.395.014-.586.019-2.3.056-3.984.465-4.619,5.229-.608,4.575-3.676,4.957-5.453,4.773-2.813-.285-6.211,1.462-7.479,6.006-.863,3.093-4.047,3.24-7.234,3.125-3.526-.126-5.283,2.473-6.3,4.439-.576,1.112-1.486,1.232-3.326,1.386a16.161,16.161,0,0,0-3.408.549,5.985,5.985,0,0,0-3.979,4.189,5.276,5.276,0,0,0,.01,2.763A5.337,5.337,0,0,1,3.065,47.442Z"/>
            <path class="cls-13" d="M4.469,49.545a2.774,2.774,0,0,0,.709,1.426.708.708,0,0,1,.113.175.746.746,0,0,0-.205-.47A2.7,2.7,0,0,1,4.469,49.545Z"/>
          </g>
          <g class="cls-14">
            <path class="cls-15" d="M56.993,3.463a2.286,2.286,0,0,0-.8-1.246.819.819,0,0,1-.135-.166.752.752,0,0,0,.266.594A2.61,2.61,0,0,1,56.993,3.463Z"/>
            <path class="cls-15" d="M58.411,4.762c-.6,1.756-2.659,3.007-5.139,3.11a3.593,3.593,0,0,0-3.242,4.492,4.829,4.829,0,0,1-.852,4.091,5.358,5.358,0,0,1-3.871,2.081c-.213.013-.424.018-.629.022-1.693.042-2.625.064-3.135,3.9-.83,6.25-5.668,6.249-7.132,6.1-2.008-.209-4.745.948-5.842,4.891-1.26,4.517-6.147,4.34-8.768,4.245C17.727,37.619,16.27,38.7,14.92,41.3c-.99,1.912-2.726,2.06-4.564,2.211a15,15,0,0,0-3.1.493A4.361,4.361,0,0,0,4.325,47.11a3.66,3.66,0,0,0,.054,2.121,3.891,3.891,0,0,1,.077-1.693,4.358,4.358,0,0,1,2.931-3.107,15.034,15.034,0,0,1,3.1-.493c1.84-.15,3.574-.3,4.564-2.21,1.35-2.6,2.805-3.681,4.879-3.608,2.623.093,7.51.27,8.77-4.247,1.1-3.942,3.836-5.1,5.841-4.891,1.465.148,6.3.149,7.135-6.1.51-3.832,1.442-3.856,3.135-3.9.2,0,.412-.01.629-.022a5.354,5.354,0,0,0,3.869-2.081,4.83,4.83,0,0,0,.852-4.091A3.592,3.592,0,0,1,53.4,8.3c2.482-.105,4.547-1.355,5.138-3.112a3.015,3.015,0,0,0-.076-2.148A3.027,3.027,0,0,1,58.411,4.762Z"/>
            <path class="cls-15" d="M4.94,51.334a.783.783,0,0,1-.311.182.762.762,0,0,1-.775-.2,4.212,4.212,0,0,1-.967-1.726,4.274,4.274,0,0,0,1.1,2.154.763.763,0,0,0,.775.2.75.75,0,0,0,.313-.182.758.758,0,0,0,.1-.955A.772.772,0,0,1,4.94,51.334Z"/>
          </g>
          <path class="cls-16" d="M64.643,12.79S63,4.512,56.321,7.549c-4.537,2.06-3.092,8.052-7.4,7.43s-5.265,1.956-5.863,6.317c-.35,2.555-1.4,3.3-3.949,3.329s-2.082,7-4.412,7.571-2.69,5.568-2.094,7.473,9.189-3.435,13.869-8.791S64.643,12.79,64.643,12.79Z"/>
          <path class="cls-6" d="M64.643,12.79s-.055-.273-.178-.689a6.809,6.809,0,0,0-.451-.669c-3.293-4.209-5.531-2.923-11.49,2.513-4.551,4.15-10.436,13.1-19.315,19.573a9.645,9.645,0,0,0-.6,6.151c.594,1.9,9.189-3.435,13.869-8.791S64.643,12.79,64.643,12.79Z"/>
          <path class="cls-7" d="M34.87,32.75c2.33-.57,1.861-7.545,4.41-7.569s3.6-.775,3.951-3.33c.6-4.36,1.558-6.939,5.863-6.316s2.86-5.37,7.4-7.43c5.2-2.365,7.341,2.118,8.039,4.224-.463-1.683-2.479-7.384-8.209-4.78-4.537,2.06-3.092,8.052-7.4,7.43s-5.265,1.956-5.863,6.317c-.35,2.555-1.4,3.3-3.949,3.329s-2.082,7-4.412,7.571-2.69,5.568-2.094,7.473c.01.033.041.045.055.075C32.248,37.592,32.715,33.279,34.87,32.75Z"/>
          <path class="cls-17" d="M8.975,55.282s-3.7-5.08-.406-8.818c2.986-3.385,6.095-1.893,7.83-5.882,1.9-4.362,3.578-4.922,7.75-3.524s4.5-.634,5.357-3.035S31.815,32.381,34.7,32.2s3.636-.661,4.935-2.678,3.6-3.251,5.207-2.07S39.971,41.891,33.383,44.575,8.975,55.282,8.975,55.282Z"/>
          <path class="cls-6" d="M44.842,27.448c-1.609-1.181-3.908.053-5.207,2.07-1.256,1.95-2.017,2.455-4.668,2.655a44.951,44.951,0,0,1-6.529,4.372,2.2,2.2,0,0,1-1.854.965c-.822.392-1.664.761-2.529,1.1-14.2,5.505-17.6,11.755-14.848,16.57,2.094-.94,18.026-8.1,24.176-10.6C39.971,41.891,46.45,28.63,44.842,27.448Z"/>
          <path class="cls-7" d="M8.709,46.923c2.987-3.386,6.1-1.894,7.83-5.882,1.9-4.363,3.579-4.922,7.75-3.524s4.5-.634,5.356-3.036,2.311-1.642,5.2-1.826,3.635-.661,4.934-2.678,3.6-3.252,5.207-2.07c.037.028.051.095.078.137a.817.817,0,0,0-.219-.6c-1.609-1.181-3.908.053-5.207,2.07S37.584,32.01,34.7,32.2s-4.34-.575-5.194,1.827-1.183,4.433-5.357,3.035S18.3,36.22,16.4,40.582c-1.735,3.989-4.844,2.5-7.83,5.882a6,6,0,0,0-.932,6.112A5.83,5.83,0,0,1,8.709,46.923Z"/>
          <path class="cls-18" d="M10.733,57.7C6,52.724,8.334,45.591,24.3,39.4,38.573,33.868,46.807,20.175,52.766,14.74s8.2-6.722,11.49-2.513S70.815,34.1,49.87,47.912C31.59,59.968,16.3,63.543,10.733,57.7Z"/>
          <path class="cls-19" d="M24.713,40.747C38.991,35.212,47.221,21.52,53.182,16.085s8.2-6.722,11.492-2.514a9.633,9.633,0,0,1,1.346,2.61,11.222,11.222,0,0,0-1.764-3.954c-3.293-4.209-5.529-2.922-11.49,2.513S38.573,33.868,24.3,39.4C10.8,44.635,7.073,50.538,9.1,55.245,8.268,50.788,12.475,45.491,24.713,40.747Z"/>
          <path class="cls-4" d="M49.42,46.444C31.141,58.5,15.848,62.076,10.286,56.229A8.338,8.338,0,0,1,8.657,53.8a7.474,7.474,0,0,0,2.076,3.9C16.3,63.543,31.59,59.968,49.87,47.912,67.815,36.076,67.989,21.427,65.6,14.822,67.428,21.955,66.133,35.42,49.42,46.444Z"/>
        </g>
      </g>
    </g>
  </g>
</svg>
