<svg xmlns="http://www.w3.org/2000/svg" xmlns:xlink="http://www.w3.org/1999/xlink" viewBox="0 0 53.864 64.768">
  <defs>
    <style>
      .cls-1 {
        isolation: isolate;
      }

      .cls-2 {
        fill: url(#linear-gradient);
      }

      .cls-3 {
        fill: url(#linear-gradient-2);
      }

      .cls-4 {
        fill: url(#linear-gradient-3);
      }

      .cls-5 {
        fill: url(#linear-gradient-4);
      }

      .cls-6 {
        fill: url(#linear-gradient-5);
      }

      .cls-7 {
        fill: url(#linear-gradient-6);
      }

      .cls-8 {
        fill: url(#linear-gradient-7);
      }

      .cls-9 {
        fill: url(#linear-gradient-8);
      }

      .cls-10 {
        fill: url(#linear-gradient-9);
      }

      .cls-11 {
        fill: url(#linear-gradient-10);
      }

      .cls-12 {
        fill: url(#linear-gradient-11);
      }

      .cls-13 {
        fill: url(#linear-gradient-12);
      }

      .cls-14 {
        fill: url(#linear-gradient-13);
      }

      .cls-15 {
        fill: url(#linear-gradient-14);
      }

      .cls-16 {
        fill: url(#linear-gradient-15);
      }

      .cls-17 {
        fill: url(#linear-gradient-16);
      }

      .cls-18 {
        fill: url(#linear-gradient-17);
      }

      .cls-19 {
        fill: url(#linear-gradient-18);
      }

      .cls-20 {
        fill: url(#linear-gradient-19);
      }

      .cls-21 {
        fill: url(#linear-gradient-20);
      }

      .cls-22 {
        fill: url(#linear-gradient-21);
      }

      .cls-23 {
        fill: url(#linear-gradient-22);
      }

      .cls-24 {
        fill: url(#linear-gradient-23);
      }

      .cls-25 {
        fill: url(#linear-gradient-24);
      }

      .cls-26 {
        fill: url(#linear-gradient-25);
      }

      .cls-27 {
        fill: url(#linear-gradient-26);
      }

      .cls-28 {
        fill: url(#linear-gradient-27);
      }

      .cls-29 {
        fill: url(#linear-gradient-28);
      }

      .cls-30 {
        fill: url(#linear-gradient-29);
      }

      .cls-31 {
        fill: url(#linear-gradient-30);
      }

      .cls-32 {
        fill: url(#linear-gradient-31);
      }

      .cls-33 {
        fill: url(#linear-gradient-32);
      }

      .cls-34 {
        fill: url(#linear-gradient-33);
      }

      .cls-35 {
        fill: url(#linear-gradient-34);
      }

      .cls-36 {
        fill: url(#linear-gradient-35);
      }

      .cls-37 {
        fill: url(#linear-gradient-36);
      }

      .cls-38 {
        fill: url(#linear-gradient-37);
      }

      .cls-39 {
        fill: url(#linear-gradient-38);
      }

      .cls-40 {
        fill: url(#linear-gradient-39);
      }

      .cls-41 {
        fill: url(#linear-gradient-40);
      }

      .cls-42 {
        fill: url(#linear-gradient-41);
      }

      .cls-43 {
        fill: url(#linear-gradient-42);
      }

      .cls-44 {
        fill: url(#linear-gradient-43);
      }

      .cls-45 {
        fill: url(#linear-gradient-44);
      }

      .cls-46 {
        fill: url(#linear-gradient-45);
      }

      .cls-47 {
        fill: url(#linear-gradient-46);
      }

      .cls-48 {
        fill: url(#linear-gradient-47);
      }

      .cls-49 {
        fill: url(#linear-gradient-48);
      }

      .cls-50 {
        fill: url(#linear-gradient-49);
      }

      .cls-51 {
        fill: url(#linear-gradient-50);
      }

      .cls-52 {
        fill: url(#linear-gradient-51);
      }

      .cls-53 {
        fill: url(#linear-gradient-52);
      }

      .cls-54 {
        fill: url(#linear-gradient-53);
      }

      .cls-55 {
        fill: url(#linear-gradient-54);
      }

      .cls-56 {
        fill: url(#linear-gradient-55);
      }

      .cls-57 {
        fill: url(#linear-gradient-56);
      }

      .cls-58 {
        fill: url(#linear-gradient-57);
      }

      .cls-59 {
        fill: url(#linear-gradient-58);
      }

      .cls-60 {
        fill: url(#linear-gradient-59);
      }

      .cls-61 {
        fill: url(#linear-gradient-60);
      }

      .cls-62 {
        fill: #daeded;
      }

      .cls-62, .cls-67 {
        mix-blend-mode: multiply;
      }

      .cls-63 {
        fill: url(#linear-gradient-61);
      }

      .cls-64 {
        fill: url(#linear-gradient-62);
      }

      .cls-65 {
        fill: url(#linear-gradient-63);
      }

      .cls-66 {
        fill: url(#linear-gradient-64);
      }

      .cls-67 {
        fill: #d6675c;
      }

      .cls-68 {
        fill: url(#linear-gradient-65);
      }

      .cls-69 {
        fill: url(#linear-gradient-66);
      }
    </style>
    <linearGradient id="linear-gradient" x1="54.255" y1="-1.444" x2="54.255" y2="-6.914" gradientTransform="translate(-6.905 20.292) rotate(-6.834)" gradientUnits="userSpaceOnUse">
      <stop offset="0" stop-color="#edb444"/>
      <stop offset="1" stop-color="#ffe48a"/>
    </linearGradient>
    <linearGradient id="linear-gradient-2" x1="54.255" y1="-2.958" x2="54.255" y2="-5.402" gradientTransform="translate(-6.905 20.292) rotate(-6.834)" gradientUnits="userSpaceOnUse">
      <stop offset="0" stop-color="#d3680d"/>
      <stop offset="0.224" stop-color="#db801a"/>
      <stop offset="0.745" stop-color="#ecb535"/>
      <stop offset="1" stop-color="#f3c93f"/>
    </linearGradient>
    <linearGradient id="linear-gradient-3" x1="37.139" y1="77.692" x2="37.139" y2="71.448" gradientTransform="translate(52.752 -70.631) rotate(28.71)" gradientUnits="userSpaceOnUse">
      <stop offset="0" stop-color="#edb444"/>
      <stop offset="0.23" stop-color="#f0bb4e"/>
      <stop offset="0.623" stop-color="#f7ce6a"/>
      <stop offset="1" stop-color="#ffe48a"/>
    </linearGradient>
    <linearGradient id="linear-gradient-4" x1="37.139" y1="76.154" x2="37.139" y2="72.987" gradientTransform="translate(52.752 -70.631) rotate(28.71)" xlink:href="#linear-gradient-2"/>
    <linearGradient id="linear-gradient-5" x1="43.779" y1="17.052" x2="43.779" y2="10.117" gradientUnits="userSpaceOnUse">
      <stop offset="0" stop-color="#edb444"/>
      <stop offset="0.093" stop-color="#f1be52"/>
      <stop offset="0.295" stop-color="#f7ce6b"/>
      <stop offset="0.507" stop-color="#fbdb7c"/>
      <stop offset="0.733" stop-color="#fee287"/>
      <stop offset="1" stop-color="#ffe48a"/>
    </linearGradient>
    <linearGradient id="linear-gradient-6" x1="43.778" y1="15.2" x2="43.778" y2="11.969" gradientTransform="matrix(1, 0, 0, 1, 0, 0)" xlink:href="#linear-gradient-2"/>
    <linearGradient id="linear-gradient-7" x1="20.464" y1="5.666" x2="20.464" y2="0" xlink:href="#linear-gradient-5"/>
    <linearGradient id="linear-gradient-8" x1="20.464" y1="4.154" x2="20.464" y2="1.513" gradientTransform="matrix(1, 0, 0, 1, 0, 0)" xlink:href="#linear-gradient-2"/>
    <linearGradient id="linear-gradient-9" x1="13.444" y1="11.863" x2="13.444" y2="6.196" xlink:href="#linear-gradient-5"/>
    <linearGradient id="linear-gradient-10" x1="13.444" y1="10.35" x2="13.444" y2="7.709" gradientTransform="matrix(1, 0, 0, 1, 0, 0)" xlink:href="#linear-gradient-2"/>
    <linearGradient id="linear-gradient-11" x1="41.487" y1="16.382" x2="41.487" y2="10.716" xlink:href="#linear-gradient-5"/>
    <linearGradient id="linear-gradient-12" x1="41.487" y1="14.869" x2="41.487" y2="12.229" gradientTransform="matrix(1, 0, 0, 1, 0, 0)" xlink:href="#linear-gradient-2"/>
    <linearGradient id="linear-gradient-13" x1="16.855" y1="15.252" x2="16.855" y2="9.586" xlink:href="#linear-gradient-5"/>
    <linearGradient id="linear-gradient-14" x1="16.855" y1="13.74" x2="16.855" y2="11.099" gradientTransform="matrix(1, 0, 0, 1, 0, 0)" xlink:href="#linear-gradient-2"/>
    <linearGradient id="linear-gradient-15" x1="20.464" y1="9.313" x2="20.464" y2="3.647" xlink:href="#linear-gradient-5"/>
    <linearGradient id="linear-gradient-16" x1="20.464" y1="7.8" x2="20.464" y2="5.159" gradientTransform="matrix(1, 0, 0, 1, 0, 0)" xlink:href="#linear-gradient-2"/>
    <linearGradient id="linear-gradient-17" x1="239.301" y1="-33.468" x2="239.301" y2="-42.628" gradientTransform="matrix(-0.92, 0.392, 0.392, 0.92, 271.79, -47.544)" xlink:href="#linear-gradient-3"/>
    <linearGradient id="linear-gradient-18" x1="239.301" y1="-35.726" x2="239.301" y2="-40.371" gradientTransform="matrix(-0.92, 0.392, 0.392, 0.92, 271.79, -47.544)" xlink:href="#linear-gradient-2"/>
    <linearGradient id="linear-gradient-19" x1="259.668" y1="-22.466" x2="259.668" y2="-30.878" gradientTransform="matrix(-0.955, 0.297, 0.297, 0.955, 305.252, -34.339)" xlink:href="#linear-gradient-3"/>
    <linearGradient id="linear-gradient-20" x1="259.668" y1="-24.539" x2="259.668" y2="-28.806" gradientTransform="matrix(-0.955, 0.297, 0.297, 0.955, 305.252, -34.339)" xlink:href="#linear-gradient-2"/>
    <linearGradient id="linear-gradient-21" x1="34.385" y1="93.006" x2="34.385" y2="86.749" gradientTransform="matrix(0.794, 0.608, -0.701, 0.914, 78.186, -85.181)" xlink:href="#linear-gradient-5"/>
    <linearGradient id="linear-gradient-22" x1="34.386" y1="91.336" x2="34.386" y2="88.419" gradientTransform="matrix(0.794, 0.608, -0.701, 0.914, 78.186, -85.181)" xlink:href="#linear-gradient-2"/>
    <linearGradient id="linear-gradient-23" x1="31.334" y1="22.189" x2="31.334" y2="14.229" gradientUnits="userSpaceOnUse">
      <stop offset="0" stop-color="#edb444"/>
      <stop offset="0.219" stop-color="#eeb749"/>
      <stop offset="0.478" stop-color="#f2c157"/>
      <stop offset="0.755" stop-color="#f8d16f"/>
      <stop offset="1" stop-color="#ffe48a"/>
    </linearGradient>
    <linearGradient id="linear-gradient-24" x1="31.334" y1="20" x2="31.334" y2="16.419" gradientTransform="matrix(1, 0, 0, 1, 0, 0)" xlink:href="#linear-gradient-2"/>
    <linearGradient id="linear-gradient-25" x1="33.081" y1="17.443" x2="33.081" y2="10.513" gradientTransform="matrix(1, 0, 0, 1, 0, 0)" xlink:href="#linear-gradient-3"/>
    <linearGradient id="linear-gradient-26" x1="33.08" y1="15.737" x2="33.08" y2="12.221" gradientTransform="matrix(1, 0, 0, 1, 0, 0)" xlink:href="#linear-gradient-2"/>
    <linearGradient id="linear-gradient-27" x1="68.305" y1="-29.203" x2="68.305" y2="-36.897" gradientTransform="matrix(0.915, -0.403, 0.403, 0.915, -12.401, 73.592)" xlink:href="#linear-gradient-5"/>
    <linearGradient id="linear-gradient-28" x1="68.306" y1="-31.257" x2="68.306" y2="-34.844" gradientTransform="matrix(0.915, -0.403, 0.403, 0.915, -12.401, 73.592)" xlink:href="#linear-gradient-2"/>
    <linearGradient id="linear-gradient-29" x1="19.169" y1="61.738" x2="19.169" y2="56.207" gradientTransform="translate(40.018 -56.429) rotate(27.567)" xlink:href="#linear-gradient-5"/>
    <linearGradient id="linear-gradient-30" x1="19.169" y1="60.262" x2="19.169" y2="57.681" gradientTransform="translate(40.018 -56.429) rotate(27.567)" xlink:href="#linear-gradient-2"/>
    <linearGradient id="linear-gradient-31" x1="20.513" y1="-5.904" x2="20.513" y2="-12.744" gradientTransform="translate(-4.632 15.567) rotate(-1.582)" xlink:href="#linear-gradient-5"/>
    <linearGradient id="linear-gradient-32" x1="20.514" y1="-7.731" x2="20.514" y2="-10.92" gradientTransform="translate(-4.632 15.567) rotate(-1.582)" xlink:href="#linear-gradient-2"/>
    <linearGradient id="linear-gradient-33" x1="1.525" y1="72.657" x2="1.525" y2="64.244" gradientTransform="matrix(0.92, 0.392, -0.392, 0.92, 38.962, -47.544)" xlink:href="#linear-gradient-3"/>
    <linearGradient id="linear-gradient-34" x1="1.525" y1="70.583" x2="1.525" y2="66.318" gradientTransform="matrix(0.92, 0.392, -0.392, 0.92, 38.962, -47.544)" xlink:href="#linear-gradient-2"/>
    <linearGradient id="linear-gradient-35" x1="6.901" y1="59.809" x2="6.901" y2="51.919" gradientTransform="matrix(0.92, 0.392, -0.392, 0.92, 38.962, -47.544)" xlink:href="#linear-gradient-3"/>
    <linearGradient id="linear-gradient-36" x1="6.901" y1="57.865" x2="6.901" y2="53.863" gradientTransform="matrix(0.92, 0.392, -0.392, 0.92, 38.962, -47.544)" xlink:href="#linear-gradient-2"/>
    <linearGradient id="linear-gradient-37" x1="18.478" y1="15.334" x2="18.478" y2="6.48" gradientTransform="matrix(1, 0, 0, 1, 0, 0)" xlink:href="#linear-gradient"/>
    <linearGradient id="linear-gradient-38" x1="18.478" y1="12.886" x2="18.478" y2="8.928" gradientTransform="matrix(1, 0, 0, 1, 0, 0)" xlink:href="#linear-gradient-2"/>
    <linearGradient id="linear-gradient-39" x1="19.766" y1="19.878" x2="19.766" y2="12.944" xlink:href="#linear-gradient-5"/>
    <linearGradient id="linear-gradient-40" x1="19.766" y1="18.027" x2="19.766" y2="14.795" gradientTransform="matrix(1, 0, 0, 1, 0, 0)" xlink:href="#linear-gradient-2"/>
    <linearGradient id="linear-gradient-41" x1="34.619" y1="9.97" x2="34.619" y2="4.1" xlink:href="#linear-gradient-5"/>
    <linearGradient id="linear-gradient-42" x1="34.619" y1="8.402" x2="34.619" y2="5.667" gradientTransform="matrix(1, 0, 0, 1, 0, 0)" xlink:href="#linear-gradient-2"/>
    <linearGradient id="linear-gradient-43" x1="-1.364" y1="61.236" x2="-1.364" y2="53.72" gradientTransform="translate(31.857 -42.673) rotate(20.292)" xlink:href="#linear-gradient-5"/>
    <linearGradient id="linear-gradient-44" x1="-1.364" y1="59.229" x2="-1.364" y2="55.726" gradientTransform="translate(31.857 -42.673) rotate(20.292)" xlink:href="#linear-gradient-2"/>
    <linearGradient id="linear-gradient-45" x1="15.054" y1="58.45" x2="15.054" y2="50.935" gradientTransform="translate(31.857 -42.673) rotate(20.292)" xlink:href="#linear-gradient-5"/>
    <linearGradient id="linear-gradient-46" x1="15.054" y1="56.445" x2="15.054" y2="52.941" gradientTransform="translate(31.857 -42.673) rotate(20.292)" xlink:href="#linear-gradient-2"/>
    <linearGradient id="linear-gradient-47" x1="25.295" y1="21.675" x2="25.295" y2="14.743" gradientTransform="matrix(1, 0, 0, 1, 0, 0)" xlink:href="#linear-gradient-3"/>
    <linearGradient id="linear-gradient-48" x1="25.295" y1="19.967" x2="25.295" y2="16.451" gradientTransform="matrix(1, 0, 0, 1, 0, 0)" xlink:href="#linear-gradient-2"/>
    <linearGradient id="linear-gradient-49" x1="25.999" y1="12.383" x2="25.999" y2="4.786" gradientTransform="matrix(1, 0, 0, 1, 0, 0)" xlink:href="#linear-gradient-3"/>
    <linearGradient id="linear-gradient-50" x1="25.999" y1="10.512" x2="25.999" y2="6.658" gradientTransform="matrix(1, 0, 0, 1, 0, 0)" xlink:href="#linear-gradient-2"/>
    <linearGradient id="linear-gradient-51" x1="6.618" y1="21.817" x2="6.618" y2="12.063" xlink:href="#linear-gradient-23"/>
    <linearGradient id="linear-gradient-52" x1="6.618" y1="19.134" x2="6.618" y2="14.746" gradientTransform="matrix(1, 0, 0, 1, 0, 0)" xlink:href="#linear-gradient-2"/>
    <linearGradient id="linear-gradient-53" x1="26.842" y1="62.039" x2="26.842" y2="21.012" gradientUnits="userSpaceOnUse">
      <stop offset="0.048" stop-color="#cceded"/>
      <stop offset="0.632" stop-color="#e6f5f5"/>
      <stop offset="1" stop-color="#f0f8f8"/>
    </linearGradient>
    <linearGradient id="linear-gradient-54" x1="33.864" y1="62.039" x2="33.864" y2="21.012" gradientUnits="userSpaceOnUse">
      <stop offset="0" stop-color="#a80909"/>
      <stop offset="0.861" stop-color="#e63b2b"/>
      <stop offset="1" stop-color="#f04431"/>
    </linearGradient>
    <linearGradient id="linear-gradient-55" x1="40.877" y1="62.039" x2="40.877" y2="21.012" xlink:href="#linear-gradient-54"/>
    <linearGradient id="linear-gradient-56" x1="47.081" y1="62.039" x2="47.081" y2="21.012" xlink:href="#linear-gradient-54"/>
    <linearGradient id="linear-gradient-57" x1="26.841" y1="62.039" x2="26.841" y2="21.012" xlink:href="#linear-gradient-54"/>
    <linearGradient id="linear-gradient-58" x1="19.818" y1="62.039" x2="19.818" y2="21.012" xlink:href="#linear-gradient-54"/>
    <linearGradient id="linear-gradient-59" x1="12.805" y1="62.039" x2="12.805" y2="21.012" xlink:href="#linear-gradient-54"/>
    <linearGradient id="linear-gradient-60" x1="6.602" y1="62.039" x2="6.602" y2="21.012" xlink:href="#linear-gradient-54"/>
    <linearGradient id="linear-gradient-61" x1="26.841" y1="64.768" x2="26.841" y2="61.639" gradientUnits="userSpaceOnUse">
      <stop offset="0" stop-color="#330600"/>
      <stop offset="1" stop-color="#6b1c0a"/>
    </linearGradient>
    <linearGradient id="linear-gradient-62" x1="26.841" y1="21.84" x2="26.841" y2="18.986" xlink:href="#linear-gradient-61"/>
    <linearGradient id="linear-gradient-63" x1="26.841" y1="63.579" x2="26.841" y2="61.639" xlink:href="#linear-gradient-61"/>
    <linearGradient id="linear-gradient-64" x1="26.841" y1="20.79" x2="26.841" y2="18.986" xlink:href="#linear-gradient-61"/>
    <linearGradient id="linear-gradient-65" x1="20.634" y1="96.937" x2="20.634" y2="90.68" gradientTransform="translate(71.051 -77.338) rotate(37.467)" xlink:href="#linear-gradient-5"/>
    <linearGradient id="linear-gradient-66" x1="20.634" y1="95.266" x2="20.634" y2="92.35" gradientTransform="translate(71.051 -77.338) rotate(37.467)" xlink:href="#linear-gradient-2"/>
  </defs>
  <title>Asset 11</title>
  <g class="cls-1">
    <g id="Layer_2" data-name="Layer 2">
      <g id="Layer_1-2" data-name="Layer 1">
        <g>
          <g>
            <path class="cls-2" d="M49.2,8.36A.981.981,0,0,0,49.2,8.1a1.243,1.243,0,0,0-1.445-.984,1.441,1.441,0,0,0-.742.315,1.4,1.4,0,0,0-1.209-.42,1.272,1.272,0,0,0-1.2,1.266,1.523,1.523,0,0,0-.554-.036A1.37,1.37,0,0,0,42.8,9.717a1.37,1.37,0,0,0,1.563,1.139,1.5,1.5,0,0,0,.576-.194,1.425,1.425,0,0,0-.008.381,1.6,1.6,0,0,0,1.811,1.364A1.64,1.64,0,0,0,48.074,11.4a1.746,1.746,0,0,0,.575.032,1.656,1.656,0,0,0,1.482-1.81A1.606,1.606,0,0,0,49.2,8.36Z"/>
            <path class="cls-3" d="M46.582,10.9a.542.542,0,0,1-.62-.451.429.429,0,0,1,0-.121l.115-.854-.747.431a.481.481,0,0,1-.183.063.374.374,0,1,1-.087-.735.491.491,0,0,1,.175.013l.569.145-.041-.583c-.01-.13.13-.287.352-.314a.429.429,0,0,1,.363.117l.271.3.311-.255a.415.415,0,0,1,.227-.1c.2-.025.382.076.4.221a.207.207,0,0,1,0,.048l-.045.311.285.131a.544.544,0,0,1,.321.424.575.575,0,0,1-.522.62.641.641,0,0,1-.206-.013l-.348-.075-.132.329A.565.565,0,0,1,46.582,10.9Z"/>
          </g>
          <g>
            <path class="cls-4" d="M52.355,14.4a1.38,1.38,0,0,0-.007-1.279.612.612,0,0,0,.154-.17.83.83,0,0,0-.436-1.08,1,1,0,0,0-.228-.081A1.768,1.768,0,0,0,51,9.875a1.815,1.815,0,0,0-2.422.771,1.613,1.613,0,0,0-2.105.508,1.66,1.66,0,0,0,.87,2.156c.009,0,.018.007.028.012a1.908,1.908,0,0,0,3.312,1.727A1.483,1.483,0,0,0,52.355,14.4Z"/>
            <path class="cls-5" d="M48.957,14.123a.648.648,0,0,1-.344-.749l.2-.581-.587-.319c-.279-.166-.407-.45-.328-.592.07-.127.344-.182.63-.058l.6.265.324-.571a.616.616,0,0,1,.809-.292.584.584,0,0,1,.258.638l-.132.664.362.262.208.526a.334.334,0,0,1,.023.276.4.4,0,0,1-.44.115l-.471-.106-.282.39A.642.642,0,0,1,48.957,14.123Z"/>
          </g>
          <g>
            <path class="cls-6" d="M48.2,13.192a2.047,2.047,0,0,0-1.9-2.167,1.713,1.713,0,0,0-.966.31,1.893,1.893,0,0,0-1.759-1.218,1.919,1.919,0,0,0-1.9,1.94c0,.009,0,.018,0,.029a2.124,2.124,0,0,0-.332-.029,1.838,1.838,0,0,0-1.982,1.65,1.711,1.711,0,0,0,1.369,1.564,2.147,2.147,0,0,0,2.1,1.7,2.112,2.112,0,0,0,1.1-.312,1.612,1.612,0,0,0,1.047.395,1.673,1.673,0,0,0,1.652-1.694c0-.012,0-.024-.005-.036A2.1,2.1,0,0,0,48.2,13.192Z"/>
            <path class="cls-7" d="M44.52,15.2a.474.474,0,0,1-.3-.118l-.291-.247-.326.2a.774.774,0,0,1-.408.118.8.8,0,0,1-.779-.63l-.067-.319-.313-.084c-.269-.074-.457-.261-.457-.455,0-.266.319-.491.7-.491a.923.923,0,0,1,.13.013l.608.086v-.66a.655.655,0,0,1,.642-.64.641.641,0,0,1,.595.417l.243.618.551-.372a.53.53,0,0,1,.3-.1.744.744,0,0,1,.644.812.781.781,0,0,1-.547.8l-.451.09.026.481A.5.5,0,0,1,44.52,15.2Z"/>
          </g>
          <g>
            <path class="cls-8" d="M24.073,2.513A1.673,1.673,0,0,0,22.521.742,1.407,1.407,0,0,0,21.733,1,1.551,1.551,0,0,0,20.3,0a1.568,1.568,0,0,0-1.551,1.585v.023a1.846,1.846,0,0,0-.271-.023,1.5,1.5,0,0,0-1.619,1.349,1.4,1.4,0,0,0,1.119,1.277A1.755,1.755,0,0,0,19.689,5.6a1.715,1.715,0,0,0,.9-.256,1.321,1.321,0,0,0,.857.323,1.366,1.366,0,0,0,1.349-1.383c0-.01,0-.02,0-.031A1.716,1.716,0,0,0,24.073,2.513Z"/>
            <path class="cls-9" d="M21.069,4.154a.394.394,0,0,1-.249-.1l-.237-.2-.266.161a.647.647,0,0,1-.971-.419l-.055-.261-.255-.069a.447.447,0,0,1-.373-.372c0-.216.261-.4.567-.4a.733.733,0,0,1,.107.01l.5.07V2.037a.537.537,0,0,1,.527-.524.525.525,0,0,1,.485.341l.2.5.45-.3a.44.44,0,0,1,.244-.082.608.608,0,0,1,.528.663.635.635,0,0,1-.447.65l-.369.074.021.393A.412.412,0,0,1,21.069,4.154Z"/>
          </g>
          <g>
            <path class="cls-10" d="M17.053,8.709A1.672,1.672,0,0,0,15.5,6.939a1.4,1.4,0,0,0-.789.252,1.551,1.551,0,0,0-1.438-1,1.568,1.568,0,0,0-1.55,1.586v.023a1.871,1.871,0,0,0-.272-.023A1.5,1.5,0,0,0,9.835,9.13a1.394,1.394,0,0,0,1.119,1.277,1.753,1.753,0,0,0,1.714,1.387,1.733,1.733,0,0,0,.9-.254,1.323,1.323,0,0,0,.857.323,1.367,1.367,0,0,0,1.349-1.383c0-.01,0-.02,0-.031A1.717,1.717,0,0,0,17.053,8.709Z"/>
            <path class="cls-11" d="M14.05,10.35a.391.391,0,0,1-.25-.1l-.237-.2-.266.161a.641.641,0,0,1-.334.1.654.654,0,0,1-.636-.515l-.056-.26-.255-.07c-.219-.06-.372-.213-.372-.371,0-.218.26-.4.566-.4a.72.72,0,0,1,.107.01l.5.071V8.234a.537.537,0,0,1,.527-.525.523.523,0,0,1,.485.341l.2.506.451-.3a.429.429,0,0,1,.243-.083.609.609,0,0,1,.528.663.64.64,0,0,1-.446.652l-.37.073.022.392A.412.412,0,0,1,14.05,10.35Z"/>
          </g>
          <g>
            <path class="cls-12" d="M45.1,13.229a1.673,1.673,0,0,0-1.551-1.772,1.4,1.4,0,0,0-.789.254,1.551,1.551,0,0,0-1.439-1A1.567,1.567,0,0,0,39.768,12.3v.022A1.971,1.971,0,0,0,39.5,12.3a1.5,1.5,0,0,0-1.618,1.348A1.4,1.4,0,0,0,39,14.927a1.753,1.753,0,0,0,1.714,1.388,1.717,1.717,0,0,0,.9-.256,1.311,1.311,0,0,0,.856.323A1.366,1.366,0,0,0,43.814,15c0-.011,0-.02,0-.03A1.719,1.719,0,0,0,45.1,13.229Z"/>
            <path class="cls-13" d="M42.092,14.869a.4.4,0,0,1-.25-.1l-.237-.2-.265.162a.647.647,0,0,1-.971-.42l-.054-.26-.256-.069a.449.449,0,0,1-.374-.373c0-.215.262-.4.568-.4a.873.873,0,0,1,.106.009l.5.071v-.538a.539.539,0,0,1,.528-.524.522.522,0,0,1,.484.34l.2.5.45-.3a.432.432,0,0,1,.244-.082.608.608,0,0,1,.529.663.637.637,0,0,1-.447.65l-.37.074.022.393A.412.412,0,0,1,42.092,14.869Z"/>
          </g>
          <g>
            <path class="cls-14" d="M20.464,12.1a1.673,1.673,0,0,0-1.552-1.771,1.4,1.4,0,0,0-.789.253,1.548,1.548,0,0,0-1.438-.995,1.568,1.568,0,0,0-1.55,1.586v.022a2.01,2.01,0,0,0-.272-.022,1.5,1.5,0,0,0-1.618,1.348A1.4,1.4,0,0,0,14.365,13.8a1.753,1.753,0,0,0,1.714,1.388,1.734,1.734,0,0,0,.9-.255,1.325,1.325,0,0,0,.856.322,1.366,1.366,0,0,0,1.35-1.383c0-.01,0-.019,0-.03A1.72,1.72,0,0,0,20.464,12.1Z"/>
            <path class="cls-15" d="M17.46,13.74a.394.394,0,0,1-.25-.1l-.237-.2-.265.161a.642.642,0,0,1-.335.1.654.654,0,0,1-.636-.515l-.055-.26-.256-.07c-.219-.06-.372-.213-.372-.371,0-.217.261-.4.567-.4a.706.706,0,0,1,.106.01l.5.07v-.537a.537.537,0,0,1,.527-.525.522.522,0,0,1,.484.342l.2.5.45-.3a.429.429,0,0,1,.243-.083.608.608,0,0,1,.528.663.637.637,0,0,1-.446.651l-.37.074.022.392A.411.411,0,0,1,17.46,13.74Z"/>
          </g>
          <g>
            <path class="cls-16" d="M24.073,6.159a1.672,1.672,0,0,0-1.552-1.77,1.392,1.392,0,0,0-.788.253,1.551,1.551,0,0,0-1.438-1,1.568,1.568,0,0,0-1.551,1.585v.023a1.718,1.718,0,0,0-.271-.023,1.5,1.5,0,0,0-1.619,1.347,1.4,1.4,0,0,0,1.119,1.279,1.754,1.754,0,0,0,1.715,1.387,1.723,1.723,0,0,0,.9-.255,1.321,1.321,0,0,0,.857.323A1.367,1.367,0,0,0,22.791,7.93a.243.243,0,0,0,0-.03A1.72,1.72,0,0,0,24.073,6.159Z"/>
            <path class="cls-17" d="M21.069,7.8a.389.389,0,0,1-.249-.1l-.237-.2-.266.16a.634.634,0,0,1-.334.1.656.656,0,0,1-.637-.516l-.055-.26-.255-.07a.447.447,0,0,1-.373-.372c0-.216.261-.4.567-.4a.9.9,0,0,1,.107.01l.5.071V5.685a.539.539,0,0,1,.527-.526.524.524,0,0,1,.485.34l.2.506.45-.3a.442.442,0,0,1,.244-.083.608.608,0,0,1,.528.663.637.637,0,0,1-.447.651l-.369.074.021.393A.411.411,0,0,1,21.069,7.8Z"/>
          </g>
          <g>
            <path class="cls-18" d="M32.281,13.38a2.015,2.015,0,0,1,.2-1.865.877.877,0,0,1-.2-.272,1.219,1.219,0,0,1,.789-1.513,1.544,1.544,0,0,1,.349-.085,2.59,2.59,0,0,1,1.5-2.68A2.66,2.66,0,0,1,38.342,8.44a2.367,2.367,0,0,1,3,1.044,2.436,2.436,0,0,1-1.583,3.023.283.283,0,0,0-.041.014,2.8,2.8,0,0,1-5.086,2.042A2.18,2.18,0,0,1,32.281,13.38Z"/>
            <path class="cls-19" d="M37.284,13.459a.95.95,0,0,0,.609-1.043l-.2-.875.9-.384c.431-.2.657-.6.564-.815-.083-.2-.478-.315-.91-.174l-.918.3-.39-.881a.906.906,0,0,0-1.14-.542.852.852,0,0,0-.467.9l.1.987-.748.133.178.2-.375.738a.47.47,0,0,0-.073.4.589.589,0,0,0,.624.233l.7-.088.357.609A.935.935,0,0,0,37.284,13.459Z"/>
          </g>
          <g>
            <path class="cls-20" d="M45.148,18.969a1.852,1.852,0,0,1,.354-1.687.8.8,0,0,1-.161-.266,1.121,1.121,0,0,1,.862-1.311,1.421,1.421,0,0,1,.326-.045,2.375,2.375,0,0,1,1.621-2.31,2.443,2.443,0,0,1,2.993,1.663,2.178,2.178,0,0,1,2.646,1.232,2.236,2.236,0,0,1-1.726,2.615c-.014,0-.027,0-.04.009a2.572,2.572,0,0,1-4.835,1.4A2,2,0,0,1,45.148,18.969Z"/>
            <path class="cls-21" d="M49.712,19.5a.875.875,0,0,0,.654-.9l-.1-.819.861-.266c.413-.145.655-.485.591-.694-.059-.186-.408-.332-.817-.243l-.865.188-.276-.841a.832.832,0,0,0-.991-.6.787.787,0,0,0-.51.776l0,.911-.551.249-.412.639a.441.441,0,0,0-.1.359.541.541,0,0,0,.549.269l.651-.015.269.59A.861.861,0,0,0,49.712,19.5Z"/>
          </g>
          <g>
            <path class="cls-22" d="M45.93,20a2.037,2.037,0,0,0,.01-2.829,1.419,1.419,0,0,0-.886-.275,1.741,1.741,0,0,0-.491-1.97,1.883,1.883,0,0,0-2.586.558c-.007.008-.01.017-.016.025a1.8,1.8,0,0,0-.221-.205,1.752,1.752,0,0,0-2.463.274,1.721,1.721,0,0,0-.007,2.041,2.023,2.023,0,0,0,.429,2.552,1.73,1.73,0,0,0,.985.346,1.347,1.347,0,0,0,.5.9,1.639,1.639,0,0,0,2.25-.489.194.194,0,0,0,.022-.034A2.16,2.16,0,0,0,45.93,20Z"/>
            <path class="cls-23" d="M42.028,19.643a.4.4,0,0,1-.143-.266l-.053-.363L41.475,19a.637.637,0,0,1-.367-.127.752.752,0,0,1-.159-.947l.153-.3-.171-.242a.539.539,0,0,1-.038-.626.583.583,0,0,1,.807-.022.472.472,0,0,1,.085.082l.381.4.416-.543a.644.644,0,0,1,.867-.177.588.588,0,0,1,.162.671l-.216.643.629,0a.438.438,0,0,1,.279.081c.254.2.231.653-.051,1.022a.812.812,0,0,1-.9.358l-.379-.173-.286.41A.494.494,0,0,1,42.028,19.643Z"/>
          </g>
          <g>
            <path class="cls-24" d="M36.2,18.229a1.946,1.946,0,0,0-1.99-1.738v-.012a2.321,2.321,0,0,0-4.64,0c0,.06.014.116.018.173a3.44,3.44,0,0,0-.46-.037,2.429,2.429,0,0,0-2.651,2.114,2.428,2.428,0,0,0,2.651,2.113,3.23,3.23,0,0,0,.984-.154,2.114,2.114,0,0,0,1.989,1.5,2.161,2.161,0,0,0,2.109-2.211v-.014A1.943,1.943,0,0,0,36.2,18.229Z"/>
            <path class="cls-25" d="M31.816,20a.617.617,0,0,1-.566-.448l-.223-.687-.687.218a1.279,1.279,0,0,1-.4.065c-.559,0-.95-.323-.95-.611s.391-.609.95-.609a1.679,1.679,0,0,1,.191.015l.9.127-.075-.926-.009-.065a.746.746,0,0,1,1.482,0v.724l.682.042c.339.021.577.214.577.373s-.238.351-.577.374l-.682.042v.731A.64.64,0,0,1,31.816,20Z"/>
          </g>
          <g>
            <path class="cls-26" d="M36.813,14.2a1.533,1.533,0,0,0-.691-1.24.7.7,0,0,0,.06-.249.923.923,0,0,0-1-.82,1.164,1.164,0,0,0-.267.044,1.959,1.959,0,0,0-1.842-1.42,2.011,2.011,0,0,0-1.945,2.042,1.791,1.791,0,0,0-1.78,1.617,1.843,1.843,0,0,0,2,1.636c.011,0,.021,0,.033,0a2.118,2.118,0,0,0,4.144-.084A1.651,1.651,0,0,0,36.813,14.2Z"/>
            <path class="cls-27" d="M33.352,15.737a.718.718,0,0,1-.732-.546l-.119-.67-.743,0c-.36-.014-.635-.222-.635-.4,0-.161.24-.361.583-.392l.728-.064.009-.73a.687.687,0,0,1,.634-.715.649.649,0,0,1,.59.485l.228.716.56-.129-.068.19.481.4a.354.354,0,0,1,.169.256c0,.14-.155.288-.367.347l-.514.146-.066.53A.713.713,0,0,1,33.352,15.737Z"/>
          </g>
          <g>
            <path class="cls-28" d="M41.131,13.468a2.272,2.272,0,0,0-2.9-1.354,1.917,1.917,0,0,0-.84.745,2.107,2.107,0,0,0-2.332-.45A2.13,2.13,0,0,0,34,15.228c0,.01.012.017.015.027a2.554,2.554,0,0,0-.351.12,2.039,2.039,0,0,0-1.274,2.563,1.9,1.9,0,0,0,2.09.975,2.366,2.366,0,0,0,3.867-.02,1.775,1.775,0,0,0,1.238-.068,1.855,1.855,0,0,0,.922-2.456.267.267,0,0,0-.022-.036A2.33,2.33,0,0,0,41.131,13.468Z"/>
            <path class="cls-29" d="M38.3,17.149a.53.53,0,0,1-.363.017l-.405-.122-.245.346a.863.863,0,0,1-.361.3.888.888,0,0,1-1.073-.292l-.21-.292-.357.052a.607.607,0,0,1-.666-.258c-.119-.27.1-.641.487-.81a1,1,0,0,1,.138-.044l.655-.185-.293-.669a.727.727,0,0,1,.365-.939.713.713,0,0,1,.791.157l.523.521.393-.624a.578.578,0,0,1,.26-.236.824.824,0,0,1,1.017.536.868.868,0,0,1-.2,1.053l-.42.293.242.477A.561.561,0,0,1,38.3,17.149Z"/>
          </g>
          <g>
            <path class="cls-30" d="M32.988,6.075a1.631,1.631,0,0,0-.543-2.235,1.379,1.379,0,0,0-.8-.137,1.511,1.511,0,0,0-.794-1.51,1.53,1.53,0,0,0-2.059.67c-.005.007-.006.015-.01.021a1.59,1.59,0,0,0-.225-.142,1.465,1.465,0,0,0-2.011.436,1.364,1.364,0,0,0,.392,1.611A1.713,1.713,0,0,0,27.8,6.765a1.694,1.694,0,0,0,.892.185,1.288,1.288,0,0,0,.595.665,1.333,1.333,0,0,0,1.793-.586A.182.182,0,0,0,31.089,7,1.676,1.676,0,0,0,32.988,6.075Z"/>
            <path class="cls-31" d="M29.646,6.138a.384.384,0,0,1-.171-.2l-.114-.283-.3.019a.608.608,0,0,1-.332-.068.639.639,0,0,1-.319-.733l.071-.25-.192-.175a.44.44,0,0,1-.153-.491.506.506,0,0,1,.674-.091,1.011,1.011,0,0,1,.087.058l.4.286.243-.467a.524.524,0,0,1,.692-.218.515.515,0,0,1,.266.516l-.057.527.528-.06a.427.427,0,0,1,.248.04.591.591,0,0,1,.157.811.621.621,0,0,1-.68.363l-.354-.1-.158.351A.407.407,0,0,1,29.646,6.138Z"/>
          </g>
          <g>
            <path class="cls-32" d="M19.96,5.173a2.016,2.016,0,0,0-1.932-2.085,1.711,1.711,0,0,0-.942.33,1.867,1.867,0,0,0-1.767-1.15A1.891,1.891,0,0,0,13.5,4.232c0,.009,0,.017.005.027a2,2,0,0,0-.33-.018,1.814,1.814,0,0,0-1.91,1.681,1.687,1.687,0,0,0,1.395,1.5,2.1,2.1,0,0,0,3.19,1.28,1.578,1.578,0,0,0,1.043.36,1.647,1.647,0,0,0,1.582-1.711.228.228,0,0,0-.006-.039A2.072,2.072,0,0,0,19.96,5.173Z"/>
            <path class="cls-33" d="M16.392,7.253a.48.48,0,0,1-.306-.107l-.292-.237-.317.2a.771.771,0,0,1-.4.128.79.79,0,0,1-.785-.6l-.075-.311-.311-.076a.542.542,0,0,1-.462-.436c-.007-.263.3-.494.673-.5a.9.9,0,0,1,.128.007l.6.069-.017-.65a.649.649,0,0,1,.617-.651.634.634,0,0,1,.6.395l.257.6.533-.382a.523.523,0,0,1,.293-.107.733.733,0,0,1,.657.781.77.77,0,0,1-.517.8l-.443.1.038.474A.5.5,0,0,1,16.392,7.253Z"/>
          </g>
          <g>
            <path class="cls-34" d="M17.618,18.054a1.861,1.861,0,0,0-.183-1.714.8.8,0,0,0,.186-.249A1.12,1.12,0,0,0,16.9,14.7a1.363,1.363,0,0,0-.319-.078A2.38,2.38,0,0,0,15.2,12.161a2.443,2.443,0,0,0-3.144,1.354,2.178,2.178,0,0,0-2.758.961,2.237,2.237,0,0,0,1.455,2.775c.013.006.026.007.039.014a2.571,2.571,0,0,0,4.67,1.876A2.005,2.005,0,0,0,17.618,18.054Z"/>
            <path class="cls-35" d="M13.022,18.126a.873.873,0,0,1-.56-.957l.186-.8-.829-.352c-.4-.186-.6-.548-.519-.749.077-.179.44-.289.837-.16l.843.272.359-.809a.831.831,0,0,1,1.046-.5.783.783,0,0,1,.429.822l-.088.906.688.123-.166.181.346.677a.439.439,0,0,1,.067.368.54.54,0,0,1-.574.212l-.645-.08-.327.559A.857.857,0,0,1,13.022,18.126Z"/>
          </g>
          <g>
            <path class="cls-36" d="M27.242,8.453a1.737,1.737,0,0,0-.172-1.606.8.8,0,0,0,.175-.234,1.049,1.049,0,0,0-.681-1.3,1.2,1.2,0,0,0-.3-.074,2.234,2.234,0,0,0-1.3-2.309A2.292,2.292,0,0,0,22.02,4.2a2.04,2.04,0,0,0-2.585.9A2.1,2.1,0,0,0,20.8,7.7l.036.012a2.412,2.412,0,0,0,4.38,1.76A1.881,1.881,0,0,0,27.242,8.453Z"/>
            <path class="cls-37" d="M22.931,8.522a.822.822,0,0,1-.525-.9l.175-.754-.777-.33c-.372-.175-.567-.514-.487-.7.072-.168.412-.27.785-.149l.79.255.337-.758a.78.78,0,0,1,.981-.467.734.734,0,0,1,.4.771l-.083.849.645.115-.155.171.326.636a.415.415,0,0,1,.062.344.509.509,0,0,1-.538.2l-.605-.076-.308.525A.806.806,0,0,1,22.931,8.522Z"/>
          </g>
          <g>
            <path class="cls-38" d="M23.12,9.3a1.624,1.624,0,0,0,.059-.419,2.011,2.011,0,0,0-2.132-1.859,2.327,2.327,0,0,0-1.254.363,2.268,2.268,0,0,0-1.861-.908,2.062,2.062,0,0,0-2.177,1.8,2.433,2.433,0,0,0-.884-.165,2.217,2.217,0,0,0-2.295,2.132,2.217,2.217,0,0,0,2.3,2.131,2.439,2.439,0,0,0,.961-.2,2.359,2.359,0,0,0-.087.61A2.6,2.6,0,0,0,18.4,15.334a2.66,2.66,0,0,0,2.337-1.364,2.852,2.852,0,0,0,.916.161,2.678,2.678,0,0,0,2.731-2.623A2.593,2.593,0,0,0,23.12,9.3Z"/>
            <path class="cls-39" d="M18.429,12.886a.88.88,0,0,1-.91-.845.736.736,0,0,1,.03-.2l.351-1.353-1.283.552a.782.782,0,0,1-.308.065.654.654,0,0,1-.7-.6.655.655,0,0,1,.7-.6.759.759,0,0,1,.284.054l.883.342.047-.946a.579.579,0,0,1,.626-.436.692.692,0,0,1,.563.258l.376.531.55-.351a.712.712,0,0,1,.385-.109c.323,0,.6.2.6.434a.255.255,0,0,1-.013.076l-.129.491.432.266a.88.88,0,0,1,.434.745.929.929,0,0,1-.96.893.994.994,0,0,1-.327-.059l-.546-.189-.277.5A.914.914,0,0,1,18.429,12.886Z"/>
          </g>
          <g>
            <path class="cls-40" d="M24.183,16.02a2.046,2.046,0,0,0-1.9-2.168,1.722,1.722,0,0,0-.965.309,1.9,1.9,0,0,0-1.759-1.217,1.92,1.92,0,0,0-1.9,1.94c0,.009,0,.018,0,.028a2.411,2.411,0,0,0-.332-.028,1.839,1.839,0,0,0-1.982,1.65A1.71,1.71,0,0,0,16.718,18.1a2.147,2.147,0,0,0,2.1,1.7,2.111,2.111,0,0,0,1.1-.312,1.614,1.614,0,0,0,1.049.394,1.672,1.672,0,0,0,1.65-1.692c0-.013,0-.025,0-.037A2.1,2.1,0,0,0,24.183,16.02Z"/>
            <path class="cls-41" d="M20.507,18.027a.476.476,0,0,1-.3-.118l-.29-.247-.327.2a.776.776,0,0,1-.408.118.8.8,0,0,1-.779-.63l-.068-.319-.311-.085c-.27-.073-.458-.26-.458-.455,0-.265.32-.49.7-.49a.9.9,0,0,1,.13.012l.607.087v-.659a.658.658,0,0,1,.644-.642.641.641,0,0,1,.594.418l.244.618.55-.373a.537.537,0,0,1,.3-.1.743.743,0,0,1,.645.81.78.78,0,0,1-.547.8l-.451.09.026.481A.5.5,0,0,1,20.507,18.027Z"/>
          </g>
          <g>
            <path class="cls-42" d="M38.357,6.7A1.732,1.732,0,0,0,36.75,4.868a1.457,1.457,0,0,0-.817.262,1.606,1.606,0,0,0-1.49-1.03,1.625,1.625,0,0,0-1.607,1.641c0,.009,0,.017,0,.025a1.86,1.86,0,0,0-.282-.025,1.557,1.557,0,0,0-1.677,1.4,1.444,1.444,0,0,0,1.159,1.322A1.816,1.816,0,0,0,33.815,9.9a1.788,1.788,0,0,0,.929-.264,1.37,1.37,0,0,0,.888.334,1.416,1.416,0,0,0,1.4-1.434c0-.011,0-.02,0-.031A1.778,1.778,0,0,0,38.357,6.7Z"/>
            <path class="cls-43" d="M35.246,8.4a.408.408,0,0,1-.259-.1l-.245-.209-.275.166a.671.671,0,0,1-1.006-.435L33.4,7.556l-.264-.072c-.227-.062-.386-.22-.386-.384,0-.226.27-.416.589-.416a1,1,0,0,1,.11.009l.514.075V6.21a.556.556,0,0,1,.545-.543.543.543,0,0,1,.5.353l.206.522.465-.314a.46.46,0,0,1,.255-.085.628.628,0,0,1,.544.686.663.663,0,0,1-.461.675l-.383.076.021.406A.427.427,0,0,1,35.246,8.4Z"/>
          </g>
          <g>
            <path class="cls-44" d="M15.281,12.024a2.216,2.216,0,0,0-1.115-2.916,1.848,1.848,0,0,0-1.1-.048,2.055,2.055,0,0,0-1.33-1.9,2.082,2.082,0,0,0-2.66,1.258.264.264,0,0,1-.007.03,2.744,2.744,0,0,0-.328-.154,1.992,1.992,0,0,0-2.634.933,1.852,1.852,0,0,0,.8,2.1,2.328,2.328,0,0,0,1.495,2.516,2.292,2.292,0,0,0,1.233.1,1.751,1.751,0,0,0,.917.794,1.812,1.812,0,0,0,2.315-1.1c0-.013.005-.027.009-.04A2.278,2.278,0,0,0,15.281,12.024Z"/>
            <path class="cls-45" d="M10.791,12.684a.519.519,0,0,1-.266-.235l-.2-.36-.4.077a.845.845,0,0,1-.459-.034A.871.871,0,0,1,8.9,11.2l.051-.348-.285-.2a.591.591,0,0,1-.293-.634c.1-.272.508-.379.891-.238a.949.949,0,0,1,.128.062l.584.315.248-.668a.712.712,0,0,1,.9-.412.7.7,0,0,1,.447.648l.014.72.7-.171a.568.568,0,0,1,.343.009.805.805,0,0,1,.35,1.067.849.849,0,0,1-.856.605l-.493-.078-.154.5A.545.545,0,0,1,10.791,12.684Z"/>
          </g>
          <g>
            <path class="cls-46" d="M31.646,15.106a2.215,2.215,0,0,0-1.115-2.916,1.84,1.84,0,0,0-1.1-.047,2.056,2.056,0,0,0-1.329-1.9,2.082,2.082,0,0,0-2.66,1.259c0,.01,0,.02-.009.029a2.673,2.673,0,0,0-.328-.154,1.993,1.993,0,0,0-2.634.934,1.851,1.851,0,0,0,.8,2.1,2.325,2.325,0,0,0,1.5,2.515,2.282,2.282,0,0,0,1.233.1,1.741,1.741,0,0,0,.917.793,1.808,1.808,0,0,0,2.313-1.1c.006-.013.006-.027.011-.04A2.278,2.278,0,0,0,31.646,15.106Z"/>
            <path class="cls-47" d="M27.156,15.767a.529.529,0,0,1-.266-.236l-.2-.36-.406.077a.852.852,0,0,1-.458-.033.872.872,0,0,1-.555-.936l.05-.347-.285-.2a.6.6,0,0,1-.293-.635c.1-.271.509-.38.892-.237a1.076,1.076,0,0,1,.128.061l.584.315.247-.668a.714.714,0,0,1,.9-.412.7.7,0,0,1,.447.649l.014.72.7-.171a.569.569,0,0,1,.341.008.8.8,0,0,1,.351,1.068.847.847,0,0,1-.855.6l-.492-.078-.155.5A.548.548,0,0,1,27.156,15.767Z"/>
          </g>
          <g>
            <path class="cls-48" d="M29.027,18.429a1.532,1.532,0,0,0-.691-1.241.684.684,0,0,0,.06-.248.922.922,0,0,0-1-.821,1.155,1.155,0,0,0-.267.044,1.961,1.961,0,0,0-1.842-1.42,2.013,2.013,0,0,0-1.946,2.041,1.794,1.794,0,0,0-1.78,1.618,1.844,1.844,0,0,0,2,1.635c.012,0,.023,0,.035,0a2.118,2.118,0,0,0,4.145-.084A1.65,1.65,0,0,0,29.027,18.429Z"/>
            <path class="cls-49" d="M25.567,19.967a.72.72,0,0,1-.733-.546l-.119-.67-.743,0c-.359-.014-.634-.222-.634-.4,0-.162.239-.362.583-.393l.727-.064.011-.73a.685.685,0,0,1,.632-.715.648.648,0,0,1,.59.485l.227.716.561-.129-.068.19.482.4a.354.354,0,0,1,.169.255c0,.143-.154.289-.367.348l-.513.146-.067.532A.713.713,0,0,1,25.567,19.967Z"/>
          </g>
          <g>
            <path class="cls-50" d="M30.09,8.825a1.678,1.678,0,0,0-.758-1.359.754.754,0,0,0,.066-.273,1.012,1.012,0,0,0-1.095-.9,1.151,1.151,0,0,0-.291.049,2.151,2.151,0,0,0-2.019-1.557A2.2,2.2,0,0,0,23.86,7.023,1.965,1.965,0,0,0,21.908,8.8a2.022,2.022,0,0,0,2.19,1.791l.038,0a2.321,2.321,0,0,0,4.542-.094A1.808,1.808,0,0,0,30.09,8.825Z"/>
            <path class="cls-51" d="M26.3,10.512a.789.789,0,0,1-.8-.6l-.13-.733-.815,0c-.393-.015-.694-.242-.694-.44,0-.176.261-.4.638-.429l.8-.072.011-.8A.752.752,0,0,1,26,6.658a.708.708,0,0,1,.647.532l.249.785.614-.142-.074.208.528.441a.392.392,0,0,1,.185.281c0,.155-.169.316-.4.381l-.563.16-.073.581A.781.781,0,0,1,26.3,10.512Z"/>
          </g>
          <g>
            <path class="cls-52" d="M12.576,16.963a2.383,2.383,0,0,0-2.44-2.127l0-.016A2.8,2.8,0,0,0,7.3,12.063,2.8,2.8,0,0,0,4.452,14.82a2.063,2.063,0,0,0,.023.211,4.18,4.18,0,0,0-.564-.044c-1.795,0-3.25,1.16-3.25,2.59s1.455,2.59,3.25,2.59a3.941,3.941,0,0,0,1.206-.189,2.588,2.588,0,0,0,2.437,1.839,2.648,2.648,0,0,0,2.584-2.71l0-.015A2.385,2.385,0,0,0,12.576,16.963Z"/>
            <path class="cls-53" d="M7.21,19.134a.753.753,0,0,1-.7-.548l-.272-.841-.844.268a1.606,1.606,0,0,1-.493.077c-.686,0-1.165-.394-1.165-.747S4.22,16.6,4.906,16.6a1.786,1.786,0,0,1,.233.019l1.1.157-.093-1.138-.011-.078a.914.914,0,0,1,1.816,0v.886l.836.052c.416.026.707.262.707.457s-.291.431-.707.456l-.836.053v.9A.783.783,0,0,1,7.21,19.134Z"/>
          </g>
          <polygon class="cls-54" points="44.643 21.012 37.523 21.012 30.401 21.012 26.84 21.012 23.28 21.012 16.16 21.012 9.039 21.012 1.918 21.012 9.201 62.039 14.242 62.039 19.281 62.039 24.322 62.039 26.84 62.039 29.361 62.039 34.4 62.039 39.44 62.039 44.48 62.039 51.766 21.012 44.643 21.012"/>
          <g>
            <polygon class="cls-55" points="33.371 21.012 30.901 62.039 34.357 62.039 36.827 21.012 33.371 21.012"/>
            <polygon class="cls-56" points="44.643 21.012 41.621 21.012 36.662 62.039 39.44 62.039 40.133 62.039 45.092 21.012 44.643 21.012"/>
            <polygon class="cls-57" points="51.766 21.012 49.867 21.012 42.396 62.039 44.48 62.039 51.766 21.012"/>
            <polygon class="cls-58" points="26.84 21.012 25.115 21.012 25.115 62.039 26.84 62.039 28.566 62.039 28.566 21.012 26.84 21.012"/>
            <polygon class="cls-59" points="16.855 21.012 19.324 62.039 22.781 62.039 20.311 21.012 16.855 21.012"/>
            <polygon class="cls-60" points="9.039 21.012 8.59 21.012 13.549 62.039 14.242 62.039 17.02 62.039 12.06 21.012 9.039 21.012"/>
            <polygon class="cls-61" points="1.918 21.012 9.201 62.039 11.286 62.039 3.815 21.012 1.918 21.012"/>
          </g>
          <polygon class="cls-62" points="37.523 21.012 30.401 21.012 26.84 21.012 23.28 21.012 16.16 21.012 9.039 21.012 1.918 21.012 2.141 22.438 51.543 22.438 51.766 21.012 44.643 21.012 37.523 21.012"/>
          <polygon class="cls-62" points="40.063 60.025 34.775 60.025 29.486 60.025 26.84 60.025 24.197 60.025 18.907 60.025 13.618 60.025 8.888 60.025 9.201 62.039 14.242 62.039 19.281 62.039 24.322 62.039 26.84 62.039 29.361 62.039 34.4 62.039 39.44 62.039 44.48 62.039 44.795 60.025 40.063 60.025"/>
          <path class="cls-63" d="M46.031,63.2c0,.865-.464,1.566-1.035,1.566H8.687c-.572,0-1.036-.7-1.036-1.566h0c0-.863.464-1.563,1.036-1.563H45c.571,0,1.035.7,1.035,1.563Z"/>
          <path class="cls-64" d="M53.682,20.412c0,.789-.464,1.428-1.036,1.428H1.035C.464,21.84,0,21.2,0,20.412H0c0-.787.464-1.426,1.035-1.426H52.646c.572,0,1.036.639,1.036,1.426Z"/>
          <path class="cls-65" d="M8.687,62.393H45c.484,0,.889.506,1,1.186a2.184,2.184,0,0,0,.034-.377c0-.863-.464-1.563-1.035-1.563H8.687c-.572,0-1.036.7-1.036,1.563a2.288,2.288,0,0,0,.034.377C7.8,62.9,8.2,62.393,8.687,62.393Z"/>
          <path class="cls-66" d="M1.035,19.74H52.646c.475,0,.859.449.981,1.05a1.852,1.852,0,0,0,.055-.378c0-.787-.464-1.426-1.036-1.426H1.035C.464,18.986,0,19.625,0,20.412a1.786,1.786,0,0,0,.056.378C.178,20.189.56,19.74,1.035,19.74Z"/>
          <path class="cls-67" d="M45,63.959H8.687c-.479,0-.877-.494-1-1.161a2.222,2.222,0,0,0-.04.4c0,.865.464,1.566,1.036,1.566H45c.571,0,1.035-.7,1.035-1.566a2.223,2.223,0,0,0-.039-.4C45.872,63.465,45.473,63.959,45,63.959Z"/>
          <path class="cls-67" d="M52.646,21.031H1.035c-.468,0-.847-.435-.975-1.023a1.791,1.791,0,0,0-.06.4C0,21.2.464,21.84,1.035,21.84H52.646c.572,0,1.036-.639,1.036-1.428a1.791,1.791,0,0,0-.06-.4C53.494,20.6,53.113,21.031,52.646,21.031Z"/>
          <g>
            <path class="cls-68" d="M33.744,11.813a1.847,1.847,0,0,0-.172-2.6,1.564,1.564,0,0,0-.86-.308,1.713,1.713,0,0,0-.592-1.837,1.731,1.731,0,0,0-2.425.348c0,.007-.007.015-.013.02a2.171,2.171,0,0,0-.223-.2,1.658,1.658,0,0,0-2.325.095,1.541,1.541,0,0,0,.122,1.871,1.936,1.936,0,0,0,.571,2.368,1.913,1.913,0,0,0,.958.38,1.459,1.459,0,0,0,.534.858A1.508,1.508,0,0,0,31.43,12.5a.309.309,0,0,0,.017-.029A1.9,1.9,0,0,0,33.744,11.813Z"/>
            <path class="cls-69" d="M30.01,11.234a.424.424,0,0,1-.155-.252l-.073-.335-.342-.04a.707.707,0,0,1-.356-.139.726.726,0,0,1-.213-.88L29,9.324l-.177-.233a.5.5,0,0,1-.077-.576.567.567,0,0,1,.768.03.935.935,0,0,1,.086.08l.387.4.362-.472a.593.593,0,0,1,.813-.108.577.577,0,0,1,.2.625l-.166.577.6.037a.476.476,0,0,1,.269.091.671.671,0,0,1,.017.935.7.7,0,0,1-.829.271l-.373-.184-.246.359A.454.454,0,0,1,30.01,11.234Z"/>
          </g>
        </g>
      </g>
    </g>
  </g>
</svg>
