<svg xmlns="http://www.w3.org/2000/svg" xmlns:xlink="http://www.w3.org/1999/xlink" viewBox="0 0 45.139 71.868">
  <defs>
    <style>
      .cls-1 {
        isolation: isolate;
      }

      .cls-2 {
        fill: url(#linear-gradient);
      }

      .cls-3 {
        fill: #fadab2;
      }

      .cls-19, .cls-3, .cls-5, .cls-8 {
        mix-blend-mode: multiply;
      }

      .cls-4 {
        fill: url(#linear-gradient-2);
      }

      .cls-5 {
        fill: #ee4230;
      }

      .cls-6 {
        fill: url(#linear-gradient-3);
      }

      .cls-7 {
        fill: #2e4206;
      }

      .cls-13, .cls-7, .cls-9 {
        mix-blend-mode: screen;
      }

      .cls-8 {
        fill: #e2ebd1;
      }

      .cls-9 {
        fill: #8a0707;
      }

      .cls-10 {
        fill: url(#linear-gradient-4);
      }

      .cls-11 {
        fill: url(#linear-gradient-5);
      }

      .cls-12 {
        fill: url(#linear-gradient-6);
      }

      .cls-14 {
        fill: #87552e;
      }

      .cls-15 {
        fill: url(#linear-gradient-7);
      }

      .cls-16 {
        fill: url(#linear-gradient-8);
      }

      .cls-17 {
        fill: url(#linear-gradient-9);
      }

      .cls-18 {
        fill: #451712;
      }

      .cls-19 {
        fill: #d6675c;
      }
    </style>
    <linearGradient id="linear-gradient" x1="22.569" y1="71.868" x2="22.569" y2="15.025" gradientUnits="userSpaceOnUse">
      <stop offset="0" stop-color="#c46d1d"/>
      <stop offset="0.049" stop-color="#c77120"/>
      <stop offset="0.682" stop-color="#ec9f48"/>
      <stop offset="1" stop-color="#fab157"/>
    </linearGradient>
    <linearGradient id="linear-gradient-2" x1="22.987" y1="18.31" x2="22.987" y2="3.176" gradientUnits="userSpaceOnUse">
      <stop offset="0" stop-color="#a80909"/>
      <stop offset="0.861" stop-color="#e63b2b"/>
      <stop offset="1" stop-color="#f04431"/>
    </linearGradient>
    <linearGradient id="linear-gradient-3" x1="22.569" y1="57.349" x2="22.569" y2="30.65" gradientUnits="userSpaceOnUse">
      <stop offset="0" stop-color="#51740c"/>
      <stop offset="0.193" stop-color="#5b7f13"/>
      <stop offset="0.533" stop-color="#759d27"/>
      <stop offset="0.977" stop-color="#a0cc46"/>
      <stop offset="1" stop-color="#a2cf48"/>
    </linearGradient>
    <linearGradient id="linear-gradient-4" x1="22.987" y1="6.351" x2="22.987" y2="0" xlink:href="#linear-gradient-2"/>
    <linearGradient id="linear-gradient-5" x1="22.989" y1="5.449" x2="22.989" y2="0.904" gradientUnits="userSpaceOnUse">
      <stop offset="0" stop-color="#f04431"/>
      <stop offset="1" stop-color="#cb261c"/>
    </linearGradient>
    <linearGradient id="linear-gradient-6" x1="18.325" y1="49.874" x2="18.325" y2="36.226" xlink:href="#linear-gradient"/>
    <linearGradient id="linear-gradient-7" x1="6.011" y1="54.048" x2="6.011" y2="41.368" gradientTransform="translate(26.496 -1.104) rotate(5.423)" gradientUnits="userSpaceOnUse">
      <stop offset="0" stop-color="#d3680d"/>
      <stop offset="0.117" stop-color="#d97b17"/>
      <stop offset="0.366" stop-color="#e49d28"/>
      <stop offset="0.603" stop-color="#ecb535"/>
      <stop offset="0.821" stop-color="#f1c43c"/>
      <stop offset="1" stop-color="#f3c93f"/>
    </linearGradient>
    <linearGradient id="linear-gradient-8" x1="0.719" y1="50.457" x2="0.719" y2="42.355" gradientTransform="translate(26.496 -1.104) rotate(5.423)" gradientUnits="userSpaceOnUse">
      <stop offset="0" stop-color="#fab157"/>
      <stop offset="0.318" stop-color="#ec9f48"/>
      <stop offset="0.951" stop-color="#c77120"/>
      <stop offset="1" stop-color="#c46d1d"/>
    </linearGradient>
    <linearGradient id="linear-gradient-9" x1="0.773" y1="50.457" x2="0.773" y2="43.536" gradientTransform="translate(26.496 -1.104) rotate(5.423)" gradientUnits="userSpaceOnUse">
      <stop offset="0" stop-color="#330600"/>
      <stop offset="1" stop-color="#6b1c0a"/>
    </linearGradient>
  </defs>
  <title>Asset 7</title>
  <g class="cls-1">
    <g id="Layer_2" data-name="Layer 2">
      <g id="Layer_1-2" data-name="Layer 1">
        <g>
          <path class="cls-2" d="M38.566,15.025h-32S0,19.742,0,24.289V56.627S.166,68.248,8.588,70.271s10.469,1.549,13.98,1.549,5.559.471,13.979-1.549,8.592-13.644,8.592-13.644V24.289C45.139,19.742,38.566,15.025,38.566,15.025Z"/>
          <path class="cls-3" d="M36.547,68.268c-8.42,2.019-10.467,1.548-13.979,1.548s-5.56.471-13.98-1.548S0,54.623,0,54.623v2S.166,68.248,8.588,70.271s10.469,1.549,13.98,1.549,5.559.471,13.979-1.549,8.592-13.644,8.592-13.644v-2S44.969,66.244,36.547,68.268Z"/>
          <path class="cls-3" d="M39.436,17.387a3.793,3.793,0,0,0,1.129-.705,24.394,24.394,0,0,0-2-1.657h-32s-.654.471-1.548,1.254a3.816,3.816,0,0,0,1.519,1.108C9.592,18.58,20.2,19.068,22.988,19.068S36.385,18.58,39.436,17.387Z"/>
          <path class="cls-4" d="M22.988,4.836,4.377,3.176V11.15s.043,4.424,2.947,5.559,13.01,1.6,15.664,1.6,12.758-.464,15.664-1.6S41.6,11.15,41.6,11.15V3.176Z"/>
          <path class="cls-5" d="M38.652,15.91c-2.906,1.137-13.013,1.6-15.664,1.6s-12.759-.465-15.664-1.6-2.947-5.557-2.947-5.557v.8s.043,4.424,2.947,5.559,13.01,1.6,15.664,1.6,12.758-.464,15.664-1.6S41.6,11.15,41.6,11.15v-.8S41.559,14.771,38.652,15.91Z"/>
          <path class="cls-6" d="M45.139,55.1V30.65A93.364,93.364,0,0,1,0,30.65V55.1A114.433,114.433,0,0,0,45.139,55.1Z"/>
          <path class="cls-7" d="M0,30.65v1.127a93.364,93.364,0,0,0,45.139,0V30.65A93.364,93.364,0,0,1,0,30.65Z"/>
          <path class="cls-8" d="M0,53.762V55.1a114.433,114.433,0,0,0,45.139,0V53.762A114.471,114.471,0,0,1,0,53.762Z"/>
          <path class="cls-9" d="M4.377,3.176V4.348c2.516,1.343,9.9,2.318,18.611,2.318s16.1-.975,18.61-2.318V3.176l-18.61,1.66Z"/>
          <path class="cls-10" d="M41.6,3.176C41.6,1.422,33.268,0,22.988,0S4.377,1.422,4.377,3.176s8.334,3.175,18.611,3.175S41.6,4.93,41.6,3.176Z"/>
          <path class="cls-11" d="M39.9,3.176C39.9,1.92,32.328.9,22.988.9S6.08,1.92,6.08,3.176s7.568,2.273,16.908,2.273S39.9,4.43,39.9,3.176Z"/>
          <g>
            <g>
              <path class="cls-12" d="M17.309,39.894c-3.3,2.471-9.016-1.435-12.041,3.893-1.7,2.988,2.254,7.93,8.418,5.379,5.943-2.459,10.591-1.484,14.279-2.918,3.08-1.2,4.92-5.229,3.076-7.943S23.867,34.976,17.309,39.894Z"/>
              <path class="cls-3" d="M27.965,45.857c-3.688,1.436-8.336.461-14.279,2.92-5,2.069-8.545-.8-8.8-3.545-.067,2.858,3.558,6.1,8.8,3.934,5.943-2.459,10.591-1.484,14.279-2.918a6.111,6.111,0,0,0,3.8-5.76A6.149,6.149,0,0,1,27.965,45.857Z"/>
              <g class="cls-13">
                <path class="cls-14" d="M13.572,42a19.863,19.863,0,0,0,2.325-.1,12.389,12.389,0,0,0,4.257-1.959c1.994-1.209,4.053-2.463,6.237-2.41a16.9,16.9,0,0,1,4.97,1.34,4.544,4.544,0,0,0-.261-.459A15.938,15.938,0,0,0,26.4,37.2c-2.267-.041-4.472,1.285-6.414,2.461a12.215,12.215,0,0,1-4.13,1.914,19.1,19.1,0,0,1-2.282.1c-2.859.021-6.7.054-8.683,3.34a3.352,3.352,0,0,0,.011.671C6.69,42.063,10.5,42.023,13.572,42Z"/>
                <path class="cls-14" d="M14.145,43.25c.757-.1,1.472-.2,2.091-.309A14.791,14.791,0,0,0,20.092,41.7a23.311,23.311,0,0,1,6.635-2.256,19.742,19.742,0,0,1,4.875.086c-.034-.117-.073-.232-.116-.347a19.729,19.729,0,0,0-4.806-.065A23.773,23.773,0,0,0,19.949,41.4a14.761,14.761,0,0,1-3.769,1.213c-.614.106-1.326.205-2.082.311-3.385.465-7.5,1.037-9.158,2.988a4.079,4.079,0,0,0,.089.412C6.488,44.309,10.875,43.7,14.145,43.25Z"/>
                <path class="cls-14" d="M20.422,43.209c1.719-.4,10.213-2.908,11.287-3.227-.018-.109-.049-.213-.074-.32-.973.289-9.567,2.826-11.289,3.229-.365.084-1.117.232-2.071.419-3.923.77-11.1,2.178-13.1,3.407.041.1.086.2.137.3,1.883-1.2,9.381-2.67,13.029-3.387C19.3,43.443,20.051,43.3,20.422,43.209Z"/>
                <path class="cls-14" d="M21.574,46.031c-2.345-.183-5.176.824-7.683,1.7-1.057.373-2.053.725-2.909.948-2.25.591-4.406-.75-5.138-1.276.058,0,.113.008.166.01.512.031,1.137.068,1.808.068a11.843,11.843,0,0,0,2.856-.306c.851-.219,1.781-.473,2.732-.735a42.435,42.435,0,0,1,7.422-1.625l.2-.015.106-.01c2.428-.164,8.951-2.277,10.631-4.307A4.081,4.081,0,0,0,31.709,40c-1.031,1.867-7.92,4.283-10.6,4.467L21,44.478c-.058,0-.119.01-.181.012a42.343,42.343,0,0,0-7.5,1.641c-.951.258-1.875.513-2.726.728a15.238,15.238,0,0,1-4.565.233c-.279-.016-.507-.029-.7-.037.047.093.1.185.153.275.013.021.021.041.035.063.084.13.179.257.277.386A7.409,7.409,0,0,0,9.8,49.162,5.022,5.022,0,0,0,11.066,49c.868-.229,1.872-.58,2.932-.955,2.479-.873,5.3-1.862,7.551-1.688,3.086.244,7.807-1.328,10.058-4.33a4.942,4.942,0,0,0,.145-.83C29.887,44.269,25.09,46.3,21.574,46.031Z"/>
              </g>
            </g>
            <path class="cls-3" d="M28.709,45.883c.061-.035.117-.07.176-.106a5.928,5.928,0,0,0,.67-.48l.013-.01a6.147,6.147,0,0,0,.582-.57l.131-.145a6.419,6.419,0,0,0,.5-.662l0,0a6.429,6.429,0,0,0,.4-.726c.014-.03.03-.061.043-.094-2.093.014-3.209-1.867-5.724-2.852-2.725-1.064-8.182-.619-9.994,3.492a5.774,5.774,0,0,0-.446,1.708c0-.053-.005-.108,0-.159-.013.1-.007.192-.015.288-.012.148-.024.3-.026.445,0,.09,0,.18,0,.269l0,.01c0,.107.027.209.037.314.013.122.025.243.045.36.007.037.007.074.015.111v0c.028.149.074.289.115.434.034.117.057.238.1.353l0,0a.911.911,0,0,0,.035.086c.01.033.022.065.033.1a.155.155,0,0,1,.014.029l.1.237a.207.207,0,0,1,.008-.02l0,.008-.012.012c.023.056.053.115.082.171,5.041-1.582,9.088-.957,12.375-2.232A5.827,5.827,0,0,0,28.709,45.883Z"/>
            <g>
              <path class="cls-15" d="M16.217,44.035c-2.406,5.453,4.533,10.9,11.252,8.072,4.562-1.916,6.676-.955,9.217-1.033,3.1-.1,5.05-5.008,2.324-7.226-1.9-1.541-4.623-.83-7.006-.469s-3.438-1.7-6.082-2.733S17.979,40.047,16.217,44.035Z"/>
              <g class="cls-13">
                <path class="cls-14" d="M40.287,46.34c0,.035.008.068.01.1.074-.027.127-.054.193-.082C40.424,46.353,40.359,46.348,40.287,46.34Z"/>
                <path class="cls-14" d="M32.645,49.768a15.222,15.222,0,0,0-2.01-.26,9.6,9.6,0,0,0-3.77,1.025,10.983,10.983,0,0,1-5.271,1.2.374.374,0,0,1-.049,0,14.966,14.966,0,0,1-4.277-1.613,7.1,7.1,0,0,0,.726.713,12.445,12.445,0,0,0,3.52,1.211l.049.006a11.415,11.415,0,0,0,5.421-1.227,9.439,9.439,0,0,1,3.643-1.006,15.434,15.434,0,0,1,1.965.26c2.088.356,4.779.809,6.926-.769a5.217,5.217,0,0,0,.38-.731C37.8,50.643,34.977,50.166,32.645,49.768Z"/>
                <path class="cls-14" d="M20.951,50.463A19.382,19.382,0,0,0,27.1,49.35a12.1,12.1,0,0,1,3.418-.559c.539,0,1.166.014,1.83.029,2.558.073,5.888.162,7.806-1,.037-.146.063-.293.088-.439-1.769,1.289-5.244,1.2-7.887,1.125-.666-.02-1.3-.035-1.841-.03A12.277,12.277,0,0,0,27,49.055a19.128,19.128,0,0,1-6.047,1.095,16.122,16.122,0,0,1-4.332-.89c.09.144.19.287.293.428a17.16,17.16,0,0,0,3.355.736C20.5,50.443,20.729,50.459,20.951,50.463Z"/>
                <path class="cls-14" d="M28.83,47.51c-.846.031-1.517.053-1.848.076-1.636.121-10.451,1.357-10.541,1.371l.184.3c.084-.012,8.754-1.244,10.379-1.362.324-.025.994-.048,1.838-.076,3.305-.113,9.207-.316,11.455-1.056a2.936,2.936,0,0,0,0-.325C38.186,47.189,31.936,47.4,28.83,47.51Z"/>
                <path class="cls-14" d="M26.563,46.3l.044.006.116.007c.047,0,.1.008.146.016a53.18,53.18,0,0,0,9.2-.2,17.669,17.669,0,0,1,3.742.154c.183.022.334.039.48.055-.01-.092-.021-.188-.035-.281a.719.719,0,0,0-.068-.041l-.34-.043a18.137,18.137,0,0,0-3.813-.155,52.635,52.635,0,0,1-9.123.2c-.056-.008-.109-.012-.16-.016l-.105-.01-.039,0c-2.254-.213-8.758.819-10.395,2.5.043.1.1.2.147.3C17.629,47.219,24.1,46.063,26.563,46.3Z"/>
                <path class="cls-14" d="M25.57,43.965a16.626,16.626,0,0,0,8.807,1.076c.553-.057,1.078-.111,1.6-.133a7.594,7.594,0,0,1,4.209,1.11c.023,0,.041.005.064.005a2.886,2.886,0,0,0-.092-.386A7.831,7.831,0,0,0,35.961,44.6c-.531.023-1.061.076-1.619.136a16.379,16.379,0,0,1-8.662-1.06c-4.811-1.834-8.115,1.035-9.643,4.377.024.07.053.139.08.207l.092.23C17.648,45.215,20.9,42.185,25.57,43.965Z"/>
                <path class="cls-14" d="M40.184,46.018a.719.719,0,0,1,.068.041.117.117,0,0,1,0-.036C40.225,46.023,40.207,46.018,40.184,46.018Z"/>
                <path class="cls-14" d="M20.082,42.111a8.4,8.4,0,0,1,7.18.729,7.562,7.562,0,0,0,6.422,1A9.344,9.344,0,0,1,36,43.574c.076,0,.154.01.227.018a6.638,6.638,0,0,1,3.906,1.963,3.539,3.539,0,0,0-.281-.688,6.6,6.6,0,0,0-3.586-1.586c-.082-.008-.164-.013-.248-.017a9.516,9.516,0,0,0-2.4.273,7.237,7.237,0,0,1-6.193-.959,8.728,8.728,0,0,0-7.465-.756,7.42,7.42,0,0,0-4.229,4.7,5.847,5.847,0,0,0,.1.76A7.355,7.355,0,0,1,20.082,42.111Z"/>
              </g>
              <path class="cls-16" d="M17.1,46.961c.609,1.242,4.293,2.951,6.886,1.762s.635-2.547,2.276-2.655,2.648.315,2.539-.609.437-2.465-1.395-3.2c-1.382-.557-4.078-1.793-7.158-.68C17.633,42.521,16.059,44.838,17.1,46.961Z"/>
              <path class="cls-17" d="M16.824,46.06a2.921,2.921,0,0,0,.274.9c.609,1.242,4.293,2.951,6.886,1.762s.635-2.547,2.276-2.655,2.648.315,2.539-.609a11.411,11.411,0,0,0-.094-1.832,10.587,10.587,0,0,0-3.982-1.168C20.887,42.1,17.545,43.674,16.824,46.06Z"/>
              <g class="cls-13">
                <path class="cls-18" d="M24.691,42.8a10.582,10.582,0,0,1,3.981,1.164,10.261,10.261,0,0,1,.094,1.822.641.641,0,0,0,.033-.322,11.411,11.411,0,0,0-.094-1.832,10.587,10.587,0,0,0-3.982-1.168c-3.836-.363-7.178,1.215-7.9,3.6.006.051.024.106.033.159C17.69,43.932,20.951,42.438,24.691,42.8Z"/>
                <path class="cls-18" d="M25.457,47.188a2.539,2.539,0,0,0,.027-.3A2.892,2.892,0,0,0,25.457,47.188Z"/>
              </g>
              <path class="cls-19" d="M28.8,45.459c-.047-.4.021-.92-.033-1.44.009.4-.02.782.013,1.094.108.924-.9.5-2.539.61s.319,1.466-2.277,2.656-6.277-.522-6.887-1.762a3.135,3.135,0,0,1-.219-.648c-.009.029-.025.06-.033.091a2.921,2.921,0,0,0,.274.9c.609,1.242,4.293,2.951,6.886,1.762s.635-2.547,2.276-2.655S28.908,46.383,28.8,45.459Z"/>
              <path class="cls-3" d="M36.723,50.7c-2.543.082-4.658-.881-9.219,1.037-5.941,2.5-12.051-1.472-11.719-6.195-.691,4.885,5.586,9.131,11.684,6.566,4.562-1.916,6.676-.955,9.217-1.033,1.988-.062,3.5-2.115,3.609-4.158C40.035,48.83,38.592,50.643,36.723,50.7Z"/>
            </g>
          </g>
          <g>
            <path class="cls-5" d="M23.467,11.99c0,2.279-.152,4.127-.34,4.127s-.338-1.848-.338-4.127.154-4.125.338-4.125S23.467,9.713,23.467,11.99Z"/>
            <path class="cls-5" d="M26.268,11.85c0,2.24-.151,4.054-.334,4.054S25.6,14.09,25.6,11.85s.148-4.057.332-4.057S26.268,9.609,26.268,11.85Z"/>
            <path class="cls-5" d="M29.059,11.666c0,2.2-.149,3.984-.33,3.984s-.327-1.783-.327-3.984.149-3.981.327-3.981S29.059,9.467,29.059,11.666Z"/>
            <path class="cls-5" d="M31.846,11.482c0,2.164-.145,3.916-.323,3.916s-.32-1.752-.32-3.916.145-3.912.32-3.912S31.846,9.322,31.846,11.482Z"/>
            <path class="cls-5" d="M34.637,11.185c0,2.124-.145,3.844-.317,3.844S34,13.309,34,11.185s.144-3.841.316-3.841S34.637,9.064,34.637,11.185Z"/>
            <path class="cls-5" d="M37.426,10.779c0,2.084-.141,3.77-.313,3.77a11.831,11.831,0,0,1-.31-3.77,11.858,11.858,0,0,1,.31-3.773C37.285,7.006,37.426,8.7,37.426,10.779Z"/>
            <path class="cls-5" d="M40.2,9.943a11.528,11.528,0,0,1-.3,3.7,11.545,11.545,0,0,1-.3-3.7,11.546,11.546,0,0,1,.3-3.7A11.529,11.529,0,0,1,40.2,9.943Z"/>
          </g>
          <g>
            <path class="cls-5" d="M19.984,11.85c0,2.24.151,4.054.336,4.054s.33-1.814.33-4.054-.15-4.057-.33-4.057S19.984,9.609,19.984,11.85Z"/>
            <path class="cls-5" d="M17.2,11.666c0,2.2.149,3.984.328,3.984s.329-1.783.329-3.984-.149-3.981-.329-3.981S17.2,9.467,17.2,11.666Z"/>
            <path class="cls-5" d="M14.406,11.482c0,2.164.147,3.916.325,3.916s.32-1.752.32-3.916-.145-3.912-.32-3.912S14.406,9.322,14.406,11.482Z"/>
            <path class="cls-5" d="M11.617,11.185c0,2.124.143,3.844.317,3.844s.314-1.72.314-3.844-.142-3.841-.314-3.841S11.617,9.064,11.617,11.185Z"/>
            <path class="cls-5" d="M8.828,10.779c0,2.084.141,3.77.311,3.77s.308-1.686.308-3.77-.138-3.773-.308-3.773S8.828,8.7,8.828,10.779Z"/>
            <path class="cls-5" d="M6.051,9.943a11.494,11.494,0,0,0,.3,3.7,11.615,11.615,0,0,0,.3-3.7,11.616,11.616,0,0,0-.3-3.7A11.5,11.5,0,0,0,6.051,9.943Z"/>
          </g>
        </g>
      </g>
    </g>
  </g>
</svg>
