<svg xmlns="http://www.w3.org/2000/svg" xmlns:xlink="http://www.w3.org/1999/xlink" viewBox="0 0 64.81 75.526">
  <defs>
    <style>
      .cls-1 {
        isolation: isolate;
      }

      .cls-2 {
        fill: url(#linear-gradient);
      }

      .cls-3 {
        fill: url(#linear-gradient-2);
      }

      .cls-4 {
        fill: #5c2d1e;
      }

      .cls-5 {
        fill: url(#linear-gradient-3);
      }

      .cls-6 {
        fill: #fadab2;
      }

      .cls-23, .cls-6 {
        mix-blend-mode: multiply;
      }

      .cls-7 {
        fill: url(#linear-gradient-4);
      }

      .cls-8 {
        fill: url(#linear-gradient-5);
      }

      .cls-9 {
        fill: url(#linear-gradient-6);
      }

      .cls-10 {
        fill: #fdf3c8;
      }

      .cls-11 {
        fill: #ad020d;
      }

      .cls-12 {
        fill: url(#linear-gradient-7);
      }

      .cls-13 {
        fill: url(#linear-gradient-8);
      }

      .cls-14 {
        fill: url(#linear-gradient-9);
      }

      .cls-15 {
        fill: url(#linear-gradient-10);
      }

      .cls-16 {
        fill: url(#linear-gradient-11);
      }

      .cls-17 {
        fill: url(#linear-gradient-12);
      }

      .cls-18 {
        fill: url(#linear-gradient-13);
      }

      .cls-19 {
        fill: url(#linear-gradient-14);
      }

      .cls-20 {
        fill: url(#linear-gradient-15);
      }

      .cls-21 {
        fill: url(#linear-gradient-16);
      }

      .cls-22 {
        fill: url(#linear-gradient-17);
      }

      .cls-23 {
        fill: #ee4230;
      }

      .cls-24 {
        fill: #ff5f1a;
      }

      .cls-25 {
        fill: url(#linear-gradient-18);
      }

      .cls-26 {
        fill: url(#linear-gradient-19);
      }

      .cls-27 {
        fill: url(#linear-gradient-20);
      }

      .cls-28 {
        fill: url(#linear-gradient-21);
      }

      .cls-29 {
        fill: url(#linear-gradient-22);
      }

      .cls-30 {
        fill: url(#linear-gradient-23);
      }

      .cls-31 {
        fill: url(#linear-gradient-24);
      }

      .cls-32 {
        fill: url(#linear-gradient-25);
      }

      .cls-33 {
        fill: url(#linear-gradient-26);
      }

      .cls-34 {
        fill: url(#linear-gradient-27);
      }

      .cls-35 {
        fill: url(#linear-gradient-28);
      }

      .cls-36 {
        fill: url(#linear-gradient-29);
      }

      .cls-37 {
        fill: url(#linear-gradient-30);
      }

      .cls-38 {
        fill: url(#linear-gradient-31);
      }

      .cls-39 {
        fill: url(#linear-gradient-32);
      }
    </style>
    <linearGradient id="linear-gradient" x1="17.182" y1="40.233" x2="17.182" gradientUnits="userSpaceOnUse">
      <stop offset="0" stop-color="#db8935"/>
      <stop offset="0.133" stop-color="#e59640"/>
      <stop offset="0.355" stop-color="#f1a54d"/>
      <stop offset="0.614" stop-color="#f8ae55"/>
      <stop offset="1" stop-color="#fab157"/>
    </linearGradient>
    <linearGradient id="linear-gradient-2" x1="18.919" y1="39.241" x2="18.919" y2="3.663" gradientUnits="userSpaceOnUse">
      <stop offset="0.303" stop-color="#ffad4f"/>
      <stop offset="1" stop-color="#faa843"/>
    </linearGradient>
    <linearGradient id="linear-gradient-3" x1="17.564" y1="13.727" x2="17.564" y2="1.838" xlink:href="#linear-gradient"/>
    <linearGradient id="linear-gradient-4" x1="21.748" y1="18.446" x2="21.748" y2="11.45" gradientUnits="userSpaceOnUse">
      <stop offset="0" stop-color="#51740c"/>
      <stop offset="0.193" stop-color="#5b7f13"/>
      <stop offset="0.533" stop-color="#759d27"/>
      <stop offset="0.977" stop-color="#a0cc46"/>
      <stop offset="1" stop-color="#a2cf48"/>
    </linearGradient>
    <linearGradient id="linear-gradient-5" x1="25.041" y1="30.493" x2="25.041" y2="23.497" xlink:href="#linear-gradient-4"/>
    <linearGradient id="linear-gradient-6" x1="16.356" y1="21.263" x2="16.356" y2="13.136" gradientUnits="userSpaceOnUse">
      <stop offset="0" stop-color="#c70000"/>
      <stop offset="0.106" stop-color="#cd0502"/>
      <stop offset="0.665" stop-color="#e61c0b"/>
      <stop offset="1" stop-color="#f0250e"/>
    </linearGradient>
    <linearGradient id="linear-gradient-7" x1="27.935" y1="33.513" x2="27.935" y2="24.802" xlink:href="#linear-gradient-6"/>
    <linearGradient id="linear-gradient-8" x1="11.954" y1="18.296" x2="11.954" y2="13.137" xlink:href="#linear-gradient-4"/>
    <linearGradient id="linear-gradient-9" x1="32.405" y1="75.526" x2="32.405" y2="11.254" gradientUnits="userSpaceOnUse">
      <stop offset="0" stop-color="#c46d1d"/>
      <stop offset="0.049" stop-color="#c77120"/>
      <stop offset="0.682" stop-color="#ec9f48"/>
      <stop offset="1" stop-color="#fab157"/>
    </linearGradient>
    <linearGradient id="linear-gradient-10" x1="32.15" y1="70.335" x2="32.15" y2="15.11" gradientUnits="userSpaceOnUse">
      <stop offset="0" stop-color="#faa843"/>
      <stop offset="0.982" stop-color="#ffad4f"/>
    </linearGradient>
    <linearGradient id="linear-gradient-11" x1="32.055" y1="73.405" x2="32.055" y2="13.774" xlink:href="#linear-gradient-9"/>
    <linearGradient id="linear-gradient-12" x1="25.929" y1="67.973" x2="25.929" y2="61.626" gradientUnits="userSpaceOnUse">
      <stop offset="0" stop-color="#330600"/>
      <stop offset="1" stop-color="#6b1c0a"/>
    </linearGradient>
    <linearGradient id="linear-gradient-13" x1="37.37" y1="25.181" x2="37.37" y2="19.936" xlink:href="#linear-gradient-12"/>
    <linearGradient id="linear-gradient-14" x1="37.174" y1="50.696" x2="37.174" y2="47.264" xlink:href="#linear-gradient-12"/>
    <linearGradient id="linear-gradient-15" x1="42.936" y1="32.342" x2="42.936" y2="26.196" xlink:href="#linear-gradient-4"/>
    <linearGradient id="linear-gradient-16" x1="13.104" y1="57.004" x2="13.104" y2="53.479" xlink:href="#linear-gradient-12"/>
    <linearGradient id="linear-gradient-17" x1="49.726" y1="36.259" x2="49.726" y2="27.897" xlink:href="#linear-gradient-6"/>
    <linearGradient id="linear-gradient-18" x1="59.664" y1="247.468" x2="59.664" y2="239.106" gradientTransform="matrix(0.313, 0.95, -0.95, 0.313, 225.713, -99.636)" xlink:href="#linear-gradient-6"/>
    <linearGradient id="linear-gradient-19" x1="430.814" y1="68.485" x2="430.814" y2="60.22" gradientTransform="translate(272.043 432.363) rotate(-129.649)" xlink:href="#linear-gradient-6"/>
    <linearGradient id="linear-gradient-20" x1="467.1" y1="148.861" x2="467.1" y2="139.562" gradientTransform="translate(400.685 360.273) rotate(-158.044)" xlink:href="#linear-gradient-6"/>
    <linearGradient id="linear-gradient-21" x1="37.921" y1="64.604" x2="37.921" y2="57.119" xlink:href="#linear-gradient-4"/>
    <linearGradient id="linear-gradient-22" x1="47.916" y1="51.776" x2="47.916" y2="46.184" xlink:href="#linear-gradient-4"/>
    <linearGradient id="linear-gradient-23" x1="16.025" y1="49.153" x2="16.025" y2="43.565" xlink:href="#linear-gradient-4"/>
    <linearGradient id="linear-gradient-24" x1="54.633" y1="48.513" x2="54.633" y2="42.167" xlink:href="#linear-gradient-12"/>
    <linearGradient id="linear-gradient-25" x1="14.57" y1="39.798" x2="14.57" y2="35.003" xlink:href="#linear-gradient-12"/>
    <linearGradient id="linear-gradient-26" x1="208.644" y1="23.386" x2="208.644" y2="13.915" gradientTransform="matrix(0.703, -0.712, 0.712, 0.703, -133.766, 146.505)" xlink:href="#linear-gradient-6"/>
    <linearGradient id="linear-gradient-27" x1="43.372" y1="52.272" x2="43.372" y2="42.114" xlink:href="#linear-gradient-6"/>
    <linearGradient id="linear-gradient-28" x1="9.626" y1="52.229" x2="9.626" y2="42.073" xlink:href="#linear-gradient-6"/>
    <linearGradient id="linear-gradient-29" x1="109.781" y1="341.865" x2="109.781" y2="333.154" gradientTransform="matrix(0.028, 1, -1, 0.028, 366.764, -52.835)" xlink:href="#linear-gradient-6"/>
    <linearGradient id="linear-gradient-30" x1="24.204" y1="63.729" x2="24.204" y2="56.733" xlink:href="#linear-gradient-4"/>
    <linearGradient id="linear-gradient-31" x1="76.222" y1="280.294" x2="69.655" y2="278.21" gradientTransform="translate(272.51 -106.924) rotate(72.391)" xlink:href="#linear-gradient-4"/>
    <linearGradient id="linear-gradient-32" x1="6.592" y1="162.331" x2="6.592" y2="155.335" gradientTransform="matrix(0.749, 0.662, -0.662, 0.749, 154.903, -86.638)" xlink:href="#linear-gradient-4"/>
  </defs>
  <title>Asset 10</title>
  <g class="cls-1">
    <g id="Layer_2" data-name="Layer 2">
      <g id="Layer_1-2" data-name="Layer 1">
        <g>
          <path class="cls-2" d="M29.884,39.766c.811.811,1.474.538,1.474-.611V1.679A1.6,1.6,0,0,0,29.325.05,44.264,44.264,0,0,0,15.489,3.341,42.8,42.8,0,0,0,3.8,10.782a1.666,1.666,0,0,0-.255,2.649Z"/>
          <path class="cls-3" d="M30.425,39.241a1.039,1.039,0,0,1-.345-.266L7.658,14.993a1.082,1.082,0,0,1-.312-.84A1.05,1.05,0,0,1,7.8,13.39l.033-.026.028-.027a36.249,36.249,0,0,1,9.809-6.676A35.293,35.293,0,0,1,29.277,3.71L29.32,3.7l.043-.01a1.281,1.281,0,0,1,.263-.031.893.893,0,0,1,.871,1V38.79A1.073,1.073,0,0,1,30.425,39.241Z"/>
          <path class="cls-4" d="M17.327,25.007h0A1.491,1.491,0,1,1,19.4,27.155h0l.835.871h0a2.7,2.7,0,1,0-3.743-3.888h0Z"/>
          <path class="cls-5" d="M8.293,10.188s-2.962.4-3.152,2c-.267,2.221,3.08,1.84,4.3.094a6.227,6.227,0,0,1,3.674-2.795A15.58,15.58,0,0,0,17.4,7.048c1.122-.875,4.916-1.748,5.813-1.924s7.238-.26,6.763-2-2.2-1.313-3.685-.965S21.058,3.2,19.178,3.729s-4.829.8-6.061,2.412S8.714,8.616,8.293,10.188Z"/>
          <path class="cls-6" d="M8.293,10.188s-2.962.4-3.152,2c-.267,2.221,3.08,1.84,4.3.094a6.227,6.227,0,0,1,3.674-2.795A15.58,15.58,0,0,0,17.4,7.048c1.122-.875,4.916-1.748,5.813-1.924s7.238-.26,6.763-2-2.2-1.313-3.685-.965S21.058,3.2,19.178,3.729s-4.829.8-6.061,2.412S8.714,8.616,8.293,10.188Z"/>
          <path class="cls-6" d="M8.293,10.188s-2.962.4-3.152,2c-.267,2.221,3.08,1.84,4.3.094a6.227,6.227,0,0,1,3.674-2.795A15.58,15.58,0,0,0,17.4,7.048c1.122-.875,4.916-1.748,5.813-1.924s7.238-.26,6.763-2-2.2-1.313-3.685-.965S21.058,3.2,19.178,3.729s-4.829.8-6.061,2.412S8.714,8.616,8.293,10.188Z"/>
          <path class="cls-4" d="M18.816,8.749a2.7,2.7,0,1,0,2.7,2.7A2.7,2.7,0,0,0,18.816,8.749Zm0,4.2a1.493,1.493,0,1,1,1.493-1.494A1.494,1.494,0,0,1,18.816,12.944Z"/>
          <path class="cls-4" d="M28.124,18.923a2.214,2.214,0,1,0,2.216,2.215A2.214,2.214,0,0,0,28.124,18.923Zm0,3.439a1.226,1.226,0,1,1,1.224-1.224A1.224,1.224,0,0,1,28.124,22.362Z"/>
          <path class="cls-7" d="M25.044,14.929A2.47,2.47,0,0,0,21.013,12.2a.232.232,0,0,0-.051-.027,1.936,1.936,0,1,0-1.577,3.537c.03.013.058.021.09.033A2.375,2.375,0,0,0,24,17.036a2.318,2.318,0,0,0,.2-1.088A2.448,2.448,0,0,0,25.044,14.929Zm-1.706.9a1.569,1.569,0,0,1-.132.707,1.548,1.548,0,0,1-2.948-.84l.063-.451-.465-.178a1.154,1.154,0,1,1,.927-2.113l.026.015.377.184.29-.3a1.632,1.632,0,1,1,2.108,2.473l-.265.184Z"/>
          <path class="cls-8" d="M28.337,26.975A2.471,2.471,0,0,0,24.3,24.251c-.017-.01-.033-.02-.049-.028a1.936,1.936,0,0,0-1.578,3.536c.03.013.059.023.09.035a2.375,2.375,0,1,0,4.725.2A2.46,2.46,0,0,0,28.337,26.975Zm-1.708.9a1.516,1.516,0,0,1-.131.707,1.547,1.547,0,0,1-2.947-.84l.061-.451-.464-.178a1.154,1.154,0,1,1,.927-2.113l.027.015.375.184.291-.3a1.633,1.633,0,1,1,2.107,2.473l-.264.185Z"/>
          <g>
            <path class="cls-9" d="M20.161,17.2a3.942,3.942,0,0,1-3.8,4.065,3.941,3.941,0,0,1-3.8-4.065,3.938,3.938,0,0,1,3.8-4.062A3.94,3.94,0,0,1,20.161,17.2Z"/>
            <path class="cls-10" d="M15.976,16.475a.437.437,0,1,1-.405.493A.449.449,0,0,1,15.976,16.475Z"/>
            <path class="cls-10" d="M14.277,15.265a.435.435,0,1,1-.2.6A.449.449,0,0,1,14.277,15.265Z"/>
            <path class="cls-10" d="M18.819,16a.436.436,0,1,1-.2.6A.452.452,0,0,1,18.819,16Z"/>
            <path class="cls-10" d="M19.069,17.917a.452.452,0,0,1,.615.166.465.465,0,0,1-.818.439A.455.455,0,0,1,19.069,17.917Z"/>
            <path class="cls-10" d="M16.9,18.946a.437.437,0,1,1-.2.6A.451.451,0,0,1,16.9,18.946Z"/>
            <path class="cls-10" d="M17.55,14.4a.435.435,0,1,1,.41.766.435.435,0,1,1-.41-.766Z"/>
            <path class="cls-10" d="M15.622,14.616a.3.3,0,1,1-.138.412A.308.308,0,0,1,15.622,14.616Z"/>
            <path class="cls-10" d="M14.716,19.36a.3.3,0,1,1-.141.414A.308.308,0,0,1,14.716,19.36Z"/>
            <path class="cls-10" d="M13.322,17.28a.3.3,0,1,1,.283.526.306.306,0,0,1-.42-.112A.31.31,0,0,1,13.322,17.28Z"/>
            <path class="cls-10" d="M17.955,17.118a.3.3,0,0,1,.419.111.319.319,0,1,1-.419-.111Z"/>
            <path class="cls-10" d="M14.976,17.807a.3.3,0,1,1-.138.413A.311.311,0,0,1,14.976,17.807Z"/>
            <path class="cls-11" d="M17.169,16.884a.483.483,0,1,1-.481-.514A.5.5,0,0,1,17.169,16.884Z"/>
            <path class="cls-11" d="M18.738,15.2a.482.482,0,1,1-.631-.308A.5.5,0,0,1,18.738,15.2Z"/>
            <path class="cls-11" d="M17.286,20.071a.481.481,0,1,1-.632-.306A.5.5,0,0,1,17.286,20.071Z"/>
            <path class="cls-11" d="M15.145,20.071a.482.482,0,1,1-.632-.306A.5.5,0,0,1,15.145,20.071Z"/>
            <path class="cls-11" d="M14.327,17.54a.482.482,0,1,1-.632-.307A.5.5,0,0,1,14.327,17.54Z"/>
            <path class="cls-11" d="M19.225,18.909a.482.482,0,1,1-.632-.309A.5.5,0,0,1,19.225,18.909Z"/>
            <path class="cls-11" d="M19.259,16.765a.33.33,0,1,1-.434-.211A.341.341,0,0,1,19.259,16.765Z"/>
            <path class="cls-11" d="M14.184,15.089a.329.329,0,1,1-.614.234.329.329,0,1,1,.614-.234Z"/>
            <path class="cls-11" d="M16.663,13.86a.329.329,0,1,1-.431-.211A.342.342,0,0,1,16.663,13.86Z"/>
            <path class="cls-11" d="M16.182,18.964a.329.329,0,1,1-.432-.211A.337.337,0,0,1,16.182,18.964Z"/>
            <path class="cls-11" d="M15.851,15.6a.329.329,0,1,1-.432-.21A.34.34,0,0,1,15.851,15.6Z"/>
          </g>
          <g>
            <path class="cls-12" d="M30.473,31.852a.468.468,0,1,1-.443-.822.5.5,0,0,1,.467,0V26.737a.436.436,0,0,1,0-.314V24.952a3.769,3.769,0,0,0-1.044-.15,4.365,4.365,0,0,0,0,8.711,3.846,3.846,0,0,0,1.044-.151V31.831A.211.211,0,0,1,30.473,31.852Zm-1.154-6.5a.378.378,0,1,1-.2.479A.367.367,0,0,1,29.319,25.352Zm-.652,1.038a.319.319,0,1,1,.3.562.32.32,0,1,1-.3-.562Zm-2.005.281a.367.367,0,0,1,.464.224.4.4,0,0,1,0,.268.7.7,0,0,1,.1-.078.468.468,0,1,1-.218.646.451.451,0,0,1,0-.408.24.24,0,0,1-.078.051.377.377,0,0,1-.268-.7Zm-.348,3.22c0-.015,0-.033-.008-.048a.306.306,0,0,1-.252-.155.33.33,0,0,1,.148-.441.334.334,0,0,1,.319,0,.347.347,0,0,1,.08-.053.551.551,0,1,1-.287.7Zm1.554,3.043a.552.552,0,0,1-.392-1.029c.021-.006.042,0,.063-.01a.339.339,0,0,1,.6-.3.323.323,0,0,1-.135.431.556.556,0,0,1,.147.213A.534.534,0,0,1,27.868,32.934Zm.408-2.564a.333.333,0,0,1-.45-.119.34.34,0,1,1,.45.119Zm-.024-2.676a.353.353,0,1,1,.464.225A.365.365,0,0,1,28.252,27.694Zm.819,3.83a.377.377,0,1,1,.2-.476A.365.365,0,0,1,29.071,31.524Zm.095-2.217a.467.467,0,1,1-.12-.925.511.511,0,0,1,.369.093.5.5,0,0,1,.394-.205.552.552,0,0,1,0,1.1.49.49,0,0,1-.381-.188A.541.541,0,0,1,29.166,29.307Zm1,3.627a.552.552,0,1,1,.285-.7A.536.536,0,0,1,30.166,32.934Z"/>
            <path class="cls-10" d="M29.415,28.475a.511.511,0,0,0-.369-.093.467.467,0,1,0,.12.925.541.541,0,0,0,.262-.123.568.568,0,0,1-.134-.365A.581.581,0,0,1,29.415,28.475Z"/>
            <path class="cls-10" d="M27.008,27.323a.451.451,0,0,0,0,.408.5.5,0,1,0,.218-.646.7.7,0,0,0-.1.078A.36.36,0,0,1,27.008,27.323Z"/>
            <path class="cls-10" d="M30.03,31.03a.468.468,0,1,0,.443.822.211.211,0,0,0,.024-.021v-.8A.5.5,0,0,0,30.03,31.03Z"/>
            <path class="cls-10" d="M30.5,26.737v-.314A.436.436,0,0,0,30.5,26.737Z"/>
            <path class="cls-10" d="M28.968,26.952a.319.319,0,1,0-.3-.562.32.32,0,1,0,.3.562Z"/>
            <path class="cls-10" d="M28.007,32.024a.323.323,0,0,0,.135-.431.339.339,0,0,0-.6.3A.513.513,0,0,1,28.007,32.024Z"/>
            <path class="cls-10" d="M26.521,29.247a.334.334,0,0,0-.319,0,.33.33,0,0,0-.148.441.306.306,0,0,0,.252.155A.524.524,0,0,1,26.521,29.247Z"/>
            <path class="cls-10" d="M27.975,29.809a.329.329,0,0,0-.149.442.333.333,0,0,0,.45.119.319.319,0,1,0-.3-.561Z"/>
            <path class="cls-11" d="M29.809,29.372a.552.552,0,0,0,0-1.1.5.5,0,0,0-.394.205.448.448,0,0,1,.183.3.454.454,0,0,1-.17.406A.49.49,0,0,0,29.809,29.372Z"/>
            <path class="cls-11" d="M29.6,28.778a.448.448,0,0,0-.183-.3.581.581,0,0,0-.121.344.568.568,0,0,0,.134.365A.454.454,0,0,0,29.6,28.778Z"/>
            <path class="cls-11" d="M30.451,32.237a.517.517,0,1,0-.285.7A.534.534,0,0,0,30.451,32.237Z"/>
            <path class="cls-11" d="M28.007,32.024l-.011.01a.329.329,0,0,1-.451-.119c0-.006,0-.012-.006-.02-.021.006-.042,0-.063.01a.552.552,0,1,0,.678.332A.556.556,0,0,0,28.007,32.024Z"/>
            <path class="cls-11" d="M28,32.034l.011-.01a.513.513,0,0,0-.468-.129c0,.008,0,.014.006.02A.329.329,0,0,0,28,32.034Z"/>
            <path class="cls-11" d="M27.279,29.524a.535.535,0,0,0-.678-.33.347.347,0,0,0-.08.053.291.291,0,0,1,.132.119.328.328,0,0,1-.149.441.339.339,0,0,1-.2.036c0,.015,0,.033.008.048a.517.517,0,1,0,.965-.367Z"/>
            <path class="cls-11" d="M26.5,29.807a.328.328,0,0,0,.149-.441.291.291,0,0,0-.132-.119.524.524,0,0,0-.215.6A.339.339,0,0,0,26.5,29.807Z"/>
            <path class="cls-11" d="M26.93,27.374a.24.24,0,0,0,.078-.051.5.5,0,0,1,.12-.16.4.4,0,0,0,0-.268.367.367,0,0,0-.464-.224.377.377,0,0,0,.268.7Z"/>
            <path class="cls-11" d="M27.008,27.323a.36.36,0,0,0,.12-.16A.5.5,0,0,0,27.008,27.323Z"/>
            <path class="cls-11" d="M29.589,26.056a.378.378,0,1,0-.465-.225A.367.367,0,0,0,29.589,26.056Z"/>
            <path class="cls-11" d="M28.8,30.821a.377.377,0,1,0,.463.227A.364.364,0,0,0,28.8,30.821Z"/>
            <path class="cls-11" d="M28.911,27.442a.353.353,0,1,0-.659.252.368.368,0,0,0,.464.225A.364.364,0,0,0,28.911,27.442Z"/>
          </g>
          <path class="cls-13" d="M14.384,15.7a1.822,1.822,0,0,0-2.972-2.012.407.407,0,0,0-.038-.017,1.426,1.426,0,1,0-1.163,2.605.584.584,0,0,0,.067.024,1.752,1.752,0,0,0,3.336.953,1.8,1.8,0,0,0,.147-.8A1.818,1.818,0,0,0,14.384,15.7Zm-1.26.664a1.106,1.106,0,0,1-.1.523,1.141,1.141,0,0,1-2.173-.619l.047-.332-.342-.134a.85.85,0,1,1,.681-1.557l.021.014.277.13.214-.22A1.2,1.2,0,1,1,13.306,16l-.194.133Z"/>
          <path class="cls-14" d="M33.994,11.382a.938.938,0,0,0-1.431.922V42.048c0,.865-.193,1.492-.431,1.4a8.1,8.1,0,0,1-1.538-1.279L10.188,21.759a1.234,1.234,0,0,0-1.975.2S0,28.579,0,43.128a32.4,32.4,0,0,0,32.4,32.4c17.892,0,31.884-14.515,32.4-32.4C65.609,14.718,33.994,11.382,33.994,11.382Z"/>
          <path class="cls-6" d="M64.356,36.544A34.608,34.608,0,0,1,64.54,41.3c-.512,17.882-14.5,32.4-32.4,32.4A32.4,32.4,0,0,1,.2,46.671,32.4,32.4,0,0,0,32.4,75.526c17.892,0,31.884-14.515,32.4-32.4A33.537,33.537,0,0,0,64.356,36.544Z"/>
          <path class="cls-15" d="M12.822,25.944,30.936,44.458S34.082,46.712,34,43.39s-.052-28.28-.052-28.28,27.858,3.317,25.285,32.4c-2.292,25.9-36.445,28.14-47.136,14.834S3.438,31.991,12.822,25.944Z"/>
          <path class="cls-16" d="M61.227,43.6c-.077-.862-.151-1.893-.166-2.3s-.127-2.075-.282-2.926c0,0-2.23-12.279-7.138-16.7q-.813-.75-1.648-1.426c-5.832-4.7-16.515-6.453-16.515-6.453a1.274,1.274,0,0,0-1.527,1.316l.028,2.08a1.967,1.967,0,0,0,1.572,1.834l6.707.465a8.292,8.292,0,0,1,2.769.625l.578.332A26.061,26.061,0,0,1,57.178,34.255l.24.668a12.378,12.378,0,0,1,.389,2.951L56.342,52.811a10.627,10.627,0,0,1-.763,2.76l-.333.58a26.247,26.247,0,0,1-6.565,7.58l-.535.416a9.433,9.433,0,0,1-2.668,1.106l-14.929,3.4a8.7,8.7,0,0,1-2.864.172l-.659-.144a26.14,26.14,0,0,1-3.864-1.163l-.625-.238A10.02,10.02,0,0,1,20.2,65.622L8.98,53.182a9.409,9.409,0,0,1-1.465-2.55l-.188-.7c-.2-.734-.365-1.472-.5-2.209L6.7,46.989a8.455,8.455,0,0,1,.309-2.967L11.2,28.893a9.871,9.871,0,0,1,.875-1.982c.2-.271.762-.963.748-.967s-.373-.355-.8-.781a1.335,1.335,0,0,0-1.729,0c-.525.42-2.939,1.9-3.284,2.486l-.262.563C3.862,34.417,2.74,46.917,2.74,46.917a12.144,12.144,0,0,0,.073,2.707l.134.568A30.12,30.12,0,0,0,7,59.612l.385.6a7.4,7.4,0,0,0,2.283,1.746l8.543,6.969c.608.611,1.609,1.609,2.217,2.218l1.753.442c.811.3,2.1.717,2.869.933l.711.157a30.26,30.26,0,0,0,6.639.732c.717,0,1.43-.025,2.134-.074l.709-.051a13.959,13.959,0,0,0,2.853-.838l14.763-7.793A8.136,8.136,0,0,0,55.2,63.054l.426-.51A30.261,30.261,0,0,0,60.7,53.915l.244-.668a16.348,16.348,0,0,0,.47-2.957Z"/>
          <path class="cls-6" d="M61.227,43.6c-.077-.862-.151-1.893-.166-2.3s-.127-2.075-.282-2.926c0,0-2.23-12.279-7.138-16.7q-.813-.75-1.648-1.426c-5.832-4.7-16.515-6.453-16.515-6.453a1.274,1.274,0,0,0-1.527,1.316l.028,2.08a1.967,1.967,0,0,0,1.572,1.834l6.707.465a8.292,8.292,0,0,1,2.769.625l.578.332A26.061,26.061,0,0,1,57.178,34.255l.24.668a12.378,12.378,0,0,1,.389,2.951L56.342,52.811a10.627,10.627,0,0,1-.763,2.76l-.333.58a26.247,26.247,0,0,1-6.565,7.58l-.535.416a9.433,9.433,0,0,1-2.668,1.106l-14.929,3.4a8.7,8.7,0,0,1-2.864.172l-.659-.144a26.14,26.14,0,0,1-3.864-1.163l-.625-.238A10.02,10.02,0,0,1,20.2,65.622L8.98,53.182a9.409,9.409,0,0,1-1.465-2.55l-.188-.7c-.2-.734-.365-1.472-.5-2.209L6.7,46.989a8.455,8.455,0,0,1,.309-2.967L11.2,28.893a9.871,9.871,0,0,1,.875-1.982c.2-.271.762-.963.748-.967s-.373-.355-.8-.781a1.335,1.335,0,0,0-1.729,0c-.525.42-2.939,1.9-3.284,2.486l-.262.563C3.862,34.417,2.74,46.917,2.74,46.917a12.144,12.144,0,0,0,.073,2.707l.134.568A30.12,30.12,0,0,0,7,59.612l.385.6a7.4,7.4,0,0,0,2.283,1.746l8.543,6.969c.608.611,1.609,1.609,2.217,2.218l1.753.442c.811.3,2.1.717,2.869.933l.711.157a30.26,30.26,0,0,0,6.639.732c.717,0,1.43-.025,2.134-.074l.709-.051a13.959,13.959,0,0,0,2.853-.838l14.763-7.793A8.136,8.136,0,0,0,55.2,63.054l.426-.51A30.261,30.261,0,0,0,60.7,53.915l.244-.668a16.348,16.348,0,0,0,.47-2.957Z"/>
          <path class="cls-6" d="M61.227,43.6c-.077-.862-.151-1.893-.166-2.3s-.127-2.075-.282-2.926c0,0-2.23-12.279-7.138-16.7q-.813-.75-1.648-1.426c-5.832-4.7-16.515-6.453-16.515-6.453a1.274,1.274,0,0,0-1.527,1.316l.028,2.08a1.967,1.967,0,0,0,1.572,1.834l6.707.465a8.292,8.292,0,0,1,2.769.625l.578.332A26.061,26.061,0,0,1,57.178,34.255l.24.668a12.378,12.378,0,0,1,.389,2.951L56.342,52.811a10.627,10.627,0,0,1-.763,2.76l-.333.58a26.247,26.247,0,0,1-6.565,7.58l-.535.416a9.433,9.433,0,0,1-2.668,1.106l-14.929,3.4a8.7,8.7,0,0,1-2.864.172l-.659-.144a26.14,26.14,0,0,1-3.864-1.163l-.625-.238A10.02,10.02,0,0,1,20.2,65.622L8.98,53.182a9.409,9.409,0,0,1-1.465-2.55l-.188-.7c-.2-.734-.365-1.472-.5-2.209L6.7,46.989a8.455,8.455,0,0,1,.309-2.967L11.2,28.893a9.871,9.871,0,0,1,.875-1.982c.2-.271.762-.963.748-.967s-.373-.355-.8-.781a1.335,1.335,0,0,0-1.729,0c-.525.42-2.939,1.9-3.284,2.486l-.262.563C3.862,34.417,2.74,46.917,2.74,46.917a12.144,12.144,0,0,0,.073,2.707l.134.568A30.12,30.12,0,0,0,7,59.612l.385.6a7.4,7.4,0,0,0,2.283,1.746l8.543,6.969c.608.611,1.609,1.609,2.217,2.218l1.753.442c.811.3,2.1.717,2.869.933l.711.157a30.26,30.26,0,0,0,6.639.732c.717,0,1.43-.025,2.134-.074l.709-.051a13.959,13.959,0,0,0,2.853-.838l14.763-7.793A8.136,8.136,0,0,0,55.2,63.054l.426-.51A30.261,30.261,0,0,0,60.7,53.915l.244-.668a16.348,16.348,0,0,0,.47-2.957Z"/>
          <path class="cls-17" d="M25.929,61.626A3.174,3.174,0,1,0,29.1,64.8,3.173,3.173,0,0,0,25.929,61.626Zm0,4.928A1.754,1.754,0,1,1,27.682,64.8,1.754,1.754,0,0,1,25.929,66.554Z"/>
          <path class="cls-18" d="M37.37,19.936a2.623,2.623,0,1,0,2.622,2.623A2.624,2.624,0,0,0,37.37,19.936Zm0,4.073a1.449,1.449,0,1,1,1.449-1.45A1.452,1.452,0,0,1,37.37,24.009Z"/>
          <path class="cls-19" d="M35.42,50.3h0a1.754,1.754,0,0,1,3.5.283v0l1.415.115h0a3.174,3.174,0,1,0-6.326-.517h0Z"/>
          <path class="cls-20" d="M40.712,30.972a2.115,2.115,0,0,0,1.178-.155,2.047,2.047,0,0,0,1.053,1.137,2.967,2.967,0,0,0,4.033-.992l-1.149-.6h0c-.408.781-.945,1.229-1.729.82a1.6,1.6,0,0,1-.845-1.619.739.739,0,0,0,.06-.185,2.6,2.6,0,0,1,.1-.354L43.359,29a10.133,10.133,0,0,1,.888-2.453l-1.063-.35-.917,2.233a4.31,4.31,0,0,0-.458,1.322,1.182,1.182,0,0,1-1.936-1.086v0l-.95-.147A2.15,2.15,0,0,0,40.712,30.972Z"/>
          <path class="cls-21" d="M14.857,54.022h0a1.753,1.753,0,1,1-3.485-.386h0l-1.412-.157h0a3.174,3.174,0,1,0,6.309.7h0Z"/>
          <g>
            <path class="cls-22" d="M54.87,30.659A5.525,5.525,0,1,0,45.3,36.186s.053.164.363,0,9.06-5.244,9.06-5.244S54.97,30.825,54.87,30.659Z"/>
            <path class="cls-23" d="M45.889,34.552a2.772,2.772,0,0,1-.362-1.887c.5-2.7,3.02-4.367,6.178-3.568a3.554,3.554,0,0,1,1.73,1.269h0c.245.422-.323.945-.918.811A4.451,4.451,0,0,0,46.891,34.3c-.2.564-.761.671-1,.25Z"/>
            <path class="cls-23" d="M45.889,34.552a2.772,2.772,0,0,1-.362-1.887c.5-2.7,3.02-4.367,6.178-3.568a3.554,3.554,0,0,1,1.73,1.269h0c.245.422-.323.945-.918.811A4.451,4.451,0,0,0,46.891,34.3c-.2.564-.761.671-1,.25Z"/>
            <path class="cls-24" d="M48.862,31.075c.147-1.246-.588-1.016-.588-1.016S47.71,30.579,48.862,31.075Z"/>
            <path class="cls-24" d="M48.075,31.5c-.237-1.235-.867-.8-.867-.8S46.826,31.372,48.075,31.5Z"/>
            <path class="cls-24" d="M47.255,32.345c.058-1.254-.657-.973-.657-.973S46.07,31.931,47.255,32.345Z"/>
            <path class="cls-24" d="M46.863,33.03c-.422-.959-.851-.484-.851-.484S45.823,33.157,46.863,33.03Z"/>
            <path class="cls-24" d="M46.533,34.231c-.045-.873-.521-.627-.521-.627S45.686,34.026,46.533,34.231Z"/>
            <path class="cls-24" d="M49.622,30.6c-.948-.82-.253-1.146-.253-1.146S50.137,29.46,49.622,30.6Z"/>
            <path class="cls-24" d="M50.869,30.5c-1.113-.576-.514-1.055-.514-1.055S51.1,29.265,50.869,30.5Z"/>
            <path class="cls-24" d="M51.476,30.6c-.621-.841.007-.978.007-.978S52.107,29.77,51.476,30.6Z"/>
            <path class="cls-24" d="M52.559,30.753c-.733-.477-.286-.768-.286-.768S52.805,29.917,52.559,30.753Z"/>
          </g>
          <g>
            <path class="cls-25" d="M16.272,37.622a5.525,5.525,0,0,0-8.245-7.357s-.14.1.115.343,7.814,6.965,7.814,6.965S16.144,37.77,16.272,37.622Z"/>
            <path class="cls-23" d="M9.763,30.311a2.776,2.776,0,0,1,1.678-.933c2.72-.367,5.094,1.5,5.322,4.75a3.554,3.554,0,0,1-.662,2.041h0c-.324.365-1-.012-1.058-.619a4.453,4.453,0,0,0-4.728-4.366c-.6-.007-.877-.509-.552-.873Z"/>
            <path class="cls-23" d="M9.763,30.311a2.776,2.776,0,0,1,1.678-.933c2.72-.367,5.094,1.5,5.322,4.75a3.554,3.554,0,0,1-.662,2.041h0c-.324.365-1-.012-1.058-.619a4.453,4.453,0,0,0-4.728-4.366c-.6-.007-.877-.509-.552-.873Z"/>
            <path class="cls-24" d="M14,32.048c1.229-.252.782-.877.782-.877S14.107,30.8,14,32.048Z"/>
            <path class="cls-24" d="M13.347,31.432c1.1-.611.482-1.072.482-1.072S13.076,30.206,13.347,31.432Z"/>
            <path class="cls-24" d="M12.286,30.919c1.21-.338.72-.93.72-.93S12.309,29.663,12.286,30.919Z"/>
            <path class="cls-24" d="M11.515,30.761c.78-.7.193-.961.193-.961S11.068,29.811,11.515,30.761Z"/>
            <path class="cls-24" d="M10.268,30.823c.815-.316.434-.691.434-.691S10.2,29.956,10.268,30.823Z"/>
            <path class="cls-24" d="M14.682,32.622c.482-1.156,1.008-.6,1.008-.6S15.93,32.753,14.682,32.622Z"/>
            <path class="cls-24" d="M15.174,33.77c.2-1.236.839-.816.839-.816S16.418,33.608,15.174,33.77Z"/>
            <path class="cls-24" d="M15.263,34.384c.605-.854.932-.3.932-.3S16.253,34.722,15.263,34.384Z"/>
            <path class="cls-24" d="M15.459,35.456c.224-.844.639-.51.639-.51S16.33,35.427,15.459,35.456Z"/>
          </g>
          <g>
            <path class="cls-26" d="M42.369,56.554a5.46,5.46,0,1,0,10.24,3.8s.092-.144-.229-.279-9.7-3.586-9.7-3.586S42.433,56.372,42.369,56.554Z"/>
            <path class="cls-23" d="M51,60.931A2.718,2.718,0,0,1,49.788,62.4c-2.37,1.319-5.229.459-6.609-2.449a3.516,3.516,0,0,1-.129-2.117h0c.169-.451.925-.35,1.2.187a4.4,4.4,0,0,0,5.926,2.313c.552-.209.99.154.822.6Z"/>
            <path class="cls-23" d="M51,60.931A2.718,2.718,0,0,1,49.788,62.4c-2.37,1.319-5.229.459-6.609-2.449a3.516,3.516,0,0,1-.129-2.117h0c.169-.451.925-.35,1.2.187a4.4,4.4,0,0,0,5.926,2.313c.552-.209.99.154.822.6Z"/>
            <path class="cls-24" d="M46.474,60.862c-1.04.674-.4,1.09-.4,1.09S46.823,62.05,46.474,60.862Z"/>
            <path class="cls-24" d="M47.294,61.194c-.79.957-.058,1.16-.058,1.16S47.983,62.225,47.294,61.194Z"/>
            <path class="cls-24" d="M48.453,61.284c-.989.748-.325,1.115-.325,1.115S48.886,62.446,48.453,61.284Z"/>
            <path class="cls-24" d="M49.221,61.151c-.463.926.171.955.171.955S49.975,61.864,49.221,61.151Z"/>
            <path class="cls-24" d="M50.346,60.643c-.635.584-.151.8-.151.8S50.723,61.419,50.346,60.643Z"/>
            <path class="cls-24" d="M45.638,60.581c-.027,1.238-.713.916-.713.916S44.441,60.911,45.638,60.581Z"/>
            <path class="cls-24" d="M44.77,59.7c.264,1.211-.479,1.057-.479,1.057S43.684,60.3,44.77,59.7Z"/>
            <path class="cls-24" d="M44.467,59.171c-.25,1-.75.611-.75.611S43.434,59.216,44.467,59.171Z"/>
            <path class="cls-24" d="M43.9,58.253c.1.857-.4.7-.4.7S43.106,58.593,43.9,58.253Z"/>
          </g>
          <g>
            <path class="cls-27" d="M15.476,51.194a6.144,6.144,0,0,0,12.166-1.722s.013-.194-.375-.153-11.523,1.645-11.523,1.645S15.442,50.979,15.476,51.194Z"/>
            <path class="cls-23" d="M26.355,50.913a3.06,3.06,0,0,1-.411,2.094c-1.639,2.574-4.929,3.25-7.851,1.109a3.936,3.936,0,0,1-1.26-2.021h0c-.076-.539.727-.844,1.285-.455a4.952,4.952,0,0,0,7.1-.883c.434-.5,1.062-.379,1.135.156Z"/>
            <path class="cls-23" d="M26.355,50.913a3.06,3.06,0,0,1-.411,2.094c-1.639,2.574-4.929,3.25-7.851,1.109a3.936,3.936,0,0,1-1.26-2.021h0c-.076-.539.727-.844,1.285-.455a4.952,4.952,0,0,0,7.1-.883c.434-.5,1.062-.379,1.135.156Z"/>
            <path class="cls-24" d="M21.845,53.261c-.667,1.224.182,1.293.182,1.293S22.825,54.253,21.845,53.261Z"/>
            <path class="cls-24" d="M22.833,53.153c-.269,1.369.563,1.178.563,1.178S24.067,53.8,22.833,53.153Z"/>
            <path class="cls-24" d="M24.03,52.62c-.581,1.271.274,1.277.274,1.277S25.079,53.54,24.03,52.62Z"/>
            <path class="cls-24" d="M24.717,52.077c.038,1.166.679.855.679.855S25.845,52.378,24.717,52.077Z"/>
            <path class="cls-24" d="M25.559,50.975c-.316.918.276.864.276.864S26.347,51.54,25.559,50.975Z"/>
            <path class="cls-24" d="M20.865,53.432c.637,1.239-.216,1.288-.216,1.288S19.858,54.4,20.865,53.432Z"/>
            <path class="cls-24" d="M19.535,53.024c.907,1.057.093,1.3.093,1.3S18.781,54.2,19.535,53.024Z"/>
            <path class="cls-24" d="M18.952,52.661c.289,1.129-.415,1.008-.415,1.008S17.954,53.261,18.952,52.661Z"/>
            <path class="cls-24" d="M17.9,52.057c.557.8-.025.909-.025.909S17.3,52.819,17.9,52.057Z"/>
          </g>
          <path class="cls-28" d="M40.514,61.6a2.152,2.152,0,0,0-.954-.709,2.035,2.035,0,0,0,.033-1.549,2.969,2.969,0,0,0-3.587-2.092l.41,1.228h0c.837-.279,1.533-.224,1.812.614a1.6,1.6,0,0,1-.518,1.75.615.615,0,0,0-.173.094,2.89,2.89,0,0,1-.32.181l.02.061A10.161,10.161,0,0,1,34.9,62.319l.522.99,2.21-.968a4.291,4.291,0,0,0,1.251-.631,1.173,1.173,0,0,1,.867.465,1.189,1.189,0,0,1-.231,1.664h0l.578.765A2.152,2.152,0,0,0,40.514,61.6Z"/>
          <path class="cls-10" d="M39.059,38.821s-.292-1.074.488-1.074,1.561,1.756.586,2.539-7.126-3.4-1.757-7.689,7.564,1.88,6.685,2.564-2.441.389-2.146-.586,1.17-.293,1.17-.293-1.244-1.392-1.855-.34c-.493.846.879,1.729,1.757,2.184s2.442,1.426.878,2.7-.975,2.44-2.635.779-2.29-3.179-3.343-2.244C38.229,37.942,39.059,38.821,39.059,38.821Z"/>
          <path class="cls-10" d="M30.441,54.366s.917-.525,1.1.193S30.3,56.415,29.352,55.7,30.768,48.341,36,52.251s.082,7.406-.757,6.762-.942-2.153.025-2.116.548,1.008.548,1.008.984-1.478-.129-1.789c-.9-.25-1.381,1.223-1.588,2.139s-.728,2.586-2.269,1.453-2.478-.315-1.349-2.238,2.378-2.868,1.266-3.612C31.052,53.4,30.441,54.366,30.441,54.366Z"/>
          <path class="cls-29" d="M49.656,46.464a2.154,2.154,0,0,0-1.071.515,2.05,2.05,0,0,0-1.356-.75,2.971,2.971,0,0,0-3.521,2.2l1.279.209h0c.144-.871.514-1.464,1.385-1.322a1.6,1.6,0,0,1,1.308,1.274.761.761,0,0,0,0,.2,2.483,2.483,0,0,1,.011.367l.065.014a10.14,10.14,0,0,1-.076,2.605H48.8l.17-2.41a4.291,4.291,0,0,0,.024-1.4,1.169,1.169,0,0,1,.814-.553,1.188,1.188,0,0,1,1.365.98h0l.948-.156A2.153,2.153,0,0,0,49.656,46.464Z"/>
          <path class="cls-30" d="M17.765,43.847a2.1,2.1,0,0,0-1.071.511,2.048,2.048,0,0,0-1.357-.748,2.967,2.967,0,0,0-3.52,2.2l1.278.211v0c.144-.873.514-1.463,1.387-1.318a1.593,1.593,0,0,1,1.307,1.271.712.712,0,0,0,0,.2,2.754,2.754,0,0,1,.013.369l.063.012a10.022,10.022,0,0,1-.076,2.6h1.12l.171-2.406a4.3,4.3,0,0,0,.023-1.4,1.182,1.182,0,0,1,2.18.427v0l.948-.158A2.149,2.149,0,0,0,17.765,43.847Z"/>
          <path class="cls-31" d="M54.635,42.167a3.173,3.173,0,1,0,3.172,3.172A3.172,3.172,0,0,0,54.635,42.167Zm0,4.926a1.753,1.753,0,1,1,1.752-1.754A1.755,1.755,0,0,1,54.635,47.093Z"/>
          <path class="cls-10" d="M49.436,51.194l3.019,8.069a4.284,4.284,0,0,1,1.016-.563c1.775-.7.646-2.025-.017-2.689s-1.644-1.856-.956-2.479c.853-.771,1.576.844,1.576.844s-.595-.871-1.14-.074.779,1.513,1.768,1.15S55.494,48.9,49.436,51.194Z"/>
          <path class="cls-10" d="M14.131,56.475l2.7,7.219a3.966,3.966,0,0,1,.908-.5c1.59-.623.579-1.814-.013-2.408s-1.473-1.658-.855-2.217c.763-.689,1.408.754,1.408.754s-.531-.779-1.021-.064.7,1.351,1.584,1.025S19.55,54.423,14.131,56.475Z"/>
          <path class="cls-32" d="M14.569,35a2.4,2.4,0,1,0,2.4,2.4A2.4,2.4,0,0,0,14.569,35Zm0,3.722A1.325,1.325,0,1,1,15.894,37.4,1.323,1.323,0,0,1,14.569,38.725Z"/>
          <path class="cls-10" d="M17.637,37.577l3.183,8.51a4.57,4.57,0,0,1,1.07-.594c1.874-.734.682-2.139-.017-2.838s-1.734-1.957-1.009-2.613c.9-.817,1.664.89,1.664.89s-.63-.921-1.2-.08.822,1.6,1.867,1.211S24.023,35.159,17.637,37.577Z"/>
          <path class="cls-10" d="M27.777,9.35,24.79,16.567a3.745,3.745,0,0,1,1.02.254c1.609.637,1.684-.945,1.653-1.8s.056-2.246.9-2.236c1.044.019.525,1.537.525,1.537s.14-.945-.713-.756-.42,1.486.463,1.858S33.211,11.575,27.777,9.35Z"/>
          <path class="cls-10" d="M16.551,20.985l6.507,4.321a3.772,3.772,0,0,1,.445-.954c.933-1.457-.6-1.834-1.444-1.966s-2.192-.489-2.022-1.313c.221-1.019,1.608-.219,1.608-.219s-.9-.32-.877.555,1.378.7,1.913-.1S19.778,16.081,16.551,20.985Z"/>
          <path class="cls-10" d="M37.306,20.429l6.505,4.32a3.8,3.8,0,0,1,.447-.953c.934-1.457-.6-1.834-1.443-1.969s-2.193-.486-2.022-1.311C41.014,19.5,42.4,20.3,42.4,20.3s-.9-.323-.879.554,1.377.7,1.912-.1S40.534,15.524,37.306,20.429Z"/>
          <g>
            <path class="cls-33" d="M29.027,5.841A6.257,6.257,0,0,0,25.87,17.95s.175.088.291-.293,2.98-11.475,2.98-11.475S29.243,5.891,29.027,5.841Z"/>
            <path class="cls-23" d="M25.02,16.177a3.14,3.14,0,0,1-1.8-1.211c-1.775-2.551-1.12-5.909,2.037-7.815a3.993,3.993,0,0,1,2.4-.388h0c.535.138.506,1.013-.077,1.384a5.047,5.047,0,0,0-1.959,7.022c.3.6-.062,1.148-.594,1.008Z"/>
            <path class="cls-23" d="M25.02,16.177a3.14,3.14,0,0,1-1.8-1.211c-1.775-2.551-1.12-5.909,2.037-7.815a3.993,3.993,0,0,1,2.4-.388h0c.535.138.506,1.013-.077,1.384a5.047,5.047,0,0,0-1.959,7.022c.3.6-.062,1.148-.594,1.008Z"/>
            <path class="cls-24" d="M24.585,11.015C23.7,9.9,23.3,10.677,23.3,10.677S23.269,11.546,24.585,11.015Z"/>
            <path class="cls-24" d="M24.3,11.983c-1.185-.789-1.332.069-1.332.069S23.2,12.89,24.3,11.983Z"/>
            <path class="cls-24" d="M24.33,13.319c-.967-1.045-1.309-.244-1.309-.244S23.052,13.942,24.33,13.319Z"/>
            <path class="cls-24" d="M24.569,14.179c-1.109-.422-1.069.3-1.069.3S23.845,15.118,24.569,14.179Z"/>
            <path class="cls-24" d="M25.278,15.4c-.743-.656-.924-.08-.924-.08S24.436,15.921,25.278,15.4Z"/>
            <path class="cls-24" d="M24.81,10.026c-1.415.112-1.126-.707-1.126-.707S24.3,8.7,24.81,10.026Z"/>
            <path class="cls-24" d="M25.715,8.936c-1.349.44-1.258-.423-1.258-.423S24.906,7.768,25.715,8.936Z"/>
            <path class="cls-24" d="M26.283,8.53c-1.172-.17-.782-.785-.782-.785S26.112,7.358,26.283,8.53Z"/>
            <path class="cls-24" d="M27.266,7.778c-.968.211-.845-.381-.845-.381S26.786,6.915,27.266,7.778Z"/>
          </g>
          <g>
            <path class="cls-34" d="M48.128,47.192a4.766,4.766,0,1,1-4.757-5.078A4.926,4.926,0,0,1,48.128,47.192Z"/>
            <path class="cls-10" d="M42.9,46.288a.562.562,0,0,1,.644.463.581.581,0,0,1-1.149.15A.562.562,0,0,1,42.9,46.288Z"/>
            <path class="cls-10" d="M40.773,44.776a.544.544,0,1,1-.252.752A.565.565,0,0,1,40.773,44.776Z"/>
            <path class="cls-10" d="M46.45,45.69a.546.546,0,1,1-.254.754A.56.56,0,0,1,46.45,45.69Z"/>
            <path class="cls-10" d="M46.762,48.093a.544.544,0,1,1-.253.754A.565.565,0,0,1,46.762,48.093Z"/>
            <path class="cls-10" d="M44.047,49.378a.544.544,0,1,1-.255.75A.559.559,0,0,1,44.047,49.378Z"/>
            <path class="cls-10" d="M44.863,43.688a.567.567,0,0,1,.769.2.582.582,0,1,1-.769-.2Z"/>
            <path class="cls-10" d="M42.455,43.964a.374.374,0,1,1-.174.517A.389.389,0,0,1,42.455,43.964Z"/>
            <path class="cls-10" d="M41.32,49.9a.372.372,0,1,1-.174.514A.384.384,0,0,1,41.32,49.9Z"/>
            <path class="cls-10" d="M39.58,47.294a.39.39,0,0,1,.527.14.386.386,0,0,1-.174.516.38.38,0,0,1-.524-.139A.387.387,0,0,1,39.58,47.294Z"/>
            <path class="cls-10" d="M45.369,47.093a.382.382,0,0,1,.524.136.4.4,0,1,1-.524-.136Z"/>
            <path class="cls-10" d="M41.647,47.952a.373.373,0,1,1-.171.518A.387.387,0,0,1,41.647,47.952Z"/>
            <ellipse class="cls-11" cx="43.786" cy="46.8" rx="0.602" ry="0.643"/>
            <path class="cls-11" d="M46.35,44.688a.6.6,0,1,1-.79-.384A.621.621,0,0,1,46.35,44.688Z"/>
            <path class="cls-11" d="M44.535,50.782a.6.6,0,1,1-.79-.385A.622.622,0,0,1,44.535,50.782Z"/>
            <path class="cls-11" d="M41.858,50.782a.6.6,0,1,1-.79-.385A.623.623,0,0,1,41.858,50.782Z"/>
            <path class="cls-11" d="M40.837,47.622a.6.6,0,1,1-.79-.389A.622.622,0,0,1,40.837,47.622Z"/>
            <path class="cls-11" d="M46.957,49.331a.6.6,0,1,1-.789-.387A.622.622,0,0,1,46.957,49.331Z"/>
            <path class="cls-11" d="M47,46.649a.412.412,0,1,1-.77.289.421.421,0,0,1,.228-.552A.427.427,0,0,1,47,46.649Z"/>
            <path class="cls-11" d="M40.658,44.554a.412.412,0,1,1-.54-.26A.43.43,0,0,1,40.658,44.554Z"/>
            <path class="cls-11" d="M43.756,43.02a.411.411,0,1,1-.541-.263A.421.421,0,0,1,43.756,43.02Z"/>
            <path class="cls-11" d="M43.153,49.4a.411.411,0,1,1-.539-.263A.425.425,0,0,1,43.153,49.4Z"/>
            <path class="cls-11" d="M42.741,45.194a.411.411,0,1,1-.54-.263A.424.424,0,0,1,42.741,45.194Z"/>
          </g>
          <g>
            <path class="cls-35" d="M14.383,47.151a4.925,4.925,0,0,1-4.757,5.078,5.089,5.089,0,0,1,0-10.156A4.926,4.926,0,0,1,14.383,47.151Z"/>
            <path class="cls-10" d="M9.15,46.247a.544.544,0,1,1-.506.615A.56.56,0,0,1,9.15,46.247Z"/>
            <path class="cls-10" d="M7.027,44.733a.545.545,0,1,1,.516.957.558.558,0,0,1-.768-.2A.566.566,0,0,1,7.027,44.733Z"/>
            <path class="cls-10" d="M12.7,45.651a.545.545,0,1,1-.253.752A.562.562,0,0,1,12.7,45.651Z"/>
            <path class="cls-10" d="M13.016,48.052a.544.544,0,1,1-.253.754A.562.562,0,0,1,13.016,48.052Z"/>
            <path class="cls-10" d="M10.3,49.335a.544.544,0,1,1-.255.754A.56.56,0,0,1,10.3,49.335Z"/>
            <path class="cls-10" d="M11.117,43.649a.544.544,0,1,1-.254.752A.562.562,0,0,1,11.117,43.649Z"/>
            <path class="cls-10" d="M8.709,43.923a.373.373,0,1,1-.174.515A.386.386,0,0,1,8.709,43.923Z"/>
            <path class="cls-10" d="M7.575,49.852a.373.373,0,1,1-.175.516A.384.384,0,0,1,7.575,49.852Z"/>
            <path class="cls-10" d="M5.833,47.255a.372.372,0,1,1,.353.654.38.38,0,0,1-.523-.137A.386.386,0,0,1,5.833,47.255Z"/>
            <path class="cls-10" d="M11.623,47.05a.372.372,0,1,1,.351.654.372.372,0,1,1-.351-.654Z"/>
            <path class="cls-10" d="M7.9,47.913a.372.372,0,1,1-.173.514A.384.384,0,0,1,7.9,47.913Z"/>
            <ellipse class="cls-11" cx="10.04" cy="46.759" rx="0.602" ry="0.643"/>
            <path class="cls-11" d="M12.6,44.647a.6.6,0,1,1-.789-.384A.622.622,0,0,1,12.6,44.647Z"/>
            <path class="cls-11" d="M10.788,50.741a.6.6,0,1,1-.79-.383A.621.621,0,0,1,10.788,50.741Z"/>
            <path class="cls-11" d="M8.111,50.741a.6.6,0,1,1-.789-.383A.621.621,0,0,1,8.111,50.741Z"/>
            <path class="cls-11" d="M7.09,47.581a.6.6,0,1,1-.789-.389A.621.621,0,0,1,7.09,47.581Z"/>
            <path class="cls-11" d="M13.21,49.288a.6.6,0,1,1-.788-.385A.621.621,0,0,1,13.21,49.288Z"/>
            <path class="cls-11" d="M13.253,46.608a.412.412,0,1,1-.54-.263A.423.423,0,0,1,13.253,46.608Z"/>
            <path class="cls-11" d="M6.913,44.513a.413.413,0,1,1-.77.294.413.413,0,1,1,.77-.294Z"/>
            <path class="cls-11" d="M10.01,42.979a.411.411,0,1,1-.539-.263A.424.424,0,0,1,10.01,42.979Z"/>
            <path class="cls-11" d="M9.407,49.358a.411.411,0,1,1-.539-.265A.423.423,0,0,1,9.407,49.358Z"/>
            <path class="cls-11" d="M8.995,45.153a.412.412,0,1,1-.539-.263A.422.422,0,0,1,8.995,45.153Z"/>
          </g>
          <g>
            <path class="cls-36" d="M29.808,68.862a.467.467,0,1,1,.808-.465.5.5,0,0,1,.015.467l4.289-.119a.436.436,0,0,1,.314-.008l1.471-.043a3.816,3.816,0,0,0,.121-1.045,4.365,4.365,0,0,0-8.708.241,3.867,3.867,0,0,0,.178,1.039l1.532-.043A.091.091,0,0,1,29.808,68.862ZM36.27,67.53a.377.377,0,0,1-.7.287.377.377,0,0,1,.7-.287Zm-1.054-.625a.32.32,0,1,1-.447-.137A.332.332,0,0,1,35.216,66.905Zm-.335-1.994a.366.366,0,0,1-.213.469.4.4,0,0,1-.268.01.518.518,0,0,1,.083.1.467.467,0,1,1-.654-.2.471.471,0,0,1,.408-.012.269.269,0,0,1-.053-.074.378.378,0,0,1,.7-.287Zm-3.23-.26c.015-.008.032,0,.048-.01a.3.3,0,0,1,.148-.255.329.329,0,0,1,.446.136.347.347,0,0,1,.01.321.314.314,0,0,1,.053.076.551.551,0,1,1-.705-.268Zm-3,1.637a.552.552,0,0,1,1.018-.42c.008.02,0,.043.012.064a.325.325,0,0,1,.424.141.317.317,0,1,1-.54.33.567.567,0,0,1-.209.153A.533.533,0,0,1,28.652,66.288Zm2.574.338a.319.319,0,1,1,.446.137A.333.333,0,0,1,31.226,66.626Zm2.676-.1a.354.354,0,1,1-.215.471A.368.368,0,0,1,33.9,66.528Zm-3.806.926a.376.376,0,1,1,.48.18A.364.364,0,0,1,30.1,67.454Zm2.218.033a.468.468,0,1,1,.922-.146.522.522,0,0,1-.085.373.5.5,0,0,1,.217.386.552.552,0,0,1-1.1.03.494.494,0,0,1,.177-.385A.537.537,0,0,1,32.314,67.487Zm-3.6,1.1a.552.552,0,1,1,.706.265A.539.539,0,0,1,28.716,68.587Z"/>
            <path class="cls-10" d="M33.151,67.714a.522.522,0,0,0,.085-.373.468.468,0,1,0-.922.146.537.537,0,0,0,.13.258.549.549,0,0,1,.707-.031Z"/>
            <path class="cls-10" d="M34.237,65.272a.471.471,0,0,0-.408.012.5.5,0,1,0,.654.2.518.518,0,0,0-.083-.1A.353.353,0,0,1,34.237,65.272Z"/>
            <path class="cls-10" d="M30.616,68.4a.467.467,0,1,0-.808.465.091.091,0,0,0,.02.024l.8-.022A.5.5,0,0,0,30.616,68.4Z"/>
            <path class="cls-10" d="M34.92,68.745l.314-.008A.436.436,0,0,0,34.92,68.745Z"/>
            <path class="cls-10" d="M34.662,67.222a.32.32,0,1,0,.554-.317.32.32,0,1,0-.554.317Z"/>
            <path class="cls-10" d="M29.566,66.4a.317.317,0,1,0,.116-.471A.516.516,0,0,1,29.566,66.4Z"/>
            <path class="cls-10" d="M32.3,64.843a.347.347,0,0,0-.01-.321.329.329,0,0,0-.446-.136.3.3,0,0,0-.148.255A.528.528,0,0,1,32.3,64.843Z"/>
            <path class="cls-10" d="M31.779,66.309a.319.319,0,1,0-.107.454A.33.33,0,0,0,31.779,66.309Z"/>
            <path class="cls-11" d="M32.267,68.13a.552.552,0,0,0,1.1-.03.5.5,0,0,0-.217-.386.444.444,0,0,1-.3.189.454.454,0,0,1-.41-.158A.494.494,0,0,0,32.267,68.13Z"/>
            <path class="cls-11" d="M32.854,67.9a.444.444,0,0,0,.3-.189.549.549,0,0,0-.707.031A.454.454,0,0,0,32.854,67.9Z"/>
            <path class="cls-11" d="M29.422,68.852a.518.518,0,1,0-.706-.265A.534.534,0,0,0,29.422,68.852Z"/>
            <path class="cls-11" d="M29.566,66.4l-.011-.01a.33.33,0,0,1,.107-.455.059.059,0,0,1,.02-.006c-.007-.021,0-.044-.012-.064a.552.552,0,1,0-.313.688A.567.567,0,0,0,29.566,66.4Z"/>
            <path class="cls-11" d="M29.555,66.393l.011.01a.516.516,0,0,0,.116-.471.059.059,0,0,0-.02.006A.33.33,0,0,0,29.555,66.393Z"/>
            <path class="cls-11" d="M32.045,65.6a.53.53,0,0,0,.311-.685.314.314,0,0,0-.053-.076.306.306,0,0,1-.118.132.328.328,0,0,1-.445-.136.337.337,0,0,1-.041-.2c-.016.006-.033,0-.048.01a.517.517,0,1,0,.394.953Z"/>
            <path class="cls-11" d="M31.74,64.839a.328.328,0,0,0,.445.136.306.306,0,0,0,.118-.132.528.528,0,0,0-.6-.2A.337.337,0,0,0,31.74,64.839Z"/>
            <path class="cls-11" d="M34.184,65.2a.269.269,0,0,0,.053.074.566.566,0,0,1,.163.118.4.4,0,0,0,.268-.01.354.354,0,1,0-.484-.182Z"/>
            <path class="cls-11" d="M34.237,65.272a.353.353,0,0,0,.163.118A.566.566,0,0,0,34.237,65.272Z"/>
            <path class="cls-11" d="M35.574,67.817a.377.377,0,1,0,.213-.47A.366.366,0,0,0,35.574,67.817Z"/>
            <path class="cls-11" d="M30.79,67.167a.376.376,0,1,0-.214.467A.364.364,0,0,0,30.79,67.167Z"/>
            <path class="cls-11" d="M34.172,67.181A.354.354,0,1,0,33.687,67,.368.368,0,0,0,34.172,67.181Z"/>
          </g>
          <path class="cls-37" d="M27.5,60.212a2.472,2.472,0,0,0-4.034-2.725l-.049-.027A1.937,1.937,0,0,0,21.84,61c.03.012.058.021.091.033a2.375,2.375,0,1,0,4.725.2A2.458,2.458,0,0,0,27.5,60.212Zm-1.708.9a1.548,1.548,0,0,1-2.177,1.492,1.558,1.558,0,0,1-.9-1.625l.062-.449-.464-.18a1.153,1.153,0,1,1,.926-2.111l.028.016.375.181.292-.3a1.632,1.632,0,1,1,2.105,2.474l-.264.184Z"/>
          <path class="cls-38" d="M29.261,50.5a2.472,2.472,0,0,0,1.379-4.67c0-.016.007-.035.009-.053a1.935,1.935,0,0,0-3.846-.435c0,.033,0,.064,0,.095A2.376,2.376,0,1,0,28.036,50,2.457,2.457,0,0,0,29.261,50.5Zm-1.376-1.354a1.51,1.51,0,0,1-.716.088,1.547,1.547,0,0,1-.089-3.062l.446-.076.032-.5a1.152,1.152,0,1,1,2.292.24l-.005.031-.061.414.375.188a1.632,1.632,0,1,1-1.722,2.753l-.253-.2Z"/>
          <path class="cls-39" d="M57.1,38.864a2.471,2.471,0,0,0-1.215-4.713.436.436,0,0,0-.02-.053,1.935,1.935,0,0,0-3.523,1.6c.014.031.029.057.045.086a2.376,2.376,0,0,0,2.534,3.965,2.415,2.415,0,0,0,.872-.682A2.472,2.472,0,0,0,57.1,38.864Zm-1.877-.453a1.526,1.526,0,0,1-.568.443A1.548,1.548,0,0,1,53,36.27l.344-.3-.23-.439a1.154,1.154,0,1,1,2.094-.969l.011.032.16.382.418-.031a1.632,1.632,0,1,1-.063,3.248l-.318-.037Z"/>
        </g>
      </g>
    </g>
  </g>
</svg>
