<svg xmlns="http://www.w3.org/2000/svg" xmlns:xlink="http://www.w3.org/1999/xlink" viewBox="0 0 68.882 45.525">
  <defs>
    <style>
      .cls-1 {
        isolation: isolate;
      }

      .cls-2 {
        fill: url(#linear-gradient);
      }

      .cls-3 {
        fill: url(#linear-gradient-2);
      }

      .cls-10, .cls-16, .cls-4 {
        mix-blend-mode: screen;
      }

      .cls-10, .cls-5 {
        fill: #873a00;
      }

      .cls-11, .cls-17, .cls-6, .cls-8 {
        mix-blend-mode: multiply;
      }

      .cls-11, .cls-7 {
        fill: #f2cc9d;
      }

      .cls-8 {
        fill: #daeded;
      }

      .cls-9 {
        fill: url(#linear-gradient-3);
      }

      .cls-12 {
        fill: url(#linear-gradient-4);
      }

      .cls-13 {
        fill: url(#linear-gradient-5);
      }

      .cls-14, .cls-17 {
        fill: #ee4230;
      }

      .cls-15 {
        fill: url(#linear-gradient-6);
      }

      .cls-16 {
        fill: #8a0707;
      }

      .cls-18 {
        fill: url(#linear-gradient-7);
      }

      .cls-19 {
        fill: url(#linear-gradient-8);
      }
    </style>
    <linearGradient id="linear-gradient" x1="43.814" y1="43.253" x2="43.814" y2="26.697" gradientUnits="userSpaceOnUse">
      <stop offset="0.048" stop-color="#cceded"/>
      <stop offset="0.632" stop-color="#e6f5f5"/>
      <stop offset="1" stop-color="#f0f8f8"/>
    </linearGradient>
    <linearGradient id="linear-gradient-2" x1="43.778" y1="35.227" x2="43.778" y2="12.177" gradientUnits="userSpaceOnUse">
      <stop offset="0" stop-color="#d3680d"/>
      <stop offset="0.117" stop-color="#d97b17"/>
      <stop offset="0.366" stop-color="#e49d28"/>
      <stop offset="0.603" stop-color="#ecb535"/>
      <stop offset="0.821" stop-color="#f1c43c"/>
      <stop offset="1" stop-color="#f3c93f"/>
    </linearGradient>
    <linearGradient id="linear-gradient-3" x1="43.705" y1="45.525" x2="43.705" y2="30.37" xlink:href="#linear-gradient-2"/>
    <linearGradient id="linear-gradient-4" x1="26.141" y1="14.543" x2="26.141" y2="-12.858" gradientTransform="matrix(0.947, -0.323, 0.323, 0.947, -1.18, 32.203)" xlink:href="#linear-gradient"/>
    <linearGradient id="linear-gradient-5" x1="24.597" y1="9.261" x2="24.597" y2="-17.99" gradientTransform="matrix(0.947, -0.323, 0.323, 0.947, -1.18, 32.203)" gradientUnits="userSpaceOnUse">
      <stop offset="0" stop-color="#a80909"/>
      <stop offset="0.861" stop-color="#e63b2b"/>
      <stop offset="1" stop-color="#f04431"/>
    </linearGradient>
    <linearGradient id="linear-gradient-6" x1="23.606" y1="4.591" x2="23.606" y2="-21.032" xlink:href="#linear-gradient-5"/>
    <linearGradient id="linear-gradient-7" x1="28.628" y1="17.642" x2="28.628" y2="-7.234" xlink:href="#linear-gradient-5"/>
    <linearGradient id="linear-gradient-8" x1="27.048" y1="14.767" x2="27.048" y2="-10.309" xlink:href="#linear-gradient-5"/>
  </defs>
  <title>Asset 8</title>
  <g class="cls-1">
    <g id="Layer_2" data-name="Layer 2">
      <g id="Layer_1-2" data-name="Layer 1">
        <g>
          <path class="cls-2" d="M66.558,32.495a4.558,4.558,0,0,0,.706-5.016c-.8-1.679-44.543-.31-46.68.893-1.157.652-.826,7.152.832,9.141s25.172,7.56,29.966,5.144S66.08,33.7,66.558,32.495Z"/>
          <path class="cls-3" d="M67.015,21.823h0c-1.367-4.16-8.451-9.019-23.089-9.646-18.006.771-24.584,7.945-23.148,12.347,0,0-1.159-.642-1.931,1.541s1.292,3.475,1.739,4.76,4.436,3.084,5.978,2.184,1.157-.541,3.729.246,5.916,1.814,7.588,1.041,1.671-.772,5.014.273c3.2,1,3.6.887,6.176-.529s5.658-1.158,7.457-1.158,3.473.386,5.144-1.416a6.665,6.665,0,0,1,4.375-2.444c1.542-.258,1.927-.384,1.927-1.668a5.6,5.6,0,0,1,.773-2.92A2.025,2.025,0,0,0,67.015,21.823Z"/>
          <g class="cls-4">
            <path class="cls-5" d="M43.924,13.27c14.638.627,21.722,5.485,23.089,9.647h0a2.2,2.2,0,0,1,1.756,1.431,2.038,2.038,0,0,0-1.756-2.525h0c-1.367-4.16-8.451-9.019-23.089-9.646-17.064.73-23.853,7.211-23.294,11.632C21.215,19.483,28.225,13.942,43.924,13.27Z"/>
            <path class="cls-5" d="M18.845,27.159c.772-2.184,1.931-1.543,1.931-1.543a3.93,3.93,0,0,1-.169-1.152c-.346-.086-1.166-.082-1.762,1.6a2.7,2.7,0,0,0-.1,1.547A2.781,2.781,0,0,1,18.845,27.159Z"/>
          </g>
          <g class="cls-6">
            <path class="cls-7" d="M68.737,23.151a1.454,1.454,0,0,1-.068.231A5.586,5.586,0,0,0,67.9,26.3c0,1.285-.385,1.412-1.927,1.668a6.659,6.659,0,0,0-4.374,2.443c-1.671,1.8-3.343,1.416-5.145,1.416s-4.885-.256-7.457,1.158-2.975,1.533-6.174.531c-3.345-1.044-3.345-1.044-5.016-.275s-5.014-.256-7.588-1.041-2.184-1.144-3.728-.246-5.531-.9-5.978-2.184c-.319-.916-1.446-1.839-1.794-3.086-.226,1.819,1.467,2.985,1.87,4.141.448,1.285,4.436,3.084,5.978,2.184s1.157-.541,3.729.246,5.916,1.814,7.588,1.041,1.671-.772,5.014.273c3.2,1,3.6.887,6.176-.529s5.658-1.158,7.457-1.158,3.473.386,5.144-1.416a6.665,6.665,0,0,1,4.375-2.444c1.542-.258,1.927-.384,1.927-1.668a5.6,5.6,0,0,1,.773-2.92A1.549,1.549,0,0,0,68.737,23.151Z"/>
            <path class="cls-7" d="M20.7,23.47a3.906,3.906,0,0,1-.086-.42c-.008.129-.012.257-.008.382C20.66,23.452,20.7,23.47,20.7,23.47Z"/>
          </g>
          <path class="cls-8" d="M66.558,32.495a4.691,4.691,0,0,0,1.166-3.123,1.161,1.161,0,0,0-.246-.047c-1.094-.035-3.483,2.729-5.584,4.2s-2.868,1.35-5.842,1.922a32.273,32.273,0,0,0-5.833,1.492c-2.47.832-4.875-.523-6.456.2s-5.523.356-7.183-.2-4.5.131-7.188-.591a33.644,33.644,0,0,1-4.078-1.27c-1-.367-3.725-3.588-5.409-3.68a16.111,16.111,0,0,0,.515,3.93c.1.094.193.191.288.279a13.015,13.015,0,0,0,.337,1.338,3.7,3.7,0,0,0,.371.569c1.662,1.986,25.172,7.56,29.966,5.144S66.08,33.7,66.558,32.495Z"/>
          <path class="cls-9" d="M67.478,30.37c-1.094-.033-3.483,2.73-5.584,4.2s-2.868,1.35-5.842,1.924a32.115,32.115,0,0,0-5.833,1.49c-2.47.832-4.875-.523-6.456.205s-5.523.358-7.183-.205-4.5.131-7.188-.592a33.145,33.145,0,0,1-4.078-1.269c-1.148-.42-4.574-4.613-6.084-3.5-1.162.861.17,2.847,1.478,4.025.558,2.656,1.812,9.174,22.846,8.863,25.889-.38,23.835-11.933,23.835-11.933C69.428,31.841,68.574,30.4,67.478,30.37Z"/>
          <path class="cls-10" d="M19.338,34.141c1.51-1.115,4.937,3.077,6.084,3.5A33.684,33.684,0,0,0,29.5,38.907c2.683.723,5.533.029,7.189.592s5.6.932,7.181.2,3.987.627,6.457-.2a32.258,32.258,0,0,1,5.833-1.49c2.973-.575,3.744-.453,5.843-1.924s4.489-4.233,5.582-4.2a1.162,1.162,0,0,1,.85.406c.517-1.11-.15-1.9-.958-1.922-1.094-.033-3.483,2.73-5.584,4.2s-2.868,1.35-5.842,1.924a32.115,32.115,0,0,0-5.833,1.49c-2.47.832-4.875-.523-6.456.205s-5.523.358-7.183-.205-4.5.131-7.188-.592a33.145,33.145,0,0,1-4.078-1.269c-1.148-.42-4.574-4.613-6.084-3.5-.574.426-.537,1.127-.2,1.867A1.106,1.106,0,0,1,19.338,34.141Z"/>
          <path class="cls-11" d="M68.433,30.9a3.931,3.931,0,0,1-1.044,1.283s2.054,11.553-23.835,11.934c-21.034.311-22.288-6.207-22.846-8.863a6.865,6.865,0,0,1-1.737-2.33c-.62.959.56,2.67,1.737,3.728.558,2.656,1.812,9.174,22.846,8.863,25.889-.38,23.835-11.933,23.835-11.933C68.7,32.464,68.809,31.475,68.433,30.9Z"/>
          <path class="cls-11" d="M43.7,28.956c-12.38,0-22.459-3.334-23.074-7.522a2.9,2.9,0,0,0-.059.4c0,4.375,10.356,7.92,23.133,7.92s23.133-3.545,23.133-7.92a2.758,2.758,0,0,0-.059-.4C66.162,25.622,56.081,28.956,43.7,28.956Z"/>
          <g>
            <path class="cls-12" d="M41.763,9.222a4.563,4.563,0,0,0-2.816-4.211C37.236,4.29,5.528,34.464,4.739,36.784c-.427,1.26,4.151,5.887,6.714,6.26s23.8-11.137,25.768-16.131S42.21,10.44,41.763,9.222Z"/>
            <path class="cls-13" d="M39.39,4.442a5.606,5.606,0,0,1-1.373-2.685,2.023,2.023,0,0,0-3.029-.8c-.015.008-.053.047-.078.066a1.813,1.813,0,0,0-.884.317C33.12,2,4.492,31.014,4.492,31.014s-.715.18-.627,1.208L2.315,33.79s-1.29.293-.41,2.435,3.277,1.725,4.469,2.387,5.362-.652,5.913-2.351.5-1.176,2.944-2.3,5.619-2.588,6.35-4.281.733-1.692,3.923-3.137c3.052-1.389,3.273-1.742,4.247-4.51s3.448-4.635,4.789-5.834,2.844-2.023,2.894-4.484a6.621,6.621,0,0,1,1.63-4.733C40.042,5.757,40.248,5.4,39.39,4.442Z"/>
            <g class="cls-6">
              <path class="cls-14" d="M38.088,1.983c-.023-.078-.045-.144-.071-.226a1.135,1.135,0,0,0-.094-.2C37.974,1.706,38.032,1.845,38.088,1.983Z"/>
              <path class="cls-14" d="M38.755,6.073a6.633,6.633,0,0,0-1.63,4.734c-.047,2.457-1.549,3.28-2.892,4.483s-3.815,3.066-4.79,5.834-1.2,3.119-4.246,4.512c-3.191,1.445-3.191,1.445-3.924,3.134s-3.911,3.153-6.351,4.282-2.393.6-2.943,2.3S7.256,38.374,6.066,37.71c-1.167-.651-3.483-.279-4.4-2.279a4.318,4.318,0,0,0,.244.794c.882,2.141,3.277,1.725,4.469,2.387s5.362-.652,5.913-2.351.5-1.176,2.944-2.3,5.619-2.588,6.35-4.281.733-1.692,3.923-3.137c3.052-1.389,3.273-1.742,4.247-4.51s3.448-4.635,4.789-5.834,2.844-2.023,2.894-4.484a6.621,6.621,0,0,1,1.63-4.733c.881-1.1,1.126-1.5.542-2.267A3.7,3.7,0,0,1,38.755,6.073Z"/>
            </g>
            <path class="cls-15" d="M11.345,9.157C-1.563,21.729-1.687,31.466,2.315,33.79,8.769,37.538,24.2,23.54,24.2,23.54S39.837,9.764,36.832,2.932C34.968-1.3,25.284-2.269,11.345,9.157Z"/>
            <path class="cls-16" d="M11.663,10.091C25.485-1.237,35.113-.378,37.09,3.766a4.424,4.424,0,0,0-.258-.834C34.968-1.3,25.284-2.269,11.345,9.157.837,19.391-1.2,27.745.567,31.751-.54,27.462,1.914,19.591,11.663,10.091Z"/>
            <path class="cls-17" d="M36.7,2.7c1.231,7.092-12.926,19.57-12.926,19.57s-15.432,14-21.887,10.25A4.241,4.241,0,0,1,.2,30.616,4.714,4.714,0,0,0,2.315,33.79C8.769,37.538,24.2,23.54,24.2,23.54S39.837,9.764,36.832,2.932C36.8,2.85,36.737,2.778,36.7,2.7Z"/>
            <path class="cls-18" d="M43.1,9.473s9.234,7.247-9.813,24.786C16.929,49.325,11.964,43.964,10,42.626c0,0,12.648-5.233,21.487-13.916C37.4,22.9,43.1,9.473,43.1,9.473Z"/>
            <path class="cls-17" d="M43.759,10.173c1.586,3.129,2.43,10.4-11.191,22.947S13.229,44.05,10.562,42.384c-.363.16-.561.242-.561.242,1.963,1.338,6.928,6.7,23.288-8.367C48.978,19.811,45.48,12.354,43.759,10.173Z"/>
            <path class="cls-8" d="M40.843,6.464l-.012.008c-.838.71-.777,4.359-1.363,6.853s-1.238,2.918-3.075,5.328a32.118,32.118,0,0,0-3.355,5c-1.285,2.262-3.981,2.858-4.676,4.457s-3.881,3.948-5.489,4.635-3.275,3.1-5.753,4.35a33.7,33.7,0,0,1-3.891,1.769c-1.028.41-5.517-.24-6.624,1.012a15.264,15.264,0,0,0,3.028,2.433,6.038,6.038,0,0,0,1.854-.125c1.5-.421,2.433-.709,2.433-.709.583.69,4.738-.966,5.272-1.923s3.932-3.317,5.443-3.922,4.506-3.637,6.2-5.231,3.1-4.293,4.948-5.689a13.637,13.637,0,0,0,3.926-6.514,16.37,16.37,0,0,1,1.069-3.041c.729-2.982,1.181-5.406.989-5.931A4.742,4.742,0,0,0,40.843,6.464Z"/>
            <path class="cls-19" d="M14.119,42.026s-.936.283-2.433.7-5.5-.035-5.122-1.871,5.73-1,6.864-1.449a33.487,33.487,0,0,0,3.891-1.77c2.477-1.25,4.139-3.666,5.753-4.347s4.794-3.041,5.488-4.639,3.393-2.191,4.678-4.455a31.968,31.968,0,0,1,3.352-5c1.838-2.408,2.49-2.832,3.077-5.328s.525-6.143,1.363-6.852,2.435-.2,2.072,2.451-3.091,8-3.2,9.272a13.651,13.651,0,0,1-3.927,6.512c-1.852,1.394-3.258,4.093-4.948,5.689s-4.687,4.631-6.2,5.233-4.9,2.96-5.442,3.921S14.7,42.714,14.119,42.026Z"/>
            <path class="cls-16" d="M6.8,41.266c.381-1.837,5.731-1,6.864-1.449a32.84,32.84,0,0,0,3.891-1.767c2.479-1.25,4.14-3.666,5.753-4.35s4.8-3.043,5.489-4.637,3.392-2.193,4.677-4.455a32.107,32.107,0,0,1,3.354-5c1.837-2.41,2.489-2.832,3.076-5.328s.524-6.143,1.362-6.853a1.149,1.149,0,0,1,1.677.185,1.19,1.19,0,0,0-1.91-.592c-.838.709-.777,4.358-1.363,6.852s-1.239,2.92-3.077,5.328a31.968,31.968,0,0,0-3.352,5c-1.285,2.264-3.982,2.859-4.678,4.455s-3.881,3.951-5.488,4.639-3.276,3.1-5.753,4.347a33.487,33.487,0,0,1-3.891,1.77c-1.134.453-6.484-.389-6.864,1.449a1.061,1.061,0,0,0,.264.955A1.069,1.069,0,0,1,6.8,41.266Z"/>
            <path class="cls-17" d="M42.8,8.581c-.356,2.658-3.091,8-3.2,9.266a13.62,13.62,0,0,1-3.927,6.513c-1.851,1.395-3.256,4.1-4.947,5.688s-4.686,4.631-6.2,5.236-4.9,2.959-5.444,3.918-4.687,2.615-5.27,1.926c0,0-.936.285-2.434.707-1.175.332-3.893.117-4.822-.881-.222,1.754,3.659,2.189,5.128,1.777,1.5-.422,2.433-.7,2.433-.7.583.688,4.738-.97,5.272-1.926s3.933-3.318,5.442-3.921,4.506-3.637,6.2-5.233,3.1-4.3,4.948-5.689a13.651,13.651,0,0,0,3.927-6.512c.106-1.272,2.84-6.607,3.2-9.272a3.119,3.119,0,0,0-.311-2.167A4.367,4.367,0,0,1,42.8,8.581Z"/>
          </g>
        </g>
      </g>
    </g>
  </g>
</svg>
