<svg xmlns="http://www.w3.org/2000/svg" xmlns:xlink="http://www.w3.org/1999/xlink" viewBox="0 0 74.057 45.566">
  <defs>
    <style>
      .cls-1 {
        isolation: isolate;
      }

      .cls-2 {
        fill: url(#linear-gradient);
      }

      .cls-3 {
        fill: url(#linear-gradient-2);
      }

      .cls-16, .cls-4 {
        mix-blend-mode: screen;
      }

      .cls-5 {
        fill: #2e4206;
      }

      .cls-6 {
        fill: url(#linear-gradient-3);
      }

      .cls-7 {
        fill: #ee4230;
      }

      .cls-14, .cls-17, .cls-18, .cls-7 {
        mix-blend-mode: multiply;
      }

      .cls-8 {
        fill: #ff5f1a;
      }

      .cls-9 {
        fill: url(#linear-gradient-4);
      }

      .cls-10 {
        fill: url(#linear-gradient-5);
      }

      .cls-11 {
        fill: url(#linear-gradient-6);
      }

      .cls-12 {
        fill: url(#linear-gradient-7);
      }

      .cls-13 {
        fill: url(#linear-gradient-8);
      }

      .cls-14 {
        fill: #e2ebd1;
      }

      .cls-15 {
        fill: url(#linear-gradient-9);
      }

      .cls-16 {
        fill: #873a00;
      }

      .cls-17, .cls-19 {
        fill: #f2cc9d;
      }
    </style>
    <linearGradient id="linear-gradient" x1="37.478" y1="45.566" x2="37.478" y2="3.769" gradientUnits="userSpaceOnUse">
      <stop offset="0" stop-color="#d3680d"/>
      <stop offset="0.117" stop-color="#d97b17"/>
      <stop offset="0.366" stop-color="#e49d28"/>
      <stop offset="0.603" stop-color="#ecb535"/>
      <stop offset="0.821" stop-color="#f1c43c"/>
      <stop offset="1" stop-color="#f3c93f"/>
    </linearGradient>
    <linearGradient id="linear-gradient-2" x1="36.185" y1="44.097" x2="36.185" y2="1.995" gradientUnits="userSpaceOnUse">
      <stop offset="0.321" stop-color="#51740c"/>
      <stop offset="0.452" stop-color="#5b7f13"/>
      <stop offset="0.683" stop-color="#759d27"/>
      <stop offset="0.984" stop-color="#a0cc46"/>
      <stop offset="1" stop-color="#a2cf48"/>
    </linearGradient>
    <linearGradient id="linear-gradient-3" x1="-40.354" y1="-29.702" x2="-40.354" y2="-42.977" gradientTransform="matrix(0.636, 0.772, -0.772, 0.636, 35.022, 61.297)" gradientUnits="userSpaceOnUse">
      <stop offset="0" stop-color="#c70000"/>
      <stop offset="0.106" stop-color="#cd0502"/>
      <stop offset="0.665" stop-color="#e61c0b"/>
      <stop offset="1" stop-color="#f0250e"/>
    </linearGradient>
    <linearGradient id="linear-gradient-4" x1="21.596" y1="176.637" x2="21.596" y2="163.911" gradientTransform="matrix(-0.145, -0.99, 0.99, -0.145, -104.991, 61.218)" xlink:href="#linear-gradient-3"/>
    <linearGradient id="linear-gradient-5" x1="-80.992" y1="-11.507" x2="-80.992" y2="-24.236" gradientTransform="translate(59.255 113.397) rotate(82.039)" xlink:href="#linear-gradient-3"/>
    <linearGradient id="linear-gradient-6" x1="-31.993" y1="-19.101" x2="-31.993" y2="-31.915" gradientTransform="translate(24.246 72.13) rotate(32.126)" xlink:href="#linear-gradient-3"/>
    <linearGradient id="linear-gradient-7" x1="24.739" y1="27.479" x2="24.739" y2="12.361" gradientTransform="translate(-6.687 -5.431) rotate(-4.899)" xlink:href="#linear-gradient-3"/>
    <linearGradient id="linear-gradient-8" x1="37.694" y1="45.425" x2="37.694" y2="4.846" gradientUnits="userSpaceOnUse">
      <stop offset="0" stop-color="#51740c"/>
      <stop offset="0.193" stop-color="#5b7f13"/>
      <stop offset="0.533" stop-color="#759d27"/>
      <stop offset="0.977" stop-color="#a0cc46"/>
      <stop offset="1" stop-color="#a2cf48"/>
    </linearGradient>
    <linearGradient id="linear-gradient-9" x1="37.462" y1="45.566" x2="37.462" y2="8.511" xlink:href="#linear-gradient"/>
  </defs>
  <title>Asset 5</title>
  <g class="cls-1">
    <g id="Layer_2" data-name="Layer 2">
      <g id="Layer_1-2" data-name="Layer 1">
        <g>
          <path class="cls-2" d="M.9,40.814A36.813,36.813,0,0,1,37.479,3.769,36.812,36.812,0,0,1,74.054,40.814c.287,4.752-16.389,4.752-36.577,4.752S.614,45.566.9,40.814Z"/>
          <path class="cls-3" d="M8.538,44.1C3.6,43.771-2.081,39.763.761,34.291s3.312-5.579,3.3-10.418c-.008-7.055,4.776-9.422,9.85-9.946s6.17-6.488,8.949-9.211S32.284.521,35.6,4.175s6.682,1.586,9.666.391,9.192.121,11.934,6.451,6.7,6.381,9.92,6.537a6.049,6.049,0,0,1,5.006,7.184c-.864,4.679-3.826,6.144-1.428,8.451S74.843,44.8,61.61,43.978,8.538,44.1,8.538,44.1Z"/>
          <g class="cls-4">
            <path class="cls-5" d="M70.7,33.189a2.7,2.7,0,0,1-.877-1.453,2.326,2.326,0,0,0,.877,2.207,6.558,6.558,0,0,1,1.652,4.1A6.722,6.722,0,0,0,70.7,33.189Z"/>
            <path class="cls-5" d="M.761,35.044c2.841-5.47,3.312-5.576,3.3-10.416-.008-7.056,4.776-9.421,9.85-9.947s6.17-6.488,8.949-9.209,9.42-4.195,12.74-.543,6.682,1.588,9.666.391,9.192.121,11.934,6.451,6.7,6.381,9.92,6.537a6.064,6.064,0,0,1,5.111,5.52,6.046,6.046,0,0,0-5.111-6.274c-3.215-.156-7.178-.211-9.92-6.537S48.257,3.367,45.27,4.566,38.929,7.824,35.6,4.175s-9.963-2.185-12.74.541-3.879,8.688-8.949,9.211-9.858,2.891-9.85,9.946c.008,4.839-.463,4.945-3.3,10.418a6,6,0,0,0-.729,3.261A6.37,6.37,0,0,1,.761,35.044Z"/>
          </g>
          <g>
            <path class="cls-6" d="M44.335,11.98A8.907,8.907,0,0,0,39.2.566a8.723,8.723,0,0,0-11.27,5.2s-.146.237.366.451,15.541,5.877,15.541,5.877S44.229,12.277,44.335,11.98Z"/>
            <path class="cls-7" d="M30.526,4.82A4.429,4.429,0,0,1,32.47,2.451c3.806-2.125,8.382-.709,10.587,4.015a5.815,5.815,0,0,1,.19,3.438h0c-.272.734-1.483.564-1.918-.315-1.992-3.959-5.44-5.326-9.49-3.783-.885.336-1.584-.254-1.313-.986Z"/>
            <path class="cls-7" d="M30.526,4.82A4.429,4.429,0,0,1,32.47,2.451c3.806-2.125,8.382-.709,10.587,4.015a5.815,5.815,0,0,1,.19,3.438h0c-.272.734-1.483.564-1.918-.315-1.992-3.959-5.44-5.326-9.49-3.783-.885.336-1.584-.254-1.313-.986Z"/>
            <path class="cls-8" d="M37.774,4.962c1.672-1.089.651-1.765.651-1.765S37.221,3.027,37.774,4.962Z"/>
            <path class="cls-8" d="M36.462,4.417c1.267-1.55.1-1.884.1-1.884S35.36,2.742,36.462,4.417Z"/>
            <path class="cls-8" d="M34.6,4.263c1.594-1.2.532-1.8.532-1.8S33.917,2.374,34.6,4.263Z"/>
            <path class="cls-8" d="M33.366,4.478c.752-1.5-.264-1.547-.264-1.547S32.167,3.318,33.366,4.478Z"/>
            <path class="cls-8" d="M31.565,5.3c1.022-.951.244-1.289.244-1.289S30.962,4.037,31.565,5.3Z"/>
            <path class="cls-8" d="M39.114,5.421c.049-2.009,1.15-1.48,1.15-1.48S41.034,4.892,39.114,5.421Z"/>
            <path class="cls-8" d="M40.5,6.857c-.418-1.965.771-1.711.771-1.711S42.245,5.89,40.5,6.857Z"/>
            <path class="cls-8" d="M40.985,7.718c.4-1.629,1.2-.988,1.2-.988S42.637,7.652,40.985,7.718Z"/>
            <path class="cls-8" d="M41.891,9.212c-.154-1.394.651-1.132.651-1.132S43.161,8.666,41.891,9.212Z"/>
          </g>
          <g>
            <path class="cls-9" d="M57.11,7.707a8.6,8.6,0,0,0-1.383,11.972,8.338,8.338,0,0,0,11.819,1.4s.236-.117-.08-.554-9.9-12.662-9.9-12.662S57.339,7.517,57.11,7.707Z"/>
            <path class="cls-7" d="M64.95,20.552a4.187,4.187,0,0,1-2.762.971c-4.174-.17-7.244-3.639-6.736-8.637a5.514,5.514,0,0,1,1.533-2.922h0c.58-.466,1.492.282,1.422,1.223-.307,4.26,1.859,7.121,5.947,7.893.9.169,1.18,1.007.6,1.472Z"/>
            <path class="cls-7" d="M64.95,20.552a4.187,4.187,0,0,1-2.762.971c-4.174-.17-7.244-3.639-6.736-8.637a5.514,5.514,0,0,1,1.533-2.922h0c.58-.466,1.492.282,1.422,1.223-.307,4.26,1.859,7.121,5.947,7.893.9.169,1.18,1.007.6,1.472Z"/>
            <path class="cls-8" d="M59.061,16.785c-1.912.054-1.406,1.125-1.406,1.125S58.565,18.656,59.061,16.785Z"/>
            <path class="cls-8" d="M59.874,17.894c-1.807.637-1.008,1.5-1.008,1.5S59.954,19.828,59.874,17.894Z"/>
            <path class="cls-8" d="M61.329,18.957c-1.9.189-1.324,1.22-1.324,1.22S60.962,20.855,61.329,18.957Z"/>
            <path class="cls-8" d="M62.444,19.4c-1.353.857-.543,1.41-.543,1.41S62.866,20.96,62.444,19.4Z"/>
            <path class="cls-8" d="M64.331,19.636c-1.307.266-.836.938-.836.938S64.2,20.976,64.331,19.636Z"/>
            <path class="cls-8" d="M58.182,15.732c-1.027,1.627-1.671.641-1.671.641S56.343,15.2,58.182,15.732Z"/>
            <path class="cls-8" d="M57.745,13.851c-.621,1.828-1.475,1.018-1.475,1.018S55.835,13.769,57.745,13.851Z"/>
            <path class="cls-8" d="M57.77,12.9c-1.133,1.135-1.476.209-1.476.209S56.376,12.121,57.77,12.9Z"/>
            <path class="cls-8" d="M57.761,11.216c-.559,1.225-1.092.606-1.092.606S56.446,11.025,57.761,11.216Z"/>
          </g>
          <g>
            <path class="cls-10" d="M68.958,38.261A8.593,8.593,0,0,0,70.413,26.3,8.345,8.345,0,0,0,58.6,24.824s-.234.119.082.556S68.5,38.1,68.5,38.1,68.727,38.453,68.958,38.261Z"/>
            <path class="cls-7" d="M61.194,25.373a4.178,4.178,0,0,1,2.766-.956c4.174.2,7.222,3.684,6.685,8.678A5.516,5.516,0,0,1,69.1,36.007h0c-.586.463-1.494-.291-1.418-1.228.331-4.262-1.816-7.133-5.9-7.932-.893-.176-1.172-1.014-.586-1.474Z"/>
            <path class="cls-7" d="M61.194,25.373a4.178,4.178,0,0,1,2.766-.956c4.174.2,7.222,3.684,6.685,8.678A5.516,5.516,0,0,1,69.1,36.007h0c-.586.463-1.494-.291-1.418-1.228.331-4.262-1.816-7.133-5.9-7.932-.893-.176-1.172-1.014-.586-1.474Z"/>
            <path class="cls-8" d="M67.061,29.175c1.91-.047,1.41-1.115,1.41-1.115S67.565,27.308,67.061,29.175Z"/>
            <path class="cls-8" d="M66.255,28.06c1.81-.627,1.015-1.492,1.015-1.492S66.184,26.126,66.255,28.06Z"/>
            <path class="cls-8" d="M64.807,26.988c1.9-.178,1.33-1.211,1.33-1.211S65.182,25.093,64.807,26.988Z"/>
            <path class="cls-8" d="M63.69,26.537c1.362-.848.553-1.407.553-1.407S63.28,24.974,63.69,26.537Z"/>
            <path class="cls-8" d="M61.807,26.291c1.309-.26.84-.932.84-.932S61.942,24.949,61.807,26.291Z"/>
            <path class="cls-8" d="M67.932,30.232c1.036-1.621,1.676-.629,1.676-.629S69.77,30.779,67.932,30.232Z"/>
            <path class="cls-8" d="M68.358,32.115c.633-1.824,1.481-1.01,1.481-1.01S70.266,32.208,68.358,32.115Z"/>
            <path class="cls-8" d="M68.325,33.068c1.143-1.131,1.479-.2,1.479-.2S69.716,33.855,68.325,33.068Z"/>
            <path class="cls-8" d="M68.329,34.751c.564-1.222,1.1-.6,1.1-.6S69.641,34.951,68.329,34.751Z"/>
          </g>
          <g>
            <path class="cls-11" d="M18.491,35.892a8.48,8.48,0,0,0-8.1-8.83,8.456,8.456,0,0,0-8.718,8.2s-.065.26.468.3,15.932.58,15.932.58S18.485,36.2,18.491,35.892Z"/>
            <path class="cls-7" d="M3.755,33.609a4.3,4.3,0,0,1,1.06-2.758c2.834-3.111,7.434-3.227,10.86.406a5.548,5.548,0,0,1,1.2,3.076h0c-.026.752-1.182.971-1.842.307-3-3-6.557-3.187-9.787-.535-.709.58-1.524.256-1.494-.5Z"/>
            <path class="cls-7" d="M3.755,33.609a4.3,4.3,0,0,1,1.06-2.758c2.834-3.111,7.434-3.227,10.86.406a5.548,5.548,0,0,1,1.2,3.076h0c-.026.752-1.182.971-1.842.307-3-3-6.557-3.187-9.787-.535-.709.58-1.524.256-1.494-.5Z"/>
            <path class="cls-8" d="M10.405,31.509c1.2-1.508.066-1.81.066-1.81S9.321,29.916,10.405,31.509Z"/>
            <path class="cls-8" d="M9.046,31.417c.691-1.806-.475-1.75-.475-1.75S7.538,30.226,9.046,31.417Z"/>
            <path class="cls-8" d="M7.3,31.851c1.091-1.592-.057-1.812-.057-1.812S6.112,30.337,7.3,31.851Z"/>
            <path class="cls-8" d="M6.243,32.421c.234-1.6-.707-1.328-.707-1.328S4.8,31.736,6.243,32.421Z"/>
            <path class="cls-8" d="M4.843,33.724c.648-1.18-.163-1.25-.163-1.25S3.919,32.759,4.843,33.724Z"/>
            <path class="cls-8" d="M11.764,31.517c-.556-1.848.606-1.7.606-1.7S13.36,30.443,11.764,31.517Z"/>
            <path class="cls-8" d="M13.462,32.4c-.969-1.662.191-1.8.191-1.8S14.762,30.978,13.462,32.4Z"/>
            <path class="cls-8" d="M14.161,33.037c-.119-1.61.8-1.276.8-1.276S15.649,32.468,14.161,33.037Z"/>
            <path class="cls-8" d="M15.434,34.121c-.56-1.227.252-1.237.252-1.237S16.429,33.232,15.434,34.121Z"/>
          </g>
          <g>
            <path class="cls-12" d="M28.587,8.949A9.781,9.781,0,0,0,14.864,6.476a10.059,10.059,0,0,0-2.441,13.9s.121.288.644-.054S28.372,9.484,28.372,9.484,28.792,9.234,28.587,8.949Z"/>
            <path class="cls-7" d="M13.216,17.341A5.051,5.051,0,0,1,12.288,14c.484-4.933,4.7-8.328,10.439-7.375a6.328,6.328,0,0,1,3.266,2.014h0c.5.723-.432,1.754-1.51,1.6-4.9-.661-8.349,1.705-9.523,6.492-.26,1.047-1.248,1.326-1.744.6Z"/>
            <path class="cls-7" d="M13.216,17.341A5.051,5.051,0,0,1,12.288,14c.484-4.933,4.7-8.328,10.439-7.375a6.328,6.328,0,0,1,3.266,2.014h0c.5.723-.432,1.754-1.51,1.6-4.9-.661-8.349,1.705-9.523,6.492-.26,1.047-1.248,1.326-1.744.6Z"/>
            <path class="cls-8" d="M17.973,10.626c.071-2.265-1.2-1.738-1.2-1.738S15.85,9.91,17.973,10.626Z"/>
            <path class="cls-8" d="M16.639,11.513c-.611-2.183-1.664-1.3-1.664-1.3S14.4,11.476,16.639,11.513Z"/>
            <path class="cls-8" d="M15.307,13.16C15.223,10.894,14,11.511,14,11.511S13.143,12.6,15.307,13.16Z"/>
            <path class="cls-8" d="M14.716,14.455c-.895-1.664-1.584-.741-1.584-.741S12.887,14.841,14.716,14.455Z"/>
            <path class="cls-8" d="M14.313,16.671c-.215-1.568-1.021-1.052-1.021-1.052S12.776,16.427,14.313,16.671Z"/>
            <path class="cls-8" d="M19.253,9.662c-1.809-1.329-.623-2.024-.623-2.024S19.993,7.521,19.253,9.662Z"/>
            <path class="cls-8" d="M21.452,9.273c-2.066-.863-1.074-1.815-1.074-1.815S21.68,7.019,21.452,9.273Z"/>
            <path class="cls-8" d="M22.55,9.374c-1.233-1.421-.139-1.763-.139-1.763S23.544,7.777,22.55,9.374Z"/>
            <path class="cls-8" d="M24.5,9.476c-1.377-.746-.625-1.338-.625-1.338S24.805,7.933,24.5,9.476Z"/>
          </g>
          <path class="cls-13" d="M64.343,45.425c4.757-.316,10.232-4.176,7.492-9.453s-3.19-5.377-3.182-10.041c.006-6.8-4.6-9.08-9.492-9.586s-5.947-6.254-8.625-8.877-9.078-4.043-12.283-.521-6.438,1.525-9.315.375-8.857.119-11.5,6.22-6.467,6.149-9.564,6.3A5.836,5.836,0,0,0,3.05,26.765c.834,4.512,3.691,5.918,1.377,8.145S.438,46.1,13.192,45.31,64.343,45.425,64.343,45.425Z"/>
          <path class="cls-14" d="M71.016,41.468a2.586,2.586,0,0,0-.5-1.533v0a34.772,34.772,0,0,0-.36-3.836.157.157,0,0,0-.008-.029c-.1-.643-.218-1.277-.353-1.906l-.006-.047,0,0a33.7,33.7,0,0,0-2.143-6.58l0-.006c-.405-.908-.846-1.8-1.325-2.658A33.592,33.592,0,0,0,59.614,16.4c-.152-.018-.3-.039-.453-.057-2.742-.285-4.279-2.219-5.574-4.328A32.633,32.633,0,0,0,42.446,8.134h0c-.021,0-.045,0-.066-.008-.678-.1-1.362-.177-2.049-.238-.117-.01-.238-.019-.358-.027-.685-.051-1.377-.084-2.074-.094l-.045,0h0c-.131,0-.261-.01-.394-.01-.024,0-.051,0-.074,0-2.032,1.627-4.063,1.289-5.993.573a32.625,32.625,0,0,0-7.121,2.2c-.008,0-.013.008-.017.008q-.844.375-1.662.8l-.084.042c-.538.276-1.063.565-1.582.868-.01.007-.02.011-.03.017v0A32.912,32.912,0,0,0,16.5,15.369a8.606,8.606,0,0,1-3.668,3.548A33.516,33.516,0,0,0,8.61,24.863l0,0c0,.01-.008.017-.013.027A33.674,33.674,0,0,0,4.372,41.267h0c-.143,2.375,4.4,3.436,11.566,3.912,10.528-.388,30.639-.1,41.323.1A45.313,45.313,0,0,0,67.61,43.9a2.48,2.48,0,0,0,.852.156,2.61,2.61,0,0,0,.556-.064,8.6,8.6,0,0,0,1.629-1.2A2.56,2.56,0,0,0,71.016,41.468Z"/>
          <g class="cls-4">
            <path class="cls-5" d="M7.874,20.392c3.1-.15,6.922-.2,9.564-6.3s8.621-7.373,11.5-6.217,6.116,3.141,9.315-.376,9.6-2.106,12.283.521,3.736,8.371,8.625,8.877,9.5,2.783,9.492,9.586c-.008,4.662.447,4.767,3.182,10.043a5.986,5.986,0,0,1,.709,2.51,5.82,5.82,0,0,0-.709-3.063C69.1,30.7,68.645,30.6,68.653,25.931c.006-6.8-4.6-9.08-9.492-9.586s-5.947-6.254-8.625-8.877-9.078-4.043-12.283-.521-6.438,1.525-9.315.375-8.857.119-11.5,6.22-6.467,6.149-9.564,6.3a5.836,5.836,0,0,0-4.926,5.877A5.844,5.844,0,0,1,7.874,20.392Z"/>
            <path class="cls-5" d="M4.427,35.46a2.262,2.262,0,0,0,.861-2.037,2.549,2.549,0,0,1-.861,1.487,6.475,6.475,0,0,0-1.6,4.588A6.362,6.362,0,0,1,4.427,35.46Z"/>
          </g>
          <g>
            <path class="cls-15" d="M5.04,41.353A32.634,32.634,0,0,1,37.466,8.511a32.633,32.633,0,0,1,32.42,32.842c.251,4.213-14.526,4.213-32.422,4.213s-32.678,0-32.426-4.213Z"/>
            <path class="cls-16" d="M37.466,9.892a32.617,32.617,0,0,1,32.4,31.859,1.58,1.58,0,0,0,.024-.4A32.633,32.633,0,0,0,37.466,8.511,32.634,32.634,0,0,0,5.04,41.353h0a1.617,1.617,0,0,0,.027.4A32.615,32.615,0,0,1,37.466,9.892Z"/>
            <path class="cls-17" d="M37.464,44.212c-17.315,0-31.7,0-32.4-3.81-.011.316-.025.631-.025.951h0c-.252,4.213,14.525,4.213,32.426,4.213s32.673,0,32.422-4.213c0-.32-.016-.637-.024-.955C69.175,44.212,54.784,44.212,37.464,44.212Z"/>
            <g class="cls-18">
              <path class="cls-19" d="M13.987,41.2a1.756,1.756,0,0,0-.035.351,1.711,1.711,0,0,0,3.293.67,1.6,1.6,0,0,0,.1-.322,1.442,1.442,0,0,0,.033-.34,1.5,1.5,0,0,0-.039-.326c.224.111.224-.652.224-.652C16.048,41.345,14.538,39.816,13.987,41.2Z"/>
              <path class="cls-19" d="M9.3,37.083a1.148,1.148,0,1,0,1.13,1.149A1.143,1.143,0,0,0,9.3,37.083Z"/>
              <path class="cls-19" d="M23.241,34.289c.357-.592-.4-1.356-1.5-1.694a2.352,2.352,0,0,0-.406-.031,2.52,2.52,0,0,0-2.5,2.535,2.553,2.553,0,0,0,.484,1.5,1.518,1.518,0,0,0,.551.5c.715.426,2.227,1.19,3.24-.2a1.347,1.347,0,0,0,.194-.32,1.9,1.9,0,0,0-.055-1.875A2.738,2.738,0,0,1,23.241,34.289Z"/>
              <path class="cls-19" d="M39.684,43.582a2.538,2.538,0,0,0-.2-.333,10.682,10.682,0,0,0-3.793-.287,1.77,1.77,0,0,0-.25.287,2.555,2.555,0,0,0-.484,1.5,2.5,2.5,0,0,0,.146.816q1.17,0,2.362,0t2.355,0a2.454,2.454,0,0,0,.149-.816A2.534,2.534,0,0,0,39.684,43.582Z"/>
              <path class="cls-19" d="M31.872,16.761a2.524,2.524,0,0,0-2.506-2.537,2.443,2.443,0,0,0-1.148.285,2.606,2.606,0,0,0-.332.207c-1.268.623.246,2.153-.278,3.834a1.5,1.5,0,0,0,.278.26,2.482,2.482,0,0,0,1.48.488A2.52,2.52,0,0,0,31.872,16.761Z"/>
              <path class="cls-19" d="M58.337,39.816c-.756.766-2.268-.768-3.352.6a2.843,2.843,0,0,0-.254.3,2.576,2.576,0,0,0-.48,1.5,2.5,2.5,0,1,0,5,0A2.286,2.286,0,0,0,59.2,41.8C59.846,41.345,57.581,40.582,58.337,39.816Z"/>
              <path class="cls-19" d="M40.186,10.169a2.482,2.482,0,0,0,2.166-1.285,32.6,32.6,0,0,0-4.5-.361A2.494,2.494,0,0,0,40.186,10.169Z"/>
              <path class="cls-19" d="M69.854,40.046c.016.436.032.87.032,1.307.068,1.141-.975,1.973-2.875,2.578a2.476,2.476,0,0,0,.835.152,2.517,2.517,0,0,0,2.5-2.531A2.543,2.543,0,0,0,69.854,40.046Z"/>
              <path class="cls-19" d="M69.886,41.353c0-.437-.016-.871-.032-1.307a2.486,2.486,0,0,0-2.008-1.033,2.434,2.434,0,0,0-.408.035c-.8.768-1.551,1.534-2.064,2.09a2.562,2.562,0,0,0-.031.414,2.527,2.527,0,0,0,1.668,2.379C68.911,43.326,69.954,42.494,69.886,41.353Z"/>
              <path class="cls-19" d="M12.245,29.7a1.8,1.8,0,0,0-.35-.11,1.829,1.829,0,0,0-.373-.039,1.889,1.889,0,0,0-.724,3.621,2,2,0,0,0,.349.108,2.345,2.345,0,0,0,1.893-2.086,2.253,2.253,0,0,0-.031-.24C13.026,29.873,13.026,29.873,12.245,29.7Z"/>
              <path class="cls-19" d="M16.452,23.445a1.587,1.587,0,1,0-1.566-1.588A1.577,1.577,0,0,0,16.452,23.445Z"/>
              <path class="cls-19" d="M17.446,27.414a1.007,1.007,0,1,0,1,1.007A1,1,0,0,0,17.446,27.414Z"/>
              <path class="cls-19" d="M31.128,40.57a1.007,1.007,0,1,0,1,1A1,1,0,0,0,31.128,40.57Z"/>
              <path class="cls-19" d="M48.925,37.226a1.007,1.007,0,1,0,1,1.006A1,1,0,0,0,48.925,37.226Z"/>
              <path class="cls-19" d="M9.444,25.927a1,1,0,0,0-.252-.652c-.295.537-.584,1.08-.851,1.637a.919.919,0,0,0,.107.019A1,1,0,0,0,9.444,25.927Z"/>
              <path class="cls-19" d="M49.858,33.576a1.711,1.711,0,1,0-1.709,1.734A1.723,1.723,0,0,0,49.858,33.576Z"/>
              <path class="cls-19" d="M57.259,30.421a1.413,1.413,0,1,0-1.4-1.416A1.4,1.4,0,0,0,57.259,30.421Z"/>
              <path class="cls-19" d="M27.62,36.232a1.412,1.412,0,1,0,1.392,1.414A1.407,1.407,0,0,0,27.62,36.232Z"/>
              <path class="cls-19" d="M37.464,17.021a1.412,1.412,0,1,0,1.39,1.412A1.4,1.4,0,0,0,37.464,17.021Z"/>
              <path class="cls-19" d="M42.692,36.82a1.411,1.411,0,1,0,1.4,1.412A1.4,1.4,0,0,0,42.692,36.82Zm0,2.42a1.008,1.008,0,1,1,.994-1.008A1,1,0,0,1,42.692,39.24Z"/>
              <path class="cls-19" d="M54.225,14.355a1.732,1.732,0,0,0-.041.346c.375,1.4.375,1.4,1.678,1.734a1.7,1.7,0,0,0,1.531-.975,31.5,31.5,0,0,0-2.754-1.955A.667.667,0,0,1,54.225,14.355Z"/>
              <path class="cls-19" d="M65.055,32.646a1.483,1.483,0,0,0-.154-.3,1.7,1.7,0,0,0-3.1.621,1.794,1.794,0,0,0-.034.348c.34,1.91,1.1,1.91,2.606,1.91C63.624,34.46,65.887,33.7,65.055,32.646Z"/>
              <path class="cls-19" d="M43.274,24.716a2.852,2.852,0,0,0-.388-.1,2.681,2.681,0,0,0-.407-.034,2.538,2.538,0,0,0,0,5.075,2.557,2.557,0,0,0,.8-.131c.08-.03.16-.061.238-.1,1.233-1.09-.279-2.621.92-3.689a2.518,2.518,0,0,0-.283-.346A4.126,4.126,0,0,0,43.274,24.716Z"/>
              <path class="cls-19" d="M53.05,22.222a2.769,2.769,0,0,0-2.057.529,2.283,2.283,0,0,0-.168.317,1.891,1.891,0,0,0,1.713,2.619,1.831,1.831,0,0,0,1.316-.553,1.862,1.862,0,0,0,.227-.277C55.317,22.988,52.294,22.988,53.05,22.222Z"/>
              <path class="cls-19" d="M27.815,27.042a1.86,1.86,0,1,0-1.859,1.883A1.874,1.874,0,0,0,27.815,27.042Z"/>
              <path class="cls-19" d="M22.893,13.974a1.874,1.874,0,0,0,1.86-1.887,1.853,1.853,0,0,0-.213-.855,32.178,32.178,0,0,0-3.307,1.7A1.862,1.862,0,0,0,22.893,13.974Z"/>
              <path class="cls-19" d="M34.956,32.548a1.884,1.884,0,1,0,1.861,1.883A1.871,1.871,0,0,0,34.956,32.548Z"/>
              <path class="cls-19" d="M26.753,43.683A1.866,1.866,0,0,0,24.9,45.5c1.2.02,2.442.036,3.709.043A1.868,1.868,0,0,0,26.753,43.683Z"/>
              <path class="cls-19" d="M50.007,44a1.906,1.906,0,0,0-.037-.38,2.3,2.3,0,0,0-.108-.354c-.588-1.156-2.1.375-3.609-.389,0,0,0,.764.076.743a1.652,1.652,0,0,0-.043.38,1.74,1.74,0,0,0,.041.379,1.879,1.879,0,0,0,.758,1.161c.73-.006,1.449-.016,2.162-.028A1.881,1.881,0,0,0,50.007,44Z"/>
              <path class="cls-19" d="M63.481,27.123a1.856,1.856,0,0,0,3.555.773c-.4-.895-.828-1.766-1.3-2.611a1.689,1.689,0,0,0-.392-.045A1.873,1.873,0,0,0,63.481,27.123Z"/>
              <path class="cls-19" d="M45.915,14.5c.338.84.338.84,1.1.84.751-.763,1.509-.763,1.455-2.576a1.368,1.368,0,0,0-.231-.193,1.529,1.529,0,0,0-.877-.272,1.574,1.574,0,0,0-1.564,1.586,1.675,1.675,0,0,0,.031.319A1.517,1.517,0,0,0,45.915,14.5Z"/>
              <path class="cls-19" d="M46.829,19.576a.766.766,0,0,0-.465-.137,1.008,1.008,0,0,0,0,2.016C47.762,21.458,46.253,20.693,46.829,19.576Z"/>
              <path class="cls-19" d="M68.343,35.31a1,1,0,0,0,.994,1.008.93.93,0,0,0,.162-.033c-.1-.657-.225-1.3-.36-1.94A.987.987,0,0,0,68.343,35.31Z"/>
              <path class="cls-19" d="M55.862,35.312a1.008,1.008,0,1,0-.994-1.008A1,1,0,0,0,55.862,35.312Z"/>
              <path class="cls-19" d="M42.692,37.224a1.008,1.008,0,1,0,.994,1.008A1.006,1.006,0,0,0,42.692,37.224Z"/>
              <path class="cls-19" d="M33.739,23.8a.994.994,0,1,0,1-1.008A1,1,0,0,0,33.739,23.8Z"/>
              <path class="cls-19" d="M41.692,16.931a1.008,1.008,0,1,0-.99-1.006A1,1,0,0,0,41.692,16.931Z"/>
              <path class="cls-19" d="M34.735,10.638a1,1,0,1,0-1,1.008A1,1,0,0,0,34.735,10.638Z"/>
              <path class="cls-19" d="M24.1,20.447a1.007,1.007,0,1,0-1-1.008A1,1,0,0,0,24.1,20.447Z"/>
              <path class="cls-19" d="M59.259,20.447a1,1,0,0,0-.5.136,1.106,1.106,0,0,0-.36.346.837.837,0,0,0-.135.44c.827,1.619,1.582.089,2.336.089,0,0-.754-.765-.839-.875A1.013,1.013,0,0,0,59.259,20.447Z"/>
            </g>
          </g>
        </g>
      </g>
    </g>
  </g>
</svg>
